<svg width="20" height="21" viewBox="0 0 20 21" fill="none" xmlns="http://www.w3.org/2000/svg">
<path d="M3.57438 11.1551H7.69084C7.99205 11.1551 8.19285 10.9543 8.19285 10.6531C8.19285 10.3519 7.99205 10.1511 7.69084 10.1511H3.57438L5.38161 8.34383C5.58241 8.14303 5.58241 7.84182 5.38161 7.64102C5.1808 7.44022 4.8796 7.44022 4.6788 7.64102L1.66675 10.6531L4.6788 13.6651C4.7792 13.7655 4.8796 13.7655 5.0804 13.7655C5.28121 13.7655 5.38161 13.7655 5.48201 13.6651C5.68281 13.4643 5.68281 13.1631 5.48201 12.9623L3.57438 11.1551Z" fill="#686868"/>
<path d="M15.3214 7.64102C15.1206 7.44022 14.8194 7.44022 14.6186 7.64102C14.4178 7.84182 14.4178 8.14303 14.6186 8.34383L16.4258 10.1511H12.3094C12.0082 10.1511 11.8074 10.3519 11.8074 10.6531C11.8074 10.9543 12.0082 11.1551 12.3094 11.1551H16.4258L14.5182 13.0627C14.3174 13.2635 14.3174 13.5647 14.5182 13.7655C14.6186 13.8659 14.719 13.8659 14.9198 13.8659C15.1206 13.8659 15.221 13.8659 15.3214 13.7655L18.3335 10.7535L15.3214 7.64102Z" fill="#686868"/>
<path d="M12.3093 15.2715L10.4017 17.1791V13.0627C10.4017 12.7615 10.2009 12.5607 9.89965 12.5607C9.59845 12.5607 9.39764 12.7615 9.39764 13.0627V17.1791L7.69082 15.2715C7.49001 15.0707 7.18881 15.0707 6.988 15.2715C6.7872 15.4723 6.7872 15.7735 6.988 15.9743L10.0001 18.9864L13.0121 15.9743C13.2129 15.7735 13.2129 15.4723 13.0121 15.2715C12.8113 15.0707 12.5101 15.0707 12.3093 15.2715Z" fill="#686868"/>
<path d="M7.6907 6.03456L9.49793 4.22733V8.3438C9.49793 8.645 9.69873 8.84581 9.99993 8.84581C10.3011 8.84581 10.5019 8.645 10.5019 8.3438V4.22733L12.4096 6.13496C12.51 6.23537 12.6104 6.23537 12.8112 6.23537C13.012 6.23537 13.1124 6.23537 13.2128 6.13496C13.4136 5.93416 13.4136 5.63296 13.2128 5.43215L10.2007 2.4201L7.18869 5.43215C6.98789 5.63296 6.98789 5.93416 7.18869 6.13496C7.38949 6.33577 7.48989 6.23537 7.6907 6.03456Z" fill="#686868"/>
</svg>
