<svg width="20" height="21" viewBox="0 0 20 21" fill="none" xmlns="http://www.w3.org/2000/svg">
<path d="M3.57438 11.0121H7.69084C7.99205 11.0121 8.19285 10.8113 8.19285 10.5101C8.19285 10.2089 7.99205 10.0081 7.69084 10.0081H3.57438L5.38161 8.20083C5.58241 8.00002 5.58241 7.69882 5.38161 7.49801C5.1808 7.29721 4.8796 7.29721 4.6788 7.49801L1.66675 10.5101L4.6788 13.5221C4.7792 13.6225 4.8796 13.6225 5.0804 13.6225C5.28121 13.6225 5.38161 13.6225 5.48201 13.5221C5.68281 13.3213 5.68281 13.0201 5.48201 12.8193L3.57438 11.0121Z" fill="#686868"/>
<path d="M15.3214 7.49801C15.1206 7.29721 14.8194 7.29721 14.6186 7.49801C14.4178 7.69882 14.4178 8.00002 14.6186 8.20083L16.4258 10.0081H12.3094C12.0082 10.0081 11.8074 10.2089 11.8074 10.5101C11.8074 10.8113 12.0082 11.0121 12.3094 11.0121H16.4258L14.5182 12.9197C14.3174 13.1205 14.3174 13.4217 14.5182 13.6225C14.6186 13.7229 14.719 13.7229 14.9198 13.7229C15.1206 13.7229 15.221 13.7229 15.3214 13.6225L18.3335 10.6105L15.3214 7.49801Z" fill="#686868"/>
<path d="M12.3093 15.1285L10.4017 17.0361V12.9197C10.4017 12.6185 10.2009 12.4177 9.89965 12.4177C9.59845 12.4177 9.39764 12.6185 9.39764 12.9197V17.0361L7.69082 15.1285C7.49001 14.9277 7.18881 14.9277 6.988 15.1285C6.7872 15.3293 6.7872 15.6305 6.988 15.8313L10.0001 18.8434L13.0121 15.8313C13.2129 15.6305 13.2129 15.3293 13.0121 15.1285C12.8113 14.9277 12.5101 14.9277 12.3093 15.1285Z" fill="#686868"/>
<path d="M7.6907 5.89156L9.49793 4.08433V8.20079C9.49793 8.502 9.69873 8.7028 9.99993 8.7028C10.3011 8.7028 10.5019 8.502 10.5019 8.20079V4.08433L12.4096 5.99196C12.51 6.09236 12.6104 6.09236 12.8112 6.09236C13.012 6.09236 13.1124 6.09236 13.2128 5.99196C13.4136 5.79116 13.4136 5.48995 13.2128 5.28915L10.2007 2.2771L7.18869 5.28915C6.98789 5.48995 6.98789 5.79116 7.18869 5.99196C7.38949 6.19276 7.48989 6.09236 7.6907 5.89156Z" fill="#686868"/>
</svg>
