<svg width="32" height="33" viewBox="0 0 32 33" fill="none" xmlns="http://www.w3.org/2000/svg">
<path d="M19.6268 12.22L13.9068 17.9534L11.7068 15.7534C11.5872 15.6138 11.4401 15.5004 11.2747 15.4204C11.1093 15.3404 10.9291 15.2954 10.7455 15.2883C10.5619 15.2812 10.3788 15.3121 10.2077 15.3792C10.0366 15.4462 9.88116 15.5479 9.75122 15.6778C9.62128 15.8078 9.5196 15.9632 9.45257 16.1343C9.38554 16.3054 9.3546 16.4885 9.36169 16.6721C9.36878 16.8557 9.41376 17.0359 9.49379 17.2013C9.57382 17.3667 9.68718 17.5138 9.82675 17.6334L12.9601 20.78C13.0847 20.9036 13.2324 21.0014 13.3949 21.0677C13.5573 21.1341 13.7313 21.1677 13.9068 21.1667C14.2565 21.1652 14.5917 21.0263 14.8401 20.78L21.5068 14.1134C21.6317 13.9894 21.7309 13.8419 21.7986 13.6795C21.8663 13.517 21.9012 13.3427 21.9012 13.1667C21.9012 12.9907 21.8663 12.8164 21.7986 12.6539C21.7309 12.4914 21.6317 12.344 21.5068 12.22C21.2569 11.9717 20.919 11.8323 20.5668 11.8323C20.2145 11.8323 19.8766 11.9717 19.6268 12.22ZM16.0001 3.16669C13.363 3.16669 10.7851 3.94867 8.59248 5.41376C6.39983 6.87884 4.69086 8.96123 3.68169 11.3976C2.67253 13.8339 2.40848 16.5148 2.92295 19.1012C3.43742 21.6876 4.7073 24.0634 6.572 25.9281C8.4367 27.7928 10.8125 29.0627 13.3989 29.5772C15.9853 30.0916 18.6662 29.8276 21.1025 28.8184C23.5389 27.8092 25.6213 26.1003 27.0863 23.9076C28.5514 21.715 29.3334 19.1371 29.3334 16.5C29.3334 14.7491 28.9885 13.0152 28.3185 11.3976C27.6484 9.7799 26.6663 8.31004 25.4282 7.07193C24.1901 5.83382 22.7202 4.85169 21.1025 4.18163C19.4849 3.51156 17.751 3.16669 16.0001 3.16669ZM16.0001 27.1667C13.8904 27.1667 11.8281 26.5411 10.074 25.369C8.31988 24.197 6.95271 22.5311 6.14537 20.582C5.33804 18.6329 5.1268 16.4882 5.53838 14.4191C5.94995 12.3499 6.96586 10.4493 8.45761 8.95755C9.94938 7.46579 11.85 6.44989 13.9191 6.03831C15.9883 5.62674 18.133 5.83797 20.082 6.64531C22.0311 7.45264 23.697 8.81981 24.8691 10.5739C26.0412 12.3281 26.6668 14.3904 26.6668 16.5C26.6668 19.329 25.5429 22.0421 23.5426 24.0425C21.5422 26.0429 18.8291 27.1667 16.0001 27.1667Z" fill="#00B900"/>
</svg>
