<svg width="20" height="20" viewBox="0 0 20 20" fill="none" xmlns="http://www.w3.org/2000/svg">
<path d="M3.57426 10.5121H7.69072C7.99193 10.5121 8.19273 10.3113 8.19273 10.0101C8.19273 9.70886 7.99193 9.50805 7.69072 9.50805H3.57426L5.38148 7.70083C5.58229 7.50002 5.58229 7.19882 5.38148 6.99801C5.18068 6.79721 4.87948 6.79721 4.67867 6.99801L1.66663 10.0101L4.67867 13.0221C4.77908 13.1225 4.87948 13.1225 5.08028 13.1225C5.28108 13.1225 5.38148 13.1225 5.48189 13.0221C5.68269 12.8213 5.68269 12.5201 5.48189 12.3193L3.57426 10.5121Z" fill="#686868"/>
<path d="M15.3214 6.99801C15.1206 6.79721 14.8194 6.79721 14.6186 6.99801C14.4178 7.19882 14.4178 7.50002 14.6186 7.70083L16.4258 9.50805H12.3094C12.0082 9.50805 11.8074 9.70886 11.8074 10.0101C11.8074 10.3113 12.0082 10.5121 12.3094 10.5121H16.4258L14.5182 12.4197C14.3174 12.6205 14.3174 12.9217 14.5182 13.1225C14.6186 13.2229 14.719 13.2229 14.9198 13.2229C15.1206 13.2229 15.221 13.2229 15.3214 13.1225L18.3335 10.1105L15.3214 6.99801Z" fill="#686868"/>
<path d="M12.3093 14.6286L10.4017 16.5362V12.4197C10.4017 12.1185 10.2009 11.9177 9.89965 11.9177C9.59845 11.9177 9.39764 12.1185 9.39764 12.4197V16.5362L7.69082 14.6286C7.49001 14.4278 7.18881 14.4278 6.988 14.6286C6.7872 14.8294 6.7872 15.1306 6.988 15.3314L10.0001 18.3434L13.0121 15.3314C13.2129 15.1306 13.2129 14.8294 13.0121 14.6286C12.8113 14.4278 12.5101 14.4278 12.3093 14.6286Z" fill="#686868"/>
<path d="M7.6907 5.39156L9.49793 3.58433V7.70079C9.49793 8.002 9.69873 8.2028 9.99993 8.2028C10.3011 8.2028 10.5019 8.002 10.5019 7.70079V3.58433L12.4096 5.49196C12.51 5.59236 12.6104 5.59236 12.8112 5.59236C13.012 5.59236 13.1124 5.59236 13.2128 5.49196C13.4136 5.29116 13.4136 4.98995 13.2128 4.78915L10.2007 1.7771L7.18869 4.78915C6.98789 4.98995 6.98789 5.29116 7.18869 5.49196C7.38949 5.69276 7.48989 5.59236 7.6907 5.39156Z" fill="#686868"/>
</svg>
