<svg width="21" height="20" viewBox="0 0 21 20" fill="none" xmlns="http://www.w3.org/2000/svg">
<path d="M4.07438 10.5121H8.19084C8.49205 10.5121 8.69285 10.3113 8.69285 10.0101C8.69285 9.70886 8.49205 9.50805 8.19084 9.50805H4.07438L5.88161 7.70083C6.08241 7.50002 6.08241 7.19882 5.88161 6.99801C5.6808 6.79721 5.3796 6.79721 5.1788 6.99801L2.16675 10.0101L5.1788 13.0221C5.2792 13.1225 5.3796 13.1225 5.5804 13.1225C5.78121 13.1225 5.88161 13.1225 5.98201 13.0221C6.18281 12.8213 6.18281 12.5201 5.98201 12.3193L4.07438 10.5121Z" fill="#686868"/>
<path d="M15.8214 6.99801C15.6206 6.79721 15.3194 6.79721 15.1186 6.99801C14.9178 7.19882 14.9178 7.50002 15.1186 7.70083L16.9258 9.50805H12.8094C12.5082 9.50805 12.3074 9.70886 12.3074 10.0101C12.3074 10.3113 12.5082 10.5121 12.8094 10.5121H16.9258L15.0182 12.4197C14.8174 12.6205 14.8174 12.9217 15.0182 13.1225C15.1186 13.2229 15.219 13.2229 15.4198 13.2229C15.6206 13.2229 15.721 13.2229 15.8214 13.1225L18.8335 10.1105L15.8214 6.99801Z" fill="#686868"/>
<path d="M12.8093 14.6286L10.9017 16.5362V12.4197C10.9017 12.1185 10.7009 11.9177 10.3997 11.9177C10.0984 11.9177 9.89764 12.1185 9.89764 12.4197V16.5362L8.19082 14.6286C7.99001 14.4278 7.68881 14.4278 7.488 14.6286C7.2872 14.8294 7.2872 15.1306 7.488 15.3314L10.5001 18.3434L13.5121 15.3314C13.7129 15.1306 13.7129 14.8294 13.5121 14.6286C13.3113 14.4278 13.0101 14.4278 12.8093 14.6286Z" fill="#686868"/>
<path d="M8.1907 5.39156L9.99793 3.58433V7.70079C9.99793 8.002 10.1987 8.2028 10.4999 8.2028C10.8011 8.2028 11.0019 8.002 11.0019 7.70079V3.58433L12.9096 5.49196C13.01 5.59236 13.1104 5.59236 13.3112 5.59236C13.512 5.59236 13.6124 5.59236 13.7128 5.49196C13.9136 5.29116 13.9136 4.98995 13.7128 4.78915L10.7007 1.7771L7.68869 4.78915C7.48789 4.98995 7.48789 5.29116 7.68869 5.49196C7.88949 5.69276 7.98989 5.59236 8.1907 5.39156Z" fill="#686868"/>
</svg>
