<svg width="32" height="33" viewBox="0 0 32 33" fill="none" xmlns="http://www.w3.org/2000/svg">
<path d="M19.6266 12.22L13.9066 17.9534L11.7066 15.7534C11.5871 15.6138 11.44 15.5004 11.2746 15.4204C11.1092 15.3404 10.929 15.2954 10.7454 15.2883C10.5617 15.2812 10.3786 15.3121 10.2075 15.3792C10.0364 15.4462 9.88104 15.5479 9.7511 15.6778C9.62116 15.8078 9.51948 15.9632 9.45245 16.1343C9.38542 16.3054 9.35447 16.4885 9.36157 16.6721C9.36866 16.8557 9.41363 17.0359 9.49366 17.2013C9.5737 17.3667 9.68706 17.5138 9.82663 17.6334L12.96 20.78C13.0846 20.9036 13.2323 21.0014 13.3948 21.0677C13.5572 21.1341 13.7312 21.1677 13.9066 21.1667C14.2564 21.1652 14.5916 21.0263 14.84 20.78L21.5066 14.1134C21.6316 13.9894 21.7308 13.8419 21.7985 13.6795C21.8662 13.517 21.901 13.3427 21.901 13.1667C21.901 12.9907 21.8662 12.8164 21.7985 12.6539C21.7308 12.4914 21.6316 12.344 21.5066 12.22C21.2568 11.9717 20.9189 11.8323 20.5666 11.8323C20.2144 11.8323 19.8764 11.9717 19.6266 12.22ZM16 3.16669C13.3629 3.16669 10.785 3.94867 8.59236 5.41376C6.39971 6.87884 4.69074 8.96123 3.68157 11.3976C2.6724 13.8339 2.40836 16.5148 2.92283 19.1012C3.4373 21.6876 4.70717 24.0634 6.57188 25.9281C8.43658 27.7928 10.8123 29.0627 13.3988 29.5772C15.9852 30.0916 18.6661 29.8276 21.1024 28.8184C23.5388 27.8092 25.6211 26.1003 27.0862 23.9076C28.5513 21.715 29.3333 19.1371 29.3333 16.5C29.3333 14.7491 28.9884 13.0152 28.3184 11.3976C27.6483 9.7799 26.6662 8.31004 25.4281 7.07193C24.1899 5.83382 22.7201 4.85169 21.1024 4.18163C19.4847 3.51156 17.7509 3.16669 16 3.16669ZM16 27.1667C13.8903 27.1667 11.828 26.5411 10.0739 25.369C8.31976 24.197 6.95259 22.5311 6.14525 20.582C5.33792 18.6329 5.12668 16.4882 5.53826 14.4191C5.94983 12.3499 6.96573 10.4493 8.45749 8.95755C9.94925 7.46579 11.8499 6.44989 13.919 6.03831C15.9881 5.62674 18.1328 5.83797 20.0819 6.64531C22.031 7.45264 23.6969 8.81981 24.869 10.5739C26.041 12.3281 26.6666 14.3904 26.6666 16.5C26.6666 19.329 25.5428 22.0421 23.5424 24.0425C21.5421 26.0429 18.8289 27.1667 16 27.1667Z" fill="#00B900"/>
</svg>
