<svg width="20" height="20" viewBox="0 0 20 20" fill="none" xmlns="http://www.w3.org/2000/svg">
<path d="M14.246 6.64279L13.3571 5.75391L9.99994 9.11105L6.64279 5.75391L5.75391 6.64279L9.11105 9.99994L5.75391 13.3571L6.64279 14.246L9.99994 10.8888L13.3571 14.246L14.246 13.3571L10.8888 9.99994L14.246 6.64279Z" fill="#9C9C9C"/>
<path fill-rule="evenodd" clip-rule="evenodd" d="M9.99996 17.1428C8.58724 17.1428 7.20624 16.7239 6.0316 15.939C4.85697 15.1542 3.94145 14.0386 3.40082 12.7334C2.8602 11.4282 2.71874 9.99203 2.99435 8.60646C3.26996 7.22088 3.95025 5.94814 4.9492 4.9492C5.94815 3.95025 7.22088 3.26996 8.60646 2.99435C9.99204 2.71874 11.4282 2.86019 12.7334 3.40082C14.0386 3.94145 15.1542 4.85696 15.939 6.0316C16.7239 7.20624 17.1428 8.58723 17.1428 9.99996C17.1428 11.8944 16.3903 13.7112 15.0507 15.0507C13.7112 16.3903 11.8944 17.1428 9.99996 17.1428V17.1428ZM9.99996 1.66663C8.35178 1.66663 6.74062 2.15537 5.37021 3.07105C3.9998 3.98672 2.9317 5.28821 2.30097 6.81093C1.67024 8.33365 1.50521 10.0092 1.82675 11.6257C2.1483 13.2422 2.94197 14.7271 4.10741 15.8925C5.27284 17.058 6.7577 17.8516 8.37421 18.1732C9.99072 18.4947 11.6663 18.3297 13.189 17.699C14.7117 17.0682 16.0132 16.0001 16.9289 14.6297C17.8446 13.2593 18.3333 11.6481 18.3333 9.99996C18.3333 7.78982 17.4553 5.67021 15.8925 4.1074C14.3297 2.5446 12.2101 1.66663 9.99996 1.66663" fill="#9C9C9C"/>
</svg>
