<svg width="20" height="20" viewBox="0 0 20 20" fill="none" xmlns="http://www.w3.org/2000/svg">
<path d="M14.2462 6.64279L13.3573 5.75391L10.0002 9.11105L6.64304 5.75391L5.75415 6.64279L9.11129 9.99994L5.75415 13.3571L6.64304 14.246L10.0002 10.8888L13.3573 14.246L14.2462 13.3571L10.8891 9.99994L14.2462 6.64279Z" fill="#9C9C9C"/>
<path fill-rule="evenodd" clip-rule="evenodd" d="M10.0001 17.1428C8.58736 17.1428 7.20636 16.7239 6.03173 15.939C4.85709 15.1542 3.94157 14.0386 3.40095 12.7334C2.86032 11.4282 2.71887 9.99203 2.99448 8.60646C3.27008 7.22088 3.95038 5.94814 4.94932 4.9492C5.94827 3.95025 7.221 3.26996 8.60658 2.99435C9.99216 2.71874 11.4283 2.86019 12.7335 3.40082C14.0387 3.94145 15.1543 4.85696 15.9392 6.0316C16.724 7.20624 17.1429 8.58723 17.1429 9.99996C17.1429 11.8944 16.3904 13.7112 15.0508 15.0507C13.7113 16.3903 11.8945 17.1428 10.0001 17.1428V17.1428ZM10.0001 1.66663C8.35191 1.66663 6.74074 2.15537 5.37033 3.07105C3.99992 3.98672 2.93182 5.28821 2.30109 6.81093C1.67036 8.33365 1.50533 10.0092 1.82687 11.6257C2.14842 13.2422 2.94209 14.7271 4.10753 15.8925C5.27297 17.058 6.75782 17.8516 8.37433 18.1732C9.99084 18.4947 11.6664 18.3297 13.1891 17.699C14.7118 17.0682 16.0133 16.0001 16.929 14.6297C17.8447 13.2593 18.3334 11.6481 18.3334 9.99996C18.3334 7.78982 17.4554 5.67021 15.8926 4.1074C14.3298 2.5446 12.2102 1.66663 10.0001 1.66663" fill="#9C9C9C"/>
</svg>
