<svg width="24" height="24" viewBox="0 0 24 24" fill="none" xmlns="http://www.w3.org/2000/svg">
<path fill-rule="evenodd" clip-rule="evenodd" d="M21 15.75V19.5H3V15.75H1.5V19.5C1.5 20.325 2.175 21 3 21H21C21.825 21 22.5 20.325 22.5 19.5V15.75H21Z" fill="#9C9C9C"/>
<path fill-rule="evenodd" clip-rule="evenodd" d="M10.5 12.75V11.25V6.75H13.5V11.25V12.75H14.5125L11.9933 15.4088L9.48078 12.75H10.5ZM11.9925 17.25C12.1942 17.25 12.396 17.1698 12.5445 17.0077L18 11.25H15V5.25H9V11.25H6L11.439 17.0063C11.5875 17.169 11.79 17.25 11.9925 17.25Z" fill="#9C9C9C"/>
<path fill-rule="evenodd" clip-rule="evenodd" d="M9 3.75H15V2.25H9V3.75Z" fill="#9C9C9C"/>
</svg>
