<svg width="20" height="21" viewBox="0 0 20 21" fill="none" xmlns="http://www.w3.org/2000/svg">
<path fill-rule="evenodd" clip-rule="evenodd" d="M17.1334 4.60641C17.6222 5.09516 17.6222 5.88766 17.1334 6.37641L16.2322 7.27766L15.3478 6.39391L16.249 5.49266L13.7572 3.00078L12.8559 3.90203L11.9722 3.01828L12.8734 2.11703C13.3622 1.62766 14.1547 1.62766 14.6434 2.11703L17.1334 4.60641Z" fill="#9C9C9C"/>
<path fill-rule="evenodd" clip-rule="evenodd" d="M4.76313 12.3286L6.92188 14.4867L4.14626 15.1036L4.76313 12.3286ZM7.97251 13.7698L5.48001 11.2773L11.0875 5.66984L13.58 8.16172L7.97251 13.7698ZM15.3481 8.16172L14.4637 7.27797L11.0913 3.90422L11.0881 3.90234L3.71688 11.273L2.5 16.7498L7.97687 15.533L15.3481 8.16172Z" fill="#9C9C9C"/>
<path fill-rule="evenodd" clip-rule="evenodd" d="M2.5 19.25H17.5V18H2.5V19.25Z" fill="#9C9C9C"/>
</svg>
