<svg width="202" height="236" viewBox="0 0 202 236" fill="none" xmlns="http://www.w3.org/2000/svg">
<path d="M83.5 0C102.905 2.31405e-07 122.011 4.78574 139.125 13.9333C156.239 23.0808 170.832 36.3079 181.613 52.4427C192.394 68.5776 199.03 87.1222 200.932 106.434C202.834 125.746 199.944 145.229 192.518 163.157C185.092 181.085 173.359 196.905 158.358 209.215C143.358 221.526 125.553 229.947 106.521 233.733C87.4883 237.518 67.8161 236.552 49.2464 230.919C30.6768 225.286 13.783 215.16 0.0614243 201.439L33.4369 168.063C41.6698 176.296 51.8061 182.372 62.9479 185.751C74.0896 189.131 85.893 189.711 97.3124 187.44C108.732 185.168 119.415 180.115 128.415 172.729C137.415 165.343 144.455 155.851 148.911 145.094C153.366 134.337 155.1 122.647 153.959 111.06C152.818 99.4733 148.837 88.3465 142.368 78.6656C135.899 68.9847 127.143 61.0485 116.875 55.56C106.607 50.0714 95.1431 47.2 83.5 47.2V0Z" fill="#50C7AA"/>
</svg>
