<svg width="231" height="236" viewBox="0 0 231 236" fill="none" xmlns="http://www.w3.org/2000/svg">
<path d="M112.5 0C134.262 2.59507e-07 155.6 6.01793 174.155 17.3885C192.71 28.759 207.759 45.0392 217.639 64.4291C227.518 83.8191 231.844 105.563 230.136 127.258C228.429 148.953 220.755 169.753 207.964 187.359C195.173 204.964 177.762 218.69 157.657 227.018C137.551 235.346 115.535 237.952 94.0407 234.547C72.5468 231.143 52.413 221.861 35.8651 207.728C19.3173 193.595 7.00011 175.161 0.275335 154.464L45.1652 139.878C49.2001 152.296 56.5904 163.357 66.5191 171.837C76.4478 180.317 88.5281 185.886 101.424 187.928C114.321 189.971 127.531 188.407 139.594 183.411C151.657 178.414 162.104 170.179 169.778 159.615C177.453 149.052 182.057 136.572 183.082 123.555C184.106 110.538 181.511 97.4914 175.583 85.8575C169.655 74.2235 160.626 64.4554 149.493 57.6331C138.36 50.8108 125.557 47.2 112.5 47.2V0Z" fill="#50C7AA"/>
</svg>
