<svg width="32" height="32" viewBox="0 0 32 32" fill="none" xmlns="http://www.w3.org/2000/svg">
<path d="M18 2.79996C17.8667 2.66663 17.7334 2.66663 17.6 2.66663L3.06669 5.99996C2.80002 6.13329 2.66669 6.26663 2.66669 6.53329V25.4666C2.66669 25.7333 2.93335 26 3.20002 26L17.6 28.2666C17.8667 28.2666 18.1334 28.1333 18.2667 27.8666C18.2667 27.8666 18.2667 27.8666 18.2667 27.7333V3.19996C18.2667 3.06663 18.1334 2.93329 18 2.79996Z" fill="#009500"/>
<path d="M28.8 26H17.7333C17.4667 26 17.2 25.7333 17.2 25.4667C17.2 25.2 17.4667 24.9333 17.7333 24.9333H28.2667V6.00002H17.7333C17.4667 6.00002 17.2 5.73335 17.2 5.46668C17.2 5.20002 17.4667 4.93335 17.7333 4.93335H28.8C29.0667 4.93335 29.3333 5.20002 29.3333 5.46668V25.4667C29.3333 25.7333 29.0667 26 28.8 26Z" fill="#009500"/>
<path d="M13.2 20.3999C13.0667 20.3999 12.8 20.2666 12.6667 20.1333L7.20001 11.3333C7.06667 11.0666 7.06667 10.6666 7.33334 10.5333C7.60001 10.3999 8.00001 10.3999 8.13334 10.6666L13.7333 19.5999C13.8667 19.8666 13.8667 20.2666 13.6 20.3999C13.4667 20.3999 13.3333 20.3999 13.2 20.3999Z" fill="#FAFAFA"/>
<path d="M7.73335 20.4C7.46668 20.4 7.20001 20.1333 7.20001 19.8666C7.20001 19.7333 7.20001 19.6 7.33335 19.6L12.8 10.6666C12.9333 10.4 13.3333 10.2666 13.6 10.4C13.7333 10.6666 13.8667 11.0666 13.7333 11.3333L8.13335 20.2666C8.00001 20.4 7.86668 20.4 7.73335 20.4Z" fill="#FAFAFA"/>
<path d="M22.1334 26C21.8667 26 21.6 25.7333 21.6 25.4667V5.46668C21.6 5.20002 21.8667 4.93335 22.1334 4.93335C22.4 4.93335 22.6667 5.20002 22.6667 5.46668V25.4667C22.6667 25.7333 22.4 26 22.1334 26Z" fill="#009500"/>
<path d="M28.8 22.6666H17.7333C17.4667 22.6666 17.2 22.4 17.2 22.1333C17.2 21.8666 17.4667 21.6 17.7333 21.6H28.8C29.0667 21.6 29.3333 21.8666 29.3333 22.1333C29.3333 22.4 29.0667 22.6666 28.8 22.6666Z" fill="#009500"/>
<path d="M28.8 19.3334H17.7333C17.4667 19.3334 17.2 19.0667 17.2 18.8001C17.2 18.5334 17.4667 18.2667 17.7333 18.2667H28.8C29.0667 18.2667 29.3333 18.5334 29.3333 18.8001C29.3333 19.0667 29.0667 19.3334 28.8 19.3334Z" fill="#009500"/>
<path d="M28.8 16H17.7333C17.4667 16 17.2 15.7334 17.2 15.4667C17.2 15.2 17.4667 14.9333 17.7333 14.9333H28.8C29.0667 14.9333 29.3333 15.2 29.3333 15.4667C29.3333 15.7334 29.0667 16 28.8 16Z" fill="#009500"/>
<path d="M28.8 12.6666H17.7333C17.4667 12.6666 17.2 12.4 17.2 12.1333C17.2 11.8666 17.4667 11.6 17.7333 11.6H28.8C29.0667 11.6 29.3333 11.8666 29.3333 12.1333C29.3333 12.4 29.0667 12.6666 28.8 12.6666Z" fill="#009500"/>
<path d="M28.8 9.33339H17.7333C17.4667 9.33339 17.2 9.06672 17.2 8.80006C17.2 8.53339 17.4667 8.26672 17.7333 8.26672H28.8C29.0667 8.26672 29.3333 8.53339 29.3333 8.80006C29.3333 9.06672 29.0667 9.33339 28.8 9.33339Z" fill="#009500"/>
</svg>
