<svg width="32" height="32" viewBox="0 0 32 32" fill="none" xmlns="http://www.w3.org/2000/svg">
<path d="M18.0001 2.79996C17.8667 2.66663 17.7334 2.66663 17.6001 2.66663L3.06675 5.99996C2.80008 6.13329 2.66675 6.26663 2.66675 6.53329V25.4666C2.66675 25.7333 2.93341 26 3.20008 26L17.6001 28.2666C17.8667 28.2666 18.1334 28.1333 18.2667 27.8666C18.2667 27.8666 18.2667 27.8666 18.2667 27.7333V3.19996C18.2667 3.06663 18.1334 2.93329 18.0001 2.79996Z" fill="#009500"/>
<path d="M28.8002 26H17.7335C17.4669 26 17.2002 25.7333 17.2002 25.4667C17.2002 25.2 17.4669 24.9333 17.7335 24.9333H28.2669V6.00002H17.7335C17.4669 6.00002 17.2002 5.73335 17.2002 5.46668C17.2002 5.20002 17.4669 4.93335 17.7335 4.93335H28.8002C29.0669 4.93335 29.3335 5.20002 29.3335 5.46668V25.4667C29.3335 25.7333 29.0669 26 28.8002 26Z" fill="#009500"/>
<path d="M13.2001 20.3999C13.0668 20.3999 12.8001 20.2666 12.6668 20.1333L7.20013 11.3333C7.0668 11.0666 7.0668 10.6666 7.33346 10.5333C7.60013 10.3999 8.00013 10.3999 8.13346 10.6666L13.7335 19.5999C13.8668 19.8666 13.8668 20.2666 13.6001 20.3999C13.4668 20.3999 13.3335 20.3999 13.2001 20.3999Z" fill="#FAFAFA"/>
<path d="M7.73353 20.4C7.46686 20.4 7.2002 20.1333 7.2002 19.8666C7.2002 19.7333 7.2002 19.6 7.33353 19.6L12.8002 10.6666C12.9335 10.4 13.3335 10.2666 13.6002 10.4C13.7335 10.6666 13.8669 11.0666 13.7335 11.3333L8.13353 20.2666C8.0002 20.4 7.86686 20.4 7.73353 20.4Z" fill="#FAFAFA"/>
<path d="M22.1334 26C21.8668 26 21.6001 25.7333 21.6001 25.4667V5.46668C21.6001 5.20002 21.8668 4.93335 22.1334 4.93335C22.4001 4.93335 22.6668 5.20002 22.6668 5.46668V25.4667C22.6668 25.7333 22.4001 26 22.1334 26Z" fill="#009500"/>
<path d="M28.8002 22.6666H17.7335C17.4669 22.6666 17.2002 22.4 17.2002 22.1333C17.2002 21.8666 17.4669 21.6 17.7335 21.6H28.8002C29.0669 21.6 29.3335 21.8666 29.3335 22.1333C29.3335 22.4 29.0669 22.6666 28.8002 22.6666Z" fill="#009500"/>
<path d="M28.8002 19.3334H17.7335C17.4669 19.3334 17.2002 19.0667 17.2002 18.8001C17.2002 18.5334 17.4669 18.2667 17.7335 18.2667H28.8002C29.0669 18.2667 29.3335 18.5334 29.3335 18.8001C29.3335 19.0667 29.0669 19.3334 28.8002 19.3334Z" fill="#009500"/>
<path d="M28.8002 16H17.7335C17.4669 16 17.2002 15.7334 17.2002 15.4667C17.2002 15.2 17.4669 14.9333 17.7335 14.9333H28.8002C29.0669 14.9333 29.3335 15.2 29.3335 15.4667C29.3335 15.7334 29.0669 16 28.8002 16Z" fill="#009500"/>
<path d="M28.8002 12.6666H17.7335C17.4669 12.6666 17.2002 12.4 17.2002 12.1333C17.2002 11.8666 17.4669 11.6 17.7335 11.6H28.8002C29.0669 11.6 29.3335 11.8666 29.3335 12.1333C29.3335 12.4 29.0669 12.6666 28.8002 12.6666Z" fill="#009500"/>
<path d="M28.8002 9.33339H17.7335C17.4669 9.33339 17.2002 9.06672 17.2002 8.80006C17.2002 8.53339 17.4669 8.26672 17.7335 8.26672H28.8002C29.0669 8.26672 29.3335 8.53339 29.3335 8.80006C29.3335 9.06672 29.0669 9.33339 28.8002 9.33339Z" fill="#009500"/>
</svg>
