<svg width="16" height="16" viewBox="0 0 16 16" fill="none" xmlns="http://www.w3.org/2000/svg">
<path d="M10.5714 5.50488L7.00312 9.07948L5.47296 7.54933L5.41582 7.49218L4.71106 8.20329L7.00312 10.4954L11.2317 6.26679L11.2888 6.20964L10.5714 5.50488Z" fill="#047205"/>
<path fill-rule="evenodd" clip-rule="evenodd" d="M8.00004 13.7143C6.86986 13.7143 5.76507 13.3792 4.82536 12.7513C3.88565 12.1234 3.15323 11.231 2.72073 10.1868C2.28823 9.14265 2.17507 7.9937 2.39556 6.88524C2.61604 5.77677 3.16028 4.75859 3.95943 3.95943C4.75859 3.16027 5.77678 2.61604 6.88524 2.39555C7.9937 2.17507 9.14265 2.28823 10.1868 2.72073C11.231 3.15323 12.1234 3.88564 12.7513 4.82535C13.3792 5.76506 13.7143 6.86986 13.7143 8.00004C13.7143 9.51556 13.1123 10.969 12.0407 12.0406C10.969 13.1123 9.51556 13.7143 8.00004 13.7143ZM8.00004 1.33337C6.6815 1.33337 5.39257 1.72437 4.29624 2.45691C3.19991 3.18945 2.34543 4.23064 1.84085 5.44882C1.33626 6.66699 1.20424 8.00743 1.46148 9.30064C1.71871 10.5938 2.35365 11.7817 3.286 12.7141C4.21835 13.6464 5.40623 14.2814 6.69944 14.5386C7.99265 14.7958 9.33309 14.6638 10.5513 14.1592C11.7694 13.6547 12.8106 12.8002 13.5432 11.7038C14.2757 10.6075 14.6667 9.31858 14.6667 8.00004C14.6667 6.23193 13.9643 4.53624 12.7141 3.286C11.4638 2.03575 9.76815 1.33337 8.00004 1.33337Z" fill="#047205"/>
</svg>
