<svg width="16" height="16" viewBox="0 0 16 16" fill="none" xmlns="http://www.w3.org/2000/svg">
<path d="M10.5713 5.50488L7.003 9.07948L5.47284 7.54933L5.4157 7.49218L4.71094 8.20329L7.003 10.4954L11.2316 6.26679L11.2887 6.20964L10.5713 5.50488Z" fill="#047205"/>
<path fill-rule="evenodd" clip-rule="evenodd" d="M7.99992 13.7143C6.86974 13.7143 5.76494 13.3792 4.82523 12.7513C3.88552 12.1234 3.15311 11.231 2.72061 10.1868C2.28811 9.14265 2.17495 7.9937 2.39543 6.88524C2.61592 5.77677 3.16015 4.75859 3.95931 3.95943C4.75847 3.16027 5.77666 2.61604 6.88512 2.39555C7.99358 2.17507 9.14253 2.28823 10.1867 2.72073C11.2308 3.15323 12.1233 3.88564 12.7512 4.82535C13.3791 5.76506 13.7142 6.86986 13.7142 8.00004C13.7142 9.51556 13.1122 10.969 12.0405 12.0406C10.9689 13.1123 9.51544 13.7143 7.99992 13.7143ZM7.99992 1.33337C6.68138 1.33337 5.39245 1.72437 4.29612 2.45691C3.19979 3.18945 2.34531 4.23064 1.84072 5.44882C1.33614 6.66699 1.20412 8.00743 1.46135 9.30064C1.71859 10.5938 2.35353 11.7817 3.28588 12.7141C4.21823 13.6464 5.40611 14.2814 6.69932 14.5386C7.99252 14.7958 9.33297 14.6638 10.5511 14.1592C11.7693 13.6547 12.8105 12.8002 13.543 11.7038C14.2756 10.6075 14.6666 9.31858 14.6666 8.00004C14.6666 6.23193 13.9642 4.53624 12.714 3.286C11.4637 2.03575 9.76803 1.33337 7.99992 1.33337Z" fill="#047205"/>
</svg>
