<svg width="36" height="36" viewBox="0 0 36 36" fill="none" xmlns="http://www.w3.org/2000/svg">
<g clip-path="url(#clip0_702_9176)">
<rect x="0.5" y="0.5" width="35" height="35" rx="3.5" fill="#F2F4F8" stroke="#F2F4F8"/>
<g clip-path="url(#clip1_702_9176)">
<path d="M17.9999 14.6667C18.9166 14.6667 19.6666 13.9167 19.6666 13C19.6666 12.0833 18.9166 11.3333 17.9999 11.3333C17.0833 11.3333 16.3333 12.0833 16.3333 13C16.3333 13.9167 17.0833 14.6667 17.9999 14.6667ZM17.9999 16.3333C17.0833 16.3333 16.3333 17.0833 16.3333 18C16.3333 18.9167 17.0833 19.6667 17.9999 19.6667C18.9166 19.6667 19.6666 18.9167 19.6666 18C19.6666 17.0833 18.9166 16.3333 17.9999 16.3333ZM17.9999 21.3333C17.0833 21.3333 16.3333 22.0833 16.3333 23C16.3333 23.9167 17.0833 24.6667 17.9999 24.6667C18.9166 24.6667 19.6666 23.9167 19.6666 23C19.6666 22.0833 18.9166 21.3333 17.9999 21.3333Z" fill="#131CA2"/>
</g>
</g>
<defs>
<clipPath id="clip0_702_9176">
<rect width="36" height="36" fill="white"/>
</clipPath>
<clipPath id="clip1_702_9176">
<rect width="20" height="20" fill="white" transform="translate(8 8)"/>
</clipPath>
</defs>
</svg>
