<svg width="31" height="30" viewBox="0 0 31 30" fill="none" xmlns="http://www.w3.org/2000/svg">
<circle opacity="0.05" cx="15.9163" cy="15" r="14.5" fill="#001D6D" stroke="#EBEBEB"/>
<path d="M22.2288 16.9375L21.1663 17.25L19.7288 11.875L18.8538 12.125L17.9163 8.5625L13.4163 9.75L14.3538 13.3125L13.4788 13.5625L14.9163 18.9375L13.7913 19.25C13.5413 19 13.2913 18.875 12.9788 18.75L10.0413 7.9375L7.29126 7.625L7.16626 8.5625L9.35376 8.8125L10.1663 11.875L8.72876 13.6875L9.41626 16.375L11.5413 17.25L11.9788 18.75C10.9788 19 10.4163 20 10.6663 21C11.4163 23.3125 14.7913 22.4375 14.2288 20.0625L22.1038 17.9375L24.2288 19.125L24.6663 18.3125L22.2288 16.9375ZM10.2288 15.625L9.72876 13.8125L10.4163 12.875L11.2288 16L10.2288 15.625ZM12.7288 21.4375C12.2288 21.5625 11.7288 21.25 11.6038 20.8125C11.3538 19.625 13.0413 19.1875 13.4163 20.3125C13.4788 20.8125 13.2288 21.3125 12.7288 21.4375ZM16.4163 13.75L17.2913 13.5L17.5413 14.375L16.6663 14.625L16.4163 13.75ZM14.5413 10.4375L15.4163 10.1875L15.6663 11.0625L16.5413 10.8125L16.2913 9.9375L17.1663 9.6875L17.8538 12.375L15.2913 13.125L14.5413 10.4375ZM15.7913 18.6875L14.6038 14.25L15.4788 14L15.9788 15.8125L18.6663 15.125L18.1663 13.3125L19.0413 13.0625L20.2913 17.5L15.7913 18.6875Z" fill="#C53E6C"/>
</svg>
