<svg width="49" height="48" viewBox="0 0 49 48" fill="none" xmlns="http://www.w3.org/2000/svg">
<circle cx="24.2" cy="24" r="24" fill="#F7F7F7"/>
<path d="M19.2008 15H15.7008C15.4356 15 15.1812 15.1054 14.9937 15.2929C14.8062 15.4804 14.7008 15.7348 14.7008 16V19.5C14.7008 19.7652 14.8062 20.0196 14.9937 20.2071C15.1812 20.3946 15.4356 20.5 15.7008 20.5H19.2008C19.466 20.5 19.7204 20.3946 19.9079 20.2071C20.0954 20.0196 20.2008 19.7652 20.2008 19.5V16C20.2008 15.7348 20.0954 15.4804 19.9079 15.2929C19.7204 15.1054 19.466 15 19.2008 15ZM19.2008 19.5H15.7008V16H19.2008V19.5Z" fill="#C53E6C"/>
<path d="M32.7 15H22.2C21.9347 15 21.6804 15.1054 21.4928 15.2929C21.3053 15.4804 21.2 15.7348 21.2 16V19.5C21.2 19.7652 21.3053 20.0196 21.4928 20.2071C21.6804 20.3946 21.9347 20.5 22.2 20.5H32.7C32.9652 20.5 33.2195 20.3946 33.4071 20.2071C33.5946 20.0196 33.7 19.7652 33.7 19.5V16C33.7 15.7348 33.5946 15.4804 33.4071 15.2929C33.2195 15.1054 32.9652 15 32.7 15ZM32.7 19.5H22.2V16H32.7V19.5Z" fill="#C53E6C"/>
<path d="M19.2008 21.5001H15.7008C15.4356 21.5001 15.1812 21.6055 14.9937 21.793C14.8062 21.9806 14.7008 22.2349 14.7008 22.5001V26.0001C14.7008 26.2653 14.8062 26.5197 14.9937 26.7072C15.1812 26.8948 15.4356 27.0001 15.7008 27.0001H19.2008C19.466 27.0001 19.7204 26.8948 19.9079 26.7072C20.0954 26.5197 20.2008 26.2653 20.2008 26.0001V22.5001C20.2008 22.2349 20.0954 21.9806 19.9079 21.793C19.7204 21.6055 19.466 21.5001 19.2008 21.5001ZM19.2008 26.0001H15.7008V22.5001H19.2008V26.0001Z" fill="#C53E6C"/>
<path d="M32.7 21.5001H22.2C21.9347 21.5001 21.6804 21.6055 21.4928 21.793C21.3053 21.9806 21.2 22.2349 21.2 22.5001V26.0001C21.2 26.2653 21.3053 26.5197 21.4928 26.7072C21.6804 26.8948 21.9347 27.0001 22.2 27.0001H32.7C32.9652 27.0001 33.2195 26.8948 33.4071 26.7072C33.5946 26.5197 33.7 26.2653 33.7 26.0001V22.5001C33.7 22.2349 33.5946 21.9806 33.4071 21.793C33.2195 21.6055 32.9652 21.5001 32.7 21.5001ZM32.7 26.0001H22.2V22.5001H32.7V26.0001Z" fill="#C53E6C"/>
<path d="M19.2008 27.9999H15.7008C15.4356 27.9999 15.1812 28.1052 14.9937 28.2928C14.8062 28.4803 14.7008 28.7347 14.7008 28.9999V32.4999C14.7008 32.7651 14.8062 33.0194 14.9937 33.207C15.1812 33.3945 15.4356 33.4999 15.7008 33.4999H19.2008C19.466 33.4999 19.7204 33.3945 19.9079 33.207C20.0954 33.0194 20.2008 32.7651 20.2008 32.4999V28.9999C20.2008 28.7347 20.0954 28.4803 19.9079 28.2928C19.7204 28.1052 19.466 27.9999 19.2008 27.9999ZM19.2008 32.4999H15.7008V28.9999H19.2008V32.4999Z" fill="#C53E6C"/>
<path d="M32.7 27.9999H22.2C21.9347 27.9999 21.6804 28.1052 21.4928 28.2928C21.3053 28.4803 21.2 28.7347 21.2 28.9999V32.4999C21.2 32.7651 21.3053 33.0194 21.4928 33.207C21.6804 33.3945 21.9347 33.4999 22.2 33.4999H32.7C32.9652 33.4999 33.2195 33.3945 33.4071 33.207C33.5946 33.0194 33.7 32.7651 33.7 32.4999V28.9999C33.7 28.7347 33.5946 28.4803 33.4071 28.2928C33.2195 28.1052 32.9652 27.9999 32.7 27.9999ZM32.7 32.4999H22.2V28.9999H32.7V32.4999Z" fill="#C53E6C"/>
</svg>
