<svg width="48" height="48" viewBox="0 0 48 48" fill="none" xmlns="http://www.w3.org/2000/svg">
<circle cx="24" cy="24" r="24" fill="#F7F7F7"/>
<path fill-rule="evenodd" clip-rule="evenodd" d="M24.6668 15.3586L24.6667 14H23.3333L23.3332 15.3586C19.0782 15.6823 15.6823 19.0782 15.3586 23.3332L14 23.3333V24.6667L15.3586 24.667C15.6823 28.923 19.0782 32.3178 23.3332 32.6414L23.3333 34H24.6667L24.6668 32.6414C28.9218 32.3178 32.3177 28.923 32.6414 24.667L34 24.6667V23.3333L32.6414 23.3332C32.3177 19.0782 28.9218 15.6823 24.6668 15.3586ZM24.6667 20.6667L24.6663 16.6967L24.9101 16.7229C28.3078 17.1454 30.9927 19.902 31.3033 23.3335L27.3333 23.3333V24.6667L31.3033 24.6667C30.9853 28.1809 28.1786 30.9856 24.6663 31.3033L24.6667 27.3333H23.3333L23.3335 31.3033C19.8203 30.9856 17.0146 28.1809 16.6967 24.6667L20.6667 24.6667V23.3333L16.6967 23.3335C17.0146 19.8203 19.8203 17.0146 23.3335 16.6967L23.3333 20.6667H24.6667Z" fill="#C53E6C"/>
</svg>
