<svg width="49" height="48" viewBox="0 0 49 48" fill="none" xmlns="http://www.w3.org/2000/svg">
<circle cx="24.2" cy="24" r="24" fill="#F7F7F7"/>
<path d="M31.501 34.5599C31.0453 34.5599 30.676 34.1906 30.676 33.7349C30.676 30.5051 28.0483 27.8774 24.8185 27.8774H23.581C20.3512 27.8774 17.7235 30.5051 17.7235 33.7349C17.7235 34.1906 17.3541 34.5599 16.8985 34.5599C16.4428 34.5599 16.0735 34.1906 16.0735 33.7349C16.0735 29.5953 19.4413 26.2274 23.581 26.2274H24.8185C28.9581 26.2274 32.326 29.5953 32.326 33.7349C32.326 34.1906 31.9566 34.5599 31.501 34.5599Z" fill="#C53E6C"/>
<path d="M24.1173 24.5775C21.0467 24.5775 18.5486 22.0794 18.5486 19.0088C18.5486 15.9381 21.0467 13.44 24.1173 13.44C27.1879 13.44 29.6861 15.9381 29.6861 19.0088C29.6861 22.0794 27.1879 24.5775 24.1173 24.5775ZM24.1173 15.09C21.9565 15.09 20.1986 16.848 20.1986 19.0088C20.1986 21.1696 21.9565 22.9275 24.1173 22.9275C26.2781 22.9275 28.0361 21.1696 28.0361 19.0088C28.0361 16.848 26.2781 15.09 24.1173 15.09Z" fill="#C53E6C"/>
</svg>
