<svg width="31" height="31" viewBox="0 0 31 31" fill="none" xmlns="http://www.w3.org/2000/svg">
<circle opacity="0.05" cx="15.5" cy="15.5" r="14.5" fill="#001D6D" stroke="#EBEBEB"/>
<path d="M22.0702 10.5387C22.0332 10.5017 21.9593 10.4647 21.9223 10.4647C21.8854 10.4647 21.7744 10.5017 21.7744 10.5387L20.8871 11.6478L20.8652 11.6725C20.8141 11.7387 20.8214 11.8081 20.8871 11.9066L21.072 12.2394L21.1645 12.3827C21.7651 13.3433 22.0368 14.3996 22.1072 15.456C22.2551 17.5634 21.5156 19.3751 20.0367 20.891C19.7409 21.1867 19.5931 21.5565 19.5931 21.8892C19.5931 22.222 19.7409 22.5178 19.9998 22.7396C20.2216 22.9614 20.5174 23.0723 20.8131 23.0723H20.8501L20.9288 23.0695C21.267 23.0454 21.5711 22.8664 21.8114 22.5917C23.9558 20.1515 24.6953 17.3786 23.9928 14.3099L23.9523 14.1274C23.6417 12.7959 23.0251 11.5996 22.0702 10.5387Z" fill="#C53E6C"/>
<path d="M19.7779 8.6161C16.6353 6.61958 11.533 6.84142 8.53828 10.6866C5.76534 14.2359 6.50479 18.9684 8.79708 21.2977C8.83406 21.3346 8.908 21.3716 8.94497 21.3716C8.98195 21.3716 9.01892 21.3716 9.05589 21.3346C9.16681 21.2977 9.20378 21.1867 9.16681 21.1128L9.14815 21.0603C9.11648 20.9772 9.08054 20.9156 9.01892 20.854C8.16855 19.7078 7.68791 18.4138 7.57699 17.0458C7.35515 14.3099 8.27947 12.1285 10.313 10.5387L10.4342 10.443C12.6647 8.71429 15.3168 8.37775 18.0402 9.50344L18.1752 9.55704C18.5946 9.72854 18.9276 9.91013 18.9276 9.91013L18.9632 9.92099C19.0549 9.94574 19.1206 9.93478 19.1864 9.83619L19.4546 9.51268C19.5237 9.43124 19.6033 9.33887 19.6897 9.24092L19.8519 9.05977C19.8519 9.0459 19.8571 9.02684 19.8636 9.00647L19.8831 8.94538L19.8984 8.86522C19.9167 8.74755 19.8765 8.68182 19.7779 8.6161Z" fill="#C53E6C"/>
<path d="M21.6265 9.31857L21.2198 8.91187C21.1563 8.99656 21.0928 9.04487 21.0224 9.09847C20.9698 9.13847 20.9133 9.18142 20.8501 9.24463L20.645 9.45811C18.9044 11.2699 17.1954 13.0487 15.4521 14.8275C15.2673 14.9754 15.0454 15.0863 14.8606 15.1602C14.343 15.3451 13.9732 15.8257 14.0472 16.3433C14.1581 16.861 14.6018 17.2677 15.1563 17.2677C15.7109 17.2677 16.1546 16.824 16.2286 16.2324C16.2286 16.0845 16.3025 15.9736 16.3764 15.8627C17.005 15.0678 17.6427 14.2729 18.2805 13.478C18.9183 12.6831 19.5561 11.8882 20.1846 11.0933C20.5297 10.6989 20.8419 10.3045 21.1541 9.91014C21.3102 9.71295 21.4663 9.51576 21.6265 9.31857Z" fill="#C53E6C"/>
</svg>
