<svg width="36" height="36" viewBox="0 0 36 36" fill="none" xmlns="http://www.w3.org/2000/svg">
<rect x="0.5" y="0.5" width="35" height="35" rx="3.5" fill="white" stroke="#F2F2F2"/>
<path fill-rule="evenodd" clip-rule="evenodd" d="M20.5 13H21.75V11.75H20.5V13ZM23 11.75C23 11.0625 22.4375 10.5 21.75 10.5H20.5C19.8125 10.5 19.25 11.0625 19.25 11.75H9.875V13H19.25C19.25 13.6875 19.8125 14.25 20.5 14.25H21.75C22.4375 14.25 23 13.6875 23 13H26.125V11.75H23Z" fill="#686868"/>
<path fill-rule="evenodd" clip-rule="evenodd" d="M20.5 24.25H21.75V23H20.5V24.25ZM21.75 21.75H20.5C19.8125 21.75 19.25 22.3125 19.25 23H9.875V24.25H19.25C19.25 24.9375 19.8125 25.5 20.5 25.5H21.75C22.4375 25.5 23 24.9375 23 24.25H26.125V23H23C23 22.3125 22.4375 21.75 21.75 21.75Z" fill="#686868"/>
<path fill-rule="evenodd" clip-rule="evenodd" d="M13.625 18.625H14.875V17.375H13.625V18.625ZM14.875 16.125H13.625C12.9375 16.125 12.375 16.6875 12.375 17.375H9.875V18.625H12.375C12.375 19.3125 12.9375 19.875 13.625 19.875H14.875C15.5625 19.875 16.125 19.3125 16.125 18.625H26.125V17.375H16.125C16.125 16.6875 15.5625 16.125 14.875 16.125Z" fill="#686868"/>
</svg>
