<svg width="31" height="30" viewBox="0 0 31 30" fill="none" xmlns="http://www.w3.org/2000/svg">
<circle opacity="0.05" cx="15.5" cy="15" r="14.5" fill="#001D6D" stroke="#EBEBEB"/>
<path d="M6.75 14.3414C6.81272 14.0905 6.93817 13.8396 7.12634 13.5887C7.37724 13.2751 7.75358 13.1496 8.12993 13.0869C8.38082 13.0242 8.569 13.0242 8.75717 12.9615C8.81989 12.9615 8.88262 12.8987 8.94534 12.836C9.07079 12.5224 9.19624 12.2088 9.32168 11.8952C9.32168 11.8324 9.32168 11.7697 9.32168 11.707C9.13351 11.5188 9.00806 11.2679 8.81989 11.0797C8.38082 10.4525 8.44355 9.76254 9.00806 9.19803C9.25896 8.94713 9.44713 8.75896 9.69803 8.50806C10.2625 8.00627 10.9525 7.94355 11.5797 8.38262C11.7679 8.50806 11.9561 8.63351 12.207 8.82168C12.2697 8.88441 12.3324 8.88441 12.3952 8.82168C12.7088 8.69624 13.0224 8.57079 13.2733 8.44534C13.3987 8.38262 13.3987 8.38262 13.4615 8.25717C13.5242 7.94355 13.5869 7.62993 13.6496 7.31631C13.7751 6.68907 14.3396 6.25 14.9668 6.25C15.3432 6.25 15.7195 6.25 16.0959 6.25C16.7858 6.25 17.2876 6.75179 17.4758 7.44176C17.5385 7.69265 17.5385 8.00627 17.6013 8.25717C17.6013 8.31989 17.664 8.38262 17.7267 8.44534C18.0403 8.57079 18.3539 8.69624 18.6048 8.82168C18.6676 8.82168 18.7303 8.82168 18.793 8.82168C19.0439 8.69624 19.2321 8.50806 19.483 8.38262C20.1102 7.94355 20.7375 8.00627 21.302 8.50806C21.6156 8.75896 21.8665 9.07258 22.1801 9.3862C22.5565 9.82527 22.6192 10.4525 22.3056 10.9543C22.1174 11.2679 21.9292 11.5188 21.741 11.7697C21.6783 11.8324 21.6783 11.8952 21.741 11.9579C21.8665 12.2715 21.9919 12.5224 22.1174 12.836C22.1801 12.9615 22.2428 12.9615 22.3056 13.0242C22.6192 13.0869 22.9328 13.1496 23.1837 13.2124C23.8109 13.3378 24.1873 13.8396 24.25 14.4668C24.25 14.9059 24.25 15.2823 24.25 15.7213C24.1873 16.3486 23.7482 16.8504 23.121 17.0385C22.8701 17.1013 22.6819 16.9758 22.6192 16.7249C22.5565 16.5367 22.6819 16.2858 22.8701 16.1604C23.3091 15.9722 23.3719 15.9095 23.3719 15.4077C23.3719 15.1568 23.3719 14.9059 23.3719 14.655C23.3719 14.2787 23.2464 14.0905 22.8701 14.0278C22.4937 13.9651 22.1801 13.9023 21.8038 13.8396C21.5529 13.7769 21.4274 13.6514 21.302 13.4005C21.1138 12.9615 20.9884 12.5224 20.7375 12.0833C20.612 11.8324 20.612 11.6443 20.8002 11.4561C20.9884 11.1425 21.2392 10.8916 21.4274 10.578C21.6156 10.2643 21.6156 10.0762 21.3647 9.76254C21.1765 9.57437 20.9256 9.32348 20.7375 9.1353C20.4866 8.88441 20.2357 8.82168 19.922 9.07258C19.6084 9.26075 19.3575 9.51165 19.0439 9.69982C18.8557 9.82527 18.6676 9.82527 18.4167 9.76254C18.0403 9.57437 17.6013 9.3862 17.1622 9.19803C16.9113 9.1353 16.7858 8.94713 16.7858 8.75896C16.7231 8.38262 16.6604 8.069 16.5977 7.69265C16.5349 7.31631 16.3468 7.12814 15.9704 7.12814C15.6568 7.12814 15.4059 7.12814 15.0923 7.12814C14.7787 7.12814 14.5905 7.25358 14.5278 7.5672C14.4651 7.94355 14.4023 8.31989 14.3396 8.63351C14.2769 8.88441 14.1514 9.00986 13.9005 9.1353C13.4615 9.3862 13.0224 9.51165 12.5833 9.76254C12.3324 9.88799 12.1443 9.88799 11.9561 9.69982C11.6425 9.51165 11.3916 9.26075 11.078 9.07258C10.7643 8.88441 10.5134 8.88441 10.2625 9.1353C10.0744 9.32348 9.82348 9.57437 9.6353 9.76254C9.38441 10.0134 9.38441 10.2643 9.57258 10.578C9.76075 10.8916 10.0116 11.2052 10.1998 11.4561C10.3253 11.6443 10.3253 11.8324 10.2625 12.0833C10.0116 12.5224 9.8862 12.9615 9.69803 13.4005C9.6353 13.6514 9.44713 13.7769 9.19624 13.7769C8.81989 13.8396 8.50627 13.9023 8.12993 13.9651C7.75358 14.0278 7.62814 14.216 7.56541 14.5923C7.56541 14.9059 7.56541 15.1568 7.56541 15.4704C7.56541 15.8468 7.69086 15.9722 8.0672 16.0349C8.44355 16.0977 8.75717 16.1604 9.13351 16.2231C9.38441 16.2858 9.50986 16.4113 9.6353 16.6622C9.8862 17.1013 10.0116 17.5403 10.2625 17.9794C10.388 18.2303 10.388 18.4185 10.1998 18.6066C10.0116 18.9203 9.76075 19.2339 9.57258 19.4848C9.38441 19.7984 9.38441 19.9866 9.6353 20.2375C9.82348 20.4256 10.0744 20.6765 10.2625 20.8647C10.5134 21.1156 10.7643 21.1156 11.0152 20.9274C11.3289 20.7392 11.6425 20.4884 11.9561 20.3002C12.1443 20.1747 12.3324 20.1747 12.5833 20.2375C13.0224 20.4256 13.4615 20.6138 13.9005 20.802C14.1514 20.8647 14.2769 21.0529 14.2769 21.3038C14.3396 21.6801 14.4023 21.9937 14.4651 22.3701C14.5278 22.7464 14.716 22.8719 15.0923 22.8719C15.3432 22.8719 15.6568 22.8719 15.9077 22.8719C16.3468 22.8719 16.4095 22.8091 16.5977 22.3701C16.7231 22.0565 17.0995 21.931 17.3504 22.1819C17.4758 22.3073 17.4758 22.4328 17.4758 22.621C17.3504 23.1855 16.974 23.5618 16.4095 23.6873C16.3468 23.6873 16.3468 23.6873 16.2841 23.75C15.7823 23.75 15.3432 23.75 14.8414 23.75C14.7787 23.75 14.7787 23.75 14.716 23.6873C14.1514 23.5618 13.7751 23.1855 13.6496 22.621C13.5869 22.3073 13.5242 22.0565 13.4615 21.7428C13.4615 21.6174 13.3987 21.6174 13.2733 21.5547C12.9597 21.4292 12.6461 21.3038 12.3952 21.1783C12.3324 21.1783 12.2697 21.1783 12.207 21.1783C11.9561 21.3038 11.7679 21.4919 11.517 21.6174C10.8898 22.0565 10.2625 21.9937 9.69803 21.4919C9.44713 21.241 9.13351 20.9901 8.88262 20.6765C8.38082 20.112 8.38082 19.4848 8.75717 18.8575C8.94534 18.7948 9.13351 18.5439 9.25896 18.3557C9.32168 18.293 9.32168 18.2303 9.25896 18.1676C9.13351 17.8539 9.00806 17.5403 8.88262 17.2267C8.88262 17.164 8.75717 17.1013 8.69444 17.1013C8.50627 17.0385 8.25538 17.0385 8.0672 16.9758C7.75358 16.9131 7.37724 16.7876 7.12634 16.474C6.93817 16.2858 6.81272 16.0349 6.75 15.7213C6.75 15.2823 6.75 14.7805 6.75 14.3414ZM12.1443 14.655C12.207 14.7177 12.207 14.7805 12.2697 14.8432C12.5833 15.1568 12.897 15.5332 13.2106 15.8468C13.8378 16.474 14.7787 16.5367 15.4059 15.9095C15.7195 15.5959 16.0332 15.345 16.2841 15.0314C16.9113 14.3414 16.9113 13.4633 16.2841 12.7733C15.9704 12.4597 15.6568 12.0833 15.2805 11.7697C15.2177 11.707 15.155 11.707 15.0923 11.707L15.155 11.6443H15.2177C16.5349 11.5815 17.8522 12.397 18.3539 13.5887C18.6048 14.1532 18.6676 14.7805 18.6676 15.4704C18.6048 16.2858 18.9185 16.9758 19.483 17.5403C20.3611 18.4812 21.302 19.422 22.1801 20.3629C22.2428 20.4256 22.2428 20.4256 22.3056 20.4884C22.5565 20.6765 22.9328 20.5511 22.9955 20.2375C23.0582 20.0493 22.9328 19.9238 22.8073 19.7357C21.8665 18.7948 20.9884 17.8539 20.0475 16.9131C19.6711 16.474 19.483 16.0349 19.483 15.4704C19.483 15.0314 19.483 14.5923 19.4203 14.1532C18.9812 12.0833 17.0367 10.6407 14.9668 10.8289C14.716 10.8289 14.5278 10.8916 14.3396 11.0797C14.026 11.4561 14.026 11.8952 14.4023 12.2715C14.7787 12.6479 15.155 13.0869 15.5941 13.4633C15.845 13.7769 15.9077 14.0905 15.5941 14.4041C15.2805 14.7177 14.9668 15.0314 14.5905 15.345C14.4023 15.5332 14.1514 15.5959 13.9633 15.4704C13.8378 15.4077 13.7124 15.345 13.6496 15.2195C13.2106 14.8432 12.8342 14.4041 12.3952 14.0278C12.3324 13.7142 12.0815 13.6514 11.7679 13.7769C11.4543 13.9023 11.2661 14.0905 11.2034 14.4041C11.0152 16.0977 11.6425 17.4776 13.0851 18.4812C13.8378 18.983 14.716 19.2339 15.5941 19.1711C16.2841 19.1084 16.8486 19.3593 17.2876 19.8611C18.1658 20.7392 19.0439 21.6801 19.922 22.5582C19.9848 22.621 19.9848 22.621 20.0475 22.6837C20.1729 22.8091 20.4238 22.8091 20.5493 22.6837C20.7375 22.5582 20.8002 22.4328 20.7375 22.2446C20.7375 22.1192 20.6747 21.9937 20.5493 21.931C19.6711 21.0529 18.793 20.112 17.9149 19.2339C17.7894 19.1084 17.6013 18.9203 17.4758 18.7948C16.9113 18.3557 16.2213 18.1676 15.4686 18.2303C13.9005 18.293 12.5833 17.2894 12.1443 15.8468C12.0188 15.4704 11.9561 15.0941 12.0188 14.655C12.0815 14.7177 12.1443 14.655 12.1443 14.655Z" fill="#C53E6C"/>
</svg>
