<svg width="31" height="30" viewBox="0 0 31 30" fill="none" xmlns="http://www.w3.org/2000/svg">
<circle opacity="0.05" cx="15.9165" cy="15" r="14.5" fill="#001D6D" stroke="#EBEBEB"/>
<path fill-rule="evenodd" clip-rule="evenodd" d="M13.2638 7.2482C14.1068 6.37954 15.3371 6.25459 15.963 6.25004C17.7816 6.24449 19.557 6.80064 21.0432 7.84149C22.5295 8.88233 23.653 10.3564 24.2583 12.0594C24.2634 12.0743 24.2632 12.0904 24.2579 12.1052C24.2526 12.12 24.2424 12.1326 24.229 12.1409C24.2157 12.1493 24.1999 12.1529 24.1841 12.1513C24.1684 12.1496 24.1537 12.1428 24.1424 12.1319C23.4097 11.37 20.9315 9.04642 17.7427 8.79443C17.618 8.34794 17.3345 7.96152 16.9447 7.70683C16.555 7.45214 16.0854 7.34648 15.6232 7.40943C15.1609 7.47238 14.7374 7.69968 14.431 8.04917C14.1247 8.39866 13.9564 8.84661 13.9573 9.30995C13.9603 9.387 13.9681 9.4638 13.9806 9.53989C13.1759 9.94718 12.4316 10.4628 11.7688 11.0721C11.6847 11.1502 11.5774 11.1989 11.463 11.2111C11.3485 11.2233 11.2332 11.1982 11.1344 11.1397L11.127 11.1351C11.0138 11.0656 10.9307 10.9567 10.8937 10.8297C10.8568 10.7027 10.8687 10.5665 10.9272 10.4478C11.5255 9.26207 12.3148 8.18134 13.2638 7.2482ZM17.3861 9.31101C17.3859 9.60482 17.2981 9.892 17.1336 10.1362C16.9691 10.3805 16.7354 10.5708 16.462 10.6831C16.1887 10.7954 15.8879 10.8248 15.5977 10.7674C15.3076 10.71 15.0411 10.5684 14.8319 10.3606C14.6228 10.1528 14.4803 9.88807 14.4227 9.5999C14.365 9.31172 14.3947 9.01304 14.5079 8.74161C14.6212 8.47017 14.8129 8.23818 15.0589 8.07497C15.3049 7.91175 15.5942 7.82463 15.89 7.82463C16.2869 7.82472 16.6675 7.98137 16.9482 8.26011C17.2288 8.53885 17.3864 8.91686 17.3864 9.31101H17.3861ZM21.6966 16.4055C21.5779 16.4056 21.4604 16.3917 21.3462 16.3644C21.1354 16.3306 20.9334 16.2521 20.7542 16.1333C20.508 15.9701 20.316 15.738 20.2026 15.4664C20.0892 15.1948 20.0595 14.8959 20.1172 14.6076C20.1748 14.3192 20.3173 14.0543 20.5266 13.8463C20.7359 13.6384 21.0026 13.4967 21.293 13.4393C21.5062 13.3972 21.7252 13.4018 21.9349 13.4518C22.0488 13.4701 22.1608 13.5016 22.2685 13.5458C22.542 13.6583 22.7758 13.8488 22.9403 14.0933C23.1048 14.3377 23.1926 14.6251 23.1926 14.9192C23.1926 15.1143 23.154 15.3075 23.0788 15.4879C23.0037 15.6682 22.8935 15.832 22.7546 15.97C22.6156 16.1081 22.4507 16.2176 22.2692 16.2923C22.0876 16.367 21.8931 16.4055 21.6966 16.4055ZM14.5572 20.6879C14.5573 20.3941 14.6452 20.1069 14.8096 19.8627C14.9741 19.6185 15.2078 19.4282 15.4812 19.3158C15.6668 19.2395 15.8651 19.2015 16.0642 19.203C16.1654 19.2022 16.267 19.2117 16.3672 19.2315C16.6574 19.2889 16.9239 19.4304 17.1331 19.6382C17.3422 19.846 17.4847 20.1107 17.5424 20.3988C17.6001 20.687 17.5705 20.9856 17.4573 21.2571C17.3441 21.5285 17.1524 21.7605 16.9064 21.9238C16.6604 22.087 16.3713 22.1742 16.0754 22.1743L16.0643 22.1742L16.0532 22.1743C15.8567 22.1742 15.6621 22.1358 15.4806 22.061C15.2991 21.9863 15.1341 21.8768 14.9952 21.7388C14.8563 21.6008 14.7461 21.4369 14.6709 21.2566C14.5958 21.0763 14.5571 20.8831 14.5572 20.6879ZM11.0788 13.8446C10.8326 13.6814 10.5431 13.5943 10.2471 13.5944C10.0506 13.5945 9.85601 13.633 9.67447 13.7077C9.49294 13.7824 9.32801 13.8919 9.18909 14.0299C9.05017 14.168 8.93998 14.3318 8.86482 14.5121C8.78967 14.6924 8.75101 14.8857 8.75105 15.0808C8.75105 15.093 8.7512 15.1052 8.75151 15.1174C8.75435 15.4062 8.84188 15.6881 9.00356 15.9285C9.16801 16.173 9.40179 16.3635 9.67532 16.4761C9.94885 16.5886 10.2498 16.6181 10.5402 16.5607C10.8306 16.5033 11.0973 16.3617 11.3067 16.1538C11.516 15.9458 11.6585 15.6809 11.7162 15.3925C11.7378 15.2846 11.7472 15.1752 11.7445 15.0663C11.7426 14.8768 11.7042 14.6884 11.6304 14.5115C11.517 14.2399 11.3251 14.0078 11.0788 13.8446ZM8.17132 17.7127C7.29695 16.8748 7.17114 15.6523 7.16656 15.0304C7.16033 13.2241 7.71958 11.4606 8.76693 9.98387C9.81427 8.50712 11.2979 7.39016 13.0126 6.78756C13.0276 6.78242 13.044 6.78249 13.059 6.78775C13.074 6.79302 13.0867 6.80317 13.0952 6.81655C13.1036 6.82994 13.1073 6.84577 13.1055 6.86148C13.1038 6.87718 13.0967 6.89183 13.0855 6.90305C12.3186 7.63067 9.98031 10.0932 9.72656 13.2619C9.27497 13.3846 8.8837 13.6661 8.62569 14.0541C8.36768 14.442 8.26054 14.9099 8.32425 15.3705C8.38795 15.8312 8.61815 16.253 8.97193 16.5576C9.32571 16.8621 9.77892 17.0284 10.2471 17.0256C10.3246 17.0227 10.4018 17.015 10.4783 17.0026C10.8877 17.8018 11.4064 18.541 12.0194 19.1994C12.0978 19.283 12.1469 19.3895 12.1591 19.5031C12.1714 19.6167 12.1462 19.7312 12.0874 19.8294L12.0829 19.8357C12.0129 19.9481 11.9033 20.0306 11.7755 20.0673C11.6476 20.104 11.5106 20.0922 11.3911 20.0341C10.1977 19.4395 9.1102 18.6553 8.17132 17.7127ZM23.6617 12.2869C24.5361 13.1248 24.6619 14.3473 24.6665 14.9689C24.6724 16.7751 24.113 18.5385 23.0657 20.0153C22.0184 21.492 20.535 22.6091 18.8205 23.212C18.8054 23.2172 18.7891 23.2171 18.7741 23.2118C18.7591 23.2066 18.7463 23.1964 18.7378 23.183C18.7294 23.1697 18.7257 23.1538 18.7275 23.1381C18.7292 23.1224 18.7363 23.1078 18.7475 23.0965C19.5144 22.3689 21.8527 19.9061 22.1065 16.7377C22.5568 16.614 22.9467 16.3322 23.2036 15.9447C23.4606 15.5571 23.5671 15.0901 23.5035 14.6304C23.4399 14.1707 23.2105 13.7495 22.8578 13.4451C22.5051 13.1407 22.0532 12.9738 21.5859 12.9754C21.5084 12.9784 21.431 12.986 21.3544 12.9981C20.945 12.1989 20.4265 11.4596 19.8136 10.8012C19.7351 10.7177 19.686 10.6111 19.6737 10.4975C19.6614 10.3839 19.6867 10.2694 19.7456 10.1713L19.7502 10.1639C19.82 10.0514 19.9296 9.96873 20.0575 9.93205C20.1854 9.89536 20.3224 9.90728 20.442 9.96548C21.6353 10.56 22.7229 11.3442 23.6617 12.2869ZM18.7017 22.751C17.8587 23.6197 16.6284 23.7446 16.0025 23.7492L16.0004 23.7499C14.1817 23.7554 12.4062 23.1993 10.9199 22.1583C9.43361 21.1174 8.31 19.6433 7.7047 17.9402C7.69952 17.9252 7.69959 17.909 7.70489 17.8941C7.7102 17.8792 7.72042 17.8665 7.7339 17.8581C7.74738 17.8497 7.76332 17.8461 7.77913 17.8478C7.79495 17.8496 7.8097 17.8566 7.821 17.8677C8.55368 18.6296 11.0319 20.9532 14.2207 21.2052C14.3431 21.6545 14.6261 22.0441 15.0168 22.3012C15.4076 22.5583 15.8792 22.6652 16.3436 22.6019C16.8079 22.5386 17.2332 22.3095 17.5397 21.9574C17.8463 21.6053 18.0132 21.1544 18.0092 20.6889C18.0062 20.6119 17.9985 20.5351 17.986 20.459C18.7902 20.0518 19.5341 19.5364 20.1967 18.9275C20.2808 18.8494 20.3881 18.8007 20.5025 18.7885C20.6169 18.7763 20.7323 18.8014 20.8311 18.8599L20.8385 18.8645C20.9516 18.9341 21.0347 19.0429 21.0716 19.1699C21.1086 19.297 21.0967 19.433 21.0383 19.5518C20.44 20.7375 19.6508 21.8181 18.7017 22.751Z" fill="#C53E6C"/>
</svg>
