<svg width="36" height="36" viewBox="0 0 36 36" fill="none" xmlns="http://www.w3.org/2000/svg">
<rect x="0.5" y="0.5" width="35" height="35" rx="3.5" fill="white" stroke="#F2F2F2"/>
<path fill-rule="evenodd" clip-rule="evenodd" d="M17.9999 9.84165V11.3333C21.6833 11.3333 24.6666 14.3167 24.6666 18C24.6666 18.8667 24.4999 19.7 24.1916 20.4583C23.9666 21.0167 23.2499 21.1667 22.8249 20.7417C22.5999 20.5167 22.5083 20.175 22.6333 19.875C22.8749 19.3 22.9999 18.6583 22.9999 18C22.9999 15.2417 20.7583 13 17.9999 13V14.4917C17.9999 14.8667 17.5499 15.05 17.2833 14.7917L14.9583 12.4667C14.7916 12.3 14.7916 12.0417 14.9583 11.875L17.2916 9.54998C17.5499 9.28332 17.9999 9.46665 17.9999 9.84165ZM12.9999 18C12.9999 20.7583 15.2416 23 17.9999 23V21.5083C17.9999 21.1333 18.4499 20.95 18.7083 21.2083L21.0333 23.5333C21.1999 23.7 21.1999 23.9583 21.0333 24.125L18.7083 26.45C18.4499 26.7167 17.9999 26.5333 17.9999 26.1583V24.6667C14.3166 24.6667 11.3333 21.6833 11.3333 18C11.3333 17.1333 11.4999 16.3 11.8083 15.5417C12.0333 14.9833 12.7499 14.8333 13.1749 15.2583C13.3999 15.4833 13.4916 15.825 13.3666 16.125C13.1249 16.7 12.9999 17.3417 12.9999 18Z" fill="#686868"/>
</svg>
