<svg width="31" height="31" viewBox="0 0 31 31" fill="none" xmlns="http://www.w3.org/2000/svg">
<circle opacity="0.05" cx="15.9163" cy="15.5" r="14.5" fill="#001D6D" stroke="#EBEBEB"/>
<path d="M22.4865 10.5387C22.4495 10.5017 22.3756 10.4647 22.3386 10.4647C22.3016 10.4647 22.1907 10.5017 22.1907 10.5387L21.3034 11.6478L21.2814 11.6725C21.2303 11.7387 21.2376 11.8081 21.3034 11.9066L21.4882 12.2394L21.5808 12.3827C22.1814 13.3433 22.453 14.3996 22.5234 15.456C22.6713 17.5634 21.9319 19.3751 20.453 20.891C20.1572 21.1867 20.0093 21.5565 20.0093 21.8892C20.0093 22.222 20.1572 22.5178 20.416 22.7396C20.6378 22.9614 20.9336 23.0723 21.2294 23.0723H21.2664L21.345 23.0695C21.6833 23.0454 21.9873 22.8664 22.2277 22.5917C24.3721 20.1515 25.1115 17.3786 24.409 14.3099L24.3686 14.1274C24.0579 12.7959 23.4413 11.5996 22.4865 10.5387Z" fill="#C53E6C"/>
<path d="M20.1942 8.6161C17.0515 6.61958 11.9493 6.84142 8.95453 10.6866C6.1816 14.2359 6.92105 18.9684 9.21334 21.2977C9.25031 21.3346 9.32426 21.3716 9.36123 21.3716C9.39821 21.3716 9.43518 21.3716 9.47215 21.3346C9.58307 21.2977 9.62004 21.1867 9.58307 21.1128L9.56441 21.0603C9.53274 20.9772 9.4968 20.9156 9.43518 20.854C8.58481 19.7078 8.10417 18.4138 7.99325 17.0458C7.77141 14.3099 8.69573 12.1285 10.7292 10.5387L10.8505 10.443C13.081 8.71429 15.733 8.37775 18.4565 9.50344L18.5915 9.55704C19.0109 9.72854 19.3438 9.91013 19.3438 9.91013L19.3795 9.92099C19.4712 9.94574 19.5369 9.93478 19.6026 9.83619L19.8708 9.51268C19.9399 9.43124 20.0195 9.33887 20.1059 9.24092L20.2681 9.05977C20.2681 9.0459 20.2733 9.02684 20.2798 9.00647L20.2993 8.94538L20.3147 8.86522C20.3329 8.74755 20.2928 8.68182 20.1942 8.6161Z" fill="#C53E6C"/>
<path d="M22.0428 9.31857L21.6361 8.91187C21.5726 8.99656 21.5091 9.04487 21.4386 9.09847C21.386 9.13847 21.3296 9.18142 21.2664 9.24463L21.0613 9.45811C19.3206 11.2699 17.6116 13.0487 15.8684 14.8275C15.6835 14.9754 15.4617 15.0863 15.2768 15.1602C14.7592 15.3451 14.3895 15.8257 14.4634 16.3433C14.5743 16.861 15.018 17.2677 15.5726 17.2677C16.1272 17.2677 16.5709 16.824 16.6448 16.2324C16.6448 16.0845 16.7188 15.9736 16.7927 15.8627C17.4212 15.0678 18.059 14.2729 18.6968 13.478C19.3346 12.6831 19.9723 11.8882 20.6009 11.0933C20.9459 10.6989 21.2582 10.3045 21.5704 9.91014C21.7265 9.71295 21.8826 9.51576 22.0428 9.31857Z" fill="#C53E6C"/>
</svg>
