<svg width="31" height="31" viewBox="0 0 31 31" fill="none" xmlns="http://www.w3.org/2000/svg">
<circle opacity="0.05" cx="15.9163" cy="15.5" r="14.5" fill="#001D6D" stroke="#EBEBEB"/>
<path d="M15.9163 7.625C16.3538 7.625 16.8538 7.9375 17.1663 8.4375L17.2288 8.5L17.2913 8.5625L23.5413 18.9375C23.7913 19.3125 23.8538 19.9375 23.5413 20.5625C23.2913 21.0625 22.7913 21.375 22.2288 21.375H22.1038H9.72878C9.10378 21.375 8.60378 21.125 8.29128 20.625C8.04128 20.1875 7.97878 19.5625 8.22878 19.0625L8.29128 19L8.35378 18.9375L14.6038 8.4375C14.9163 8 15.4788 7.625 15.9163 7.625ZM15.9163 6.75C15.1663 6.75 14.2913 7.25 13.8538 8L7.54128 18.4375L7.47878 18.5C7.04128 19.25 7.04128 20.25 7.54128 21.0625C8.04128 21.875 8.79128 22.25 9.72878 22.25H22.1038H22.2288C23.1663 22.25 23.9163 21.6875 24.3538 20.9375C24.8538 20.125 24.7913 19.1875 24.3538 18.4375L17.9788 8L17.9163 7.9375C17.4788 7.25 16.7288 6.75 15.9163 6.75ZM15.9163 17.625C15.2913 17.625 14.8538 18.125 14.8538 18.6875C14.8538 19.25 15.3538 19.75 15.9163 19.75C16.5413 19.75 16.9788 19.25 17.0413 18.6875C16.9788 18 16.4788 17.625 15.9163 17.625ZM15.9163 10.5C15.2288 10.5 14.7288 11 14.7913 11.875V11.9375L15.2288 16.3125C15.2913 16.6875 15.6038 16.9375 15.9163 16.9375C16.2288 16.9375 16.5413 16.6875 16.6038 16.375V16.3125L17.0413 11.9375C17.1038 10.9375 16.6663 10.5 15.9163 10.5Z" fill="#C53E6C"/>
</svg>
