<svg width="31" height="30" viewBox="0 0 31 30" fill="none" xmlns="http://www.w3.org/2000/svg">
<circle opacity="0.05" cx="15.9163" cy="15" r="14.5" fill="#001D6D" stroke="#EBEBEB"/>
<path d="M7.16626 14.3414C7.22898 14.0905 7.35443 13.8396 7.5426 13.5887C7.7935 13.2751 8.16984 13.1496 8.54619 13.0869C8.79708 13.0242 8.98526 13.0242 9.17343 12.9615C9.23615 12.9615 9.29888 12.8987 9.3616 12.836C9.48705 12.5224 9.6125 12.2088 9.73794 11.8952C9.73794 11.8324 9.73794 11.7697 9.73794 11.707C9.54977 11.5188 9.42432 11.2679 9.23615 11.0797C8.79708 10.4525 8.85981 9.76254 9.42432 9.19803C9.67522 8.94713 9.86339 8.75896 10.1143 8.50806C10.6788 8.00627 11.3688 7.94355 11.996 8.38262C12.1842 8.50806 12.3724 8.63351 12.6232 8.82168C12.686 8.88441 12.7487 8.88441 12.8114 8.82168C13.125 8.69624 13.4387 8.57079 13.6896 8.44534C13.815 8.38262 13.815 8.38262 13.8777 8.25717C13.9405 7.94355 14.0032 7.62993 14.0659 7.31631C14.1913 6.68907 14.7559 6.25 15.3831 6.25C15.7595 6.25 16.1358 6.25 16.5121 6.25C17.2021 6.25 17.7039 6.75179 17.8921 7.44176C17.9548 7.69265 17.9548 8.00627 18.0175 8.25717C18.0175 8.31989 18.0802 8.38262 18.143 8.44534C18.4566 8.57079 18.7702 8.69624 19.0211 8.82168C19.0838 8.82168 19.1465 8.82168 19.2093 8.82168C19.4602 8.69624 19.6483 8.50806 19.8992 8.38262C20.5265 7.94355 21.1537 8.00627 21.7182 8.50806C22.0319 8.75896 22.2827 9.07258 22.5964 9.3862C22.9727 9.82527 23.0354 10.4525 22.7218 10.9543C22.5336 11.2679 22.3455 11.5188 22.1573 11.7697C22.0946 11.8324 22.0946 11.8952 22.1573 11.9579C22.2827 12.2715 22.4082 12.5224 22.5336 12.836C22.5964 12.9615 22.6591 12.9615 22.7218 13.0242C23.0354 13.0869 23.3491 13.1496 23.6 13.2124C24.2272 13.3378 24.6035 13.8396 24.6663 14.4668C24.6663 14.9059 24.6663 15.2823 24.6663 15.7213C24.6035 16.3486 24.1645 16.8504 23.5372 17.0385C23.2863 17.1013 23.0982 16.9758 23.0354 16.7249C22.9727 16.5367 23.0982 16.2858 23.2863 16.1604C23.7254 15.9722 23.7881 15.9095 23.7881 15.4077C23.7881 15.1568 23.7881 14.9059 23.7881 14.655C23.7881 14.2787 23.6627 14.0905 23.2863 14.0278C22.91 13.9651 22.5964 13.9023 22.22 13.8396C21.9691 13.7769 21.8437 13.6514 21.7182 13.4005C21.5301 12.9615 21.4046 12.5224 21.1537 12.0833C21.0283 11.8324 21.0283 11.6443 21.2164 11.4561C21.4046 11.1425 21.6555 10.8916 21.8437 10.578C22.0319 10.2643 22.0319 10.0762 21.781 9.76254C21.5928 9.57437 21.3419 9.32348 21.1537 9.1353C20.9028 8.88441 20.6519 8.82168 20.3383 9.07258C20.0247 9.26075 19.7738 9.51165 19.4602 9.69982C19.272 9.82527 19.0838 9.82527 18.8329 9.76254C18.4566 9.57437 18.0175 9.3862 17.5784 9.19803C17.3276 9.1353 17.2021 8.94713 17.2021 8.75896C17.1394 8.38262 17.0767 8.069 17.0139 7.69265C16.9512 7.31631 16.763 7.12814 16.3867 7.12814C16.0731 7.12814 15.8222 7.12814 15.5086 7.12814C15.1949 7.12814 15.0068 7.25358 14.944 7.5672C14.8813 7.94355 14.8186 8.31989 14.7559 8.63351C14.6931 8.88441 14.5677 9.00986 14.3168 9.1353C13.8777 9.3862 13.4387 9.51165 12.9996 9.76254C12.7487 9.88799 12.5605 9.88799 12.3724 9.69982C12.0587 9.51165 11.8078 9.26075 11.4942 9.07258C11.1806 8.88441 10.9297 8.88441 10.6788 9.1353C10.4906 9.32348 10.2397 9.57437 10.0516 9.76254C9.80067 10.0134 9.80067 10.2643 9.98884 10.578C10.177 10.8916 10.4279 11.2052 10.6161 11.4561C10.7415 11.6443 10.7415 11.8324 10.6788 12.0833C10.4279 12.5224 10.3025 12.9615 10.1143 13.4005C10.0516 13.6514 9.86339 13.7769 9.6125 13.7769C9.23615 13.8396 8.92253 13.9023 8.54619 13.9651C8.16984 14.0278 8.0444 14.216 7.98167 14.5923C7.98167 14.9059 7.98167 15.1568 7.98167 15.4704C7.98167 15.8468 8.10712 15.9722 8.48346 16.0349C8.85981 16.0977 9.17343 16.1604 9.54977 16.2231C9.80067 16.2858 9.92612 16.4113 10.0516 16.6622C10.3025 17.1013 10.4279 17.5403 10.6788 17.9794C10.8043 18.2303 10.8043 18.4185 10.6161 18.6066C10.4279 18.9203 10.177 19.2339 9.98884 19.4848C9.80067 19.7984 9.80067 19.9866 10.0516 20.2375C10.2397 20.4256 10.4906 20.6765 10.6788 20.8647C10.9297 21.1156 11.1806 21.1156 11.4315 20.9274C11.7451 20.7392 12.0587 20.4884 12.3724 20.3002C12.5605 20.1747 12.7487 20.1747 12.9996 20.2375C13.4387 20.4256 13.8777 20.6138 14.3168 20.802C14.5677 20.8647 14.6931 21.0529 14.6931 21.3038C14.7559 21.6801 14.8186 21.9937 14.8813 22.3701C14.944 22.7464 15.1322 22.8719 15.5086 22.8719C15.7594 22.8719 16.0731 22.8719 16.324 22.8719C16.763 22.8719 16.8258 22.8091 17.0139 22.3701C17.1394 22.0565 17.5157 21.931 17.7666 22.1819C17.8921 22.3073 17.8921 22.4328 17.8921 22.621C17.7666 23.1855 17.3903 23.5618 16.8258 23.6873C16.763 23.6873 16.763 23.6873 16.7003 23.75C16.1985 23.75 15.7594 23.75 15.2577 23.75C15.1949 23.75 15.1949 23.75 15.1322 23.6873C14.5677 23.5618 14.1913 23.1855 14.0659 22.621C14.0032 22.3073 13.9405 22.0565 13.8777 21.7428C13.8777 21.6174 13.815 21.6174 13.6896 21.5547C13.3759 21.4292 13.0623 21.3038 12.8114 21.1783C12.7487 21.1783 12.686 21.1783 12.6232 21.1783C12.3724 21.3038 12.1842 21.4919 11.9333 21.6174C11.306 22.0565 10.6788 21.9937 10.1143 21.4919C9.86339 21.241 9.54977 20.9901 9.29888 20.6765C8.79708 20.112 8.79708 19.4848 9.17343 18.8575C9.3616 18.7948 9.54977 18.5439 9.67522 18.3557C9.73794 18.293 9.73794 18.2303 9.67522 18.1676C9.54977 17.8539 9.42432 17.5403 9.29888 17.2267C9.29888 17.164 9.17343 17.1013 9.1107 17.1013C8.92253 17.0385 8.67164 17.0385 8.48346 16.9758C8.16984 16.9131 7.7935 16.7876 7.5426 16.474C7.35443 16.2858 7.22898 16.0349 7.16626 15.7213C7.16626 15.2823 7.16626 14.7805 7.16626 14.3414ZM12.5605 14.655C12.6232 14.7177 12.6232 14.7805 12.686 14.8432C12.9996 15.1568 13.3132 15.5332 13.6268 15.8468C14.2541 16.474 15.1949 16.5367 15.8222 15.9095C16.1358 15.5959 16.4494 15.345 16.7003 15.0314C17.3276 14.3414 17.3276 13.4633 16.7003 12.7733C16.3867 12.4597 16.0731 12.0833 15.6967 11.7697C15.634 11.707 15.5713 11.707 15.5086 11.707L15.5713 11.6443H15.634C16.9512 11.5815 18.2684 12.397 18.7702 13.5887C19.0211 14.1532 19.0838 14.7805 19.0838 15.4704C19.0211 16.2858 19.3347 16.9758 19.8992 17.5403C20.7774 18.4812 21.7182 19.422 22.5964 20.3629C22.6591 20.4256 22.6591 20.4256 22.7218 20.4884C22.9727 20.6765 23.3491 20.5511 23.4118 20.2375C23.4745 20.0493 23.3491 19.9238 23.2236 19.7357C22.2827 18.7948 21.4046 17.8539 20.4638 16.9131C20.0874 16.474 19.8992 16.0349 19.8992 15.4704C19.8992 15.0314 19.8992 14.5923 19.8365 14.1532C19.3974 12.0833 17.453 10.6407 15.3831 10.8289C15.1322 10.8289 14.944 10.8916 14.7559 11.0797C14.4422 11.4561 14.4422 11.8952 14.8186 12.2715C15.1949 12.6479 15.5713 13.0869 16.0103 13.4633C16.2612 13.7769 16.324 14.0905 16.0103 14.4041C15.6967 14.7177 15.3831 15.0314 15.0068 15.345C14.8186 15.5332 14.5677 15.5959 14.3795 15.4704C14.2541 15.4077 14.1286 15.345 14.0659 15.2195C13.6268 14.8432 13.2505 14.4041 12.8114 14.0278C12.7487 13.7142 12.4978 13.6514 12.1842 13.7769C11.8706 13.9023 11.6824 14.0905 11.6197 14.4041C11.4315 16.0977 12.0587 17.4776 13.5014 18.4812C14.2541 18.983 15.1322 19.2339 16.0103 19.1711C16.7003 19.1084 17.2648 19.3593 17.7039 19.8611C18.582 20.7392 19.4602 21.6801 20.3383 22.5582C20.401 22.621 20.401 22.621 20.4638 22.6837C20.5892 22.8091 20.8401 22.8091 20.9655 22.6837C21.1537 22.5582 21.2164 22.4328 21.1537 22.2446C21.1537 22.1192 21.091 21.9937 20.9655 21.931C20.0874 21.0529 19.2093 20.112 18.3311 19.2339C18.2057 19.1084 18.0175 18.9203 17.8921 18.7948C17.3276 18.3557 16.6376 18.1676 15.8849 18.2303C14.3168 18.293 12.9996 17.2894 12.5605 15.8468C12.4351 15.4704 12.3724 15.0941 12.4351 14.655C12.4978 14.7177 12.5605 14.655 12.5605 14.655Z" fill="#C53E6C"/>
</svg>
