<svg width="31" height="30" viewBox="0 0 31 30" fill="none" xmlns="http://www.w3.org/2000/svg">
<circle opacity="0.05" cx="15.5" cy="15" r="14.5" fill="#001D6D" stroke="#EBEBEB"/>
<path fill-rule="evenodd" clip-rule="evenodd" d="M12.8473 7.2482C13.6903 6.37954 14.9206 6.25459 15.5465 6.25004C17.3651 6.24449 19.1405 6.80064 20.6267 7.84149C22.113 8.88233 23.2365 10.3564 23.8418 12.0594C23.8468 12.0743 23.8467 12.0904 23.8414 12.1052C23.8361 12.12 23.8259 12.1326 23.8125 12.1409C23.7992 12.1493 23.7833 12.1529 23.7676 12.1513C23.7519 12.1496 23.7372 12.1428 23.7259 12.1319C22.9932 11.37 20.5149 9.04642 17.3262 8.79443C17.2015 8.34794 16.918 7.96152 16.5282 7.70683C16.1385 7.45214 15.6689 7.34648 15.2067 7.40943C14.7444 7.47238 14.3209 7.69968 14.0145 8.04917C13.7082 8.39866 13.5399 8.84661 13.5408 9.30995C13.5438 9.387 13.5516 9.4638 13.5641 9.53989C12.7594 9.94718 12.0151 10.4628 11.3523 11.0721C11.2682 11.1502 11.1609 11.1989 11.0465 11.2111C10.932 11.2233 10.8167 11.1982 10.7179 11.1397L10.7105 11.1351C10.5973 11.0656 10.5142 10.9567 10.4772 10.8297C10.4403 10.7027 10.4522 10.5665 10.5107 10.4478C11.109 9.26207 11.8983 8.18134 12.8473 7.2482ZM16.9696 9.31101C16.9694 9.60482 16.8816 9.892 16.7171 10.1362C16.5526 10.3805 16.3189 10.5708 16.0455 10.6831C15.7722 10.7954 15.4714 10.8248 15.1812 10.7674C14.8911 10.71 14.6246 10.5684 14.4154 10.3606C14.2063 10.1528 14.0638 9.88807 14.0062 9.5999C13.9485 9.31172 13.9782 9.01304 14.0914 8.74161C14.2047 8.47017 14.3964 8.23818 14.6424 8.07497C14.8884 7.91175 15.1777 7.82463 15.4735 7.82463C15.8704 7.82472 16.251 7.98137 16.5316 8.26011C16.8123 8.53885 16.9699 8.91686 16.9699 9.31101H16.9696ZM21.2801 16.4055C21.1614 16.4056 21.0439 16.3917 20.9297 16.3644C20.7189 16.3306 20.5169 16.2521 20.3377 16.1333C20.0915 15.9701 19.8995 15.738 19.7861 15.4664C19.6727 15.1948 19.643 14.8959 19.7007 14.6076C19.7583 14.3192 19.9008 14.0543 20.1101 13.8463C20.3194 13.6384 20.5861 13.4967 20.8765 13.4393C21.0897 13.3972 21.3087 13.4018 21.5184 13.4518C21.6323 13.4701 21.7442 13.5016 21.852 13.5458C22.1255 13.6583 22.3593 13.8488 22.5238 14.0933C22.6883 14.3377 22.7761 14.6251 22.7761 14.9192C22.7761 15.1143 22.7375 15.3075 22.6623 15.4879C22.5872 15.6682 22.477 15.832 22.3381 15.97C22.1991 16.1081 22.0342 16.2176 21.8527 16.2923C21.6711 16.367 21.4766 16.4055 21.2801 16.4055ZM14.1407 20.6879C14.1408 20.3941 14.2287 20.1069 14.3931 19.8627C14.5576 19.6185 14.7913 19.4282 15.0647 19.3158C15.2503 19.2395 15.4486 19.2015 15.6476 19.203C15.7489 19.2022 15.8504 19.2117 15.9507 19.2315C16.2409 19.2889 16.5074 19.4304 16.7165 19.6382C16.9257 19.846 17.0682 20.1107 17.1259 20.3988C17.1836 20.687 17.154 20.9856 17.0408 21.2571C16.9276 21.5285 16.7359 21.7605 16.4899 21.9238C16.2439 22.087 15.9548 22.1742 15.6589 22.1743L15.6478 22.1742L15.6367 22.1743C15.4402 22.1742 15.2456 22.1358 15.0641 22.061C14.8826 21.9863 14.7176 21.8768 14.5787 21.7388C14.4398 21.6008 14.3296 21.4369 14.2544 21.2566C14.1793 21.0763 14.1406 20.8831 14.1407 20.6879ZM10.6623 13.8446C10.4161 13.6814 10.1266 13.5943 9.83059 13.5944C9.63408 13.5945 9.4395 13.633 9.25797 13.7077C9.07644 13.7824 8.9115 13.8919 8.77258 14.0299C8.63366 14.168 8.52348 14.3318 8.44832 14.5121C8.37316 14.6924 8.3345 14.8857 8.33455 15.0808C8.33455 15.093 8.3347 15.1052 8.335 15.1174C8.33784 15.4062 8.42537 15.6881 8.58705 15.9285C8.75151 16.173 8.98528 16.3635 9.25881 16.4761C9.53234 16.5886 9.83333 16.6181 10.1237 16.5607C10.4141 16.5033 10.6808 16.3617 10.8902 16.1538C11.0995 15.9458 11.242 15.6809 11.2997 15.3925C11.3213 15.2846 11.3307 15.1752 11.328 15.0663C11.3261 14.8768 11.2877 14.6884 11.2139 14.5115C11.1005 14.2399 10.9086 14.0078 10.6623 13.8446ZM7.75481 17.7127C6.88045 16.8748 6.75463 15.6523 6.75005 15.0304C6.74383 13.2241 7.30308 11.4606 8.35042 9.98387C9.39777 8.50712 10.8814 7.39016 12.5961 6.78756C12.6111 6.78242 12.6275 6.78249 12.6425 6.78775C12.6575 6.79302 12.6702 6.80317 12.6787 6.81655C12.6871 6.82994 12.6908 6.84577 12.689 6.86148C12.6873 6.87718 12.6802 6.89183 12.669 6.90305C11.9021 7.63067 9.5638 10.0932 9.31006 13.2619C8.85847 13.3846 8.4672 13.6661 8.20919 14.0541C7.95118 14.442 7.84404 14.9099 7.90774 15.3705C7.97145 15.8312 8.20164 16.253 8.55542 16.5576C8.9092 16.8621 9.36242 17.0284 9.83059 17.0256C9.90806 17.0227 9.98527 17.015 10.0618 17.0026C10.4712 17.8018 10.9899 18.541 11.6029 19.1994C11.6813 19.283 11.7304 19.3895 11.7426 19.5031C11.7549 19.6167 11.7297 19.7312 11.6709 19.8294L11.6664 19.8357C11.5964 19.9481 11.4868 20.0306 11.359 20.0673C11.2311 20.104 11.0941 20.0922 10.9746 20.0341C9.78124 19.4395 8.69369 18.6553 7.75481 17.7127ZM23.2452 12.2869C24.1196 13.1248 24.2454 14.3473 24.25 14.9689C24.2559 16.7751 23.6965 18.5385 22.6492 20.0153C21.6019 21.492 20.1185 22.6091 18.404 23.212C18.3889 23.2172 18.3726 23.2171 18.3576 23.2118C18.3426 23.2066 18.3298 23.1964 18.3213 23.183C18.3129 23.1697 18.3092 23.1538 18.311 23.1381C18.3127 23.1224 18.3198 23.1078 18.331 23.0965C19.0979 22.3689 21.4362 19.9061 21.69 16.7377C22.1403 16.614 22.5302 16.3322 22.7871 15.9447C23.0441 15.5571 23.1506 15.0901 23.087 14.6304C23.0234 14.1707 22.794 13.7495 22.4413 13.4451C22.0886 13.1407 21.6367 12.9738 21.1694 12.9754C21.0919 12.9784 21.0145 12.986 20.9379 12.9981C20.5285 12.1989 20.01 11.4596 19.3971 10.8012C19.3186 10.7177 19.2695 10.6111 19.2572 10.4975C19.2449 10.3839 19.2702 10.2694 19.3291 10.1713L19.3336 10.1639C19.4035 10.0514 19.5131 9.96873 19.641 9.93205C19.7689 9.89536 19.9059 9.90728 20.0255 9.96548C21.2188 10.56 22.3064 11.3442 23.2452 12.2869ZM18.2852 22.751C17.4422 23.6197 16.2119 23.7446 15.586 23.7492L15.5839 23.7499C13.7652 23.7554 11.9897 23.1993 10.5034 22.1583C9.01711 21.1174 7.8935 19.6433 7.28819 17.9402C7.28302 17.9252 7.28309 17.909 7.28839 17.8941C7.29369 17.8792 7.30391 17.8665 7.31739 17.8581C7.33087 17.8497 7.34682 17.8461 7.36263 17.8478C7.37844 17.8496 7.3932 17.8566 7.40449 17.8677C8.13718 18.6296 10.6154 20.9532 13.8042 21.2052C13.9266 21.6545 14.2096 22.0441 14.6003 22.3012C14.9911 22.5583 15.4627 22.6652 15.9271 22.6019C16.3914 22.5386 16.8167 22.3095 17.1232 21.9574C17.4298 21.6053 17.5967 21.1544 17.5927 20.6889C17.5897 20.6119 17.582 20.5351 17.5694 20.459C18.3737 20.0518 19.1176 19.5364 19.7802 18.9275C19.8643 18.8494 19.9716 18.8007 20.086 18.7885C20.2004 18.7763 20.3157 18.8014 20.4146 18.8599L20.422 18.8645C20.5351 18.9341 20.6182 19.0429 20.6551 19.1699C20.6921 19.297 20.6802 19.433 20.6218 19.5518C20.0235 20.7375 19.2343 21.8181 18.2852 22.751Z" fill="#C53E6C"/>
</svg>
