<svg width="31" height="31" viewBox="0 0 31 31" fill="none" xmlns="http://www.w3.org/2000/svg">
<circle opacity="0.05" cx="15.5" cy="15.5" r="14.5" fill="#001D6D" stroke="#EBEBEB"/>
<path d="M15.5 7.625C15.9375 7.625 16.4375 7.9375 16.75 8.4375L16.8125 8.5L16.875 8.5625L23.125 18.9375C23.375 19.3125 23.4375 19.9375 23.125 20.5625C22.875 21.0625 22.375 21.375 21.8125 21.375H21.6875H9.31252C8.68752 21.375 8.18752 21.125 7.87502 20.625C7.62502 20.1875 7.56252 19.5625 7.81252 19.0625L7.87502 19L7.93752 18.9375L14.1875 8.4375C14.5 8 15.0625 7.625 15.5 7.625ZM15.5 6.75C14.75 6.75 13.875 7.25 13.4375 8L7.12502 18.4375L7.06252 18.5C6.62502 19.25 6.62502 20.25 7.12502 21.0625C7.62502 21.875 8.37502 22.25 9.31252 22.25H21.6875H21.8125C22.75 22.25 23.5 21.6875 23.9375 20.9375C24.4375 20.125 24.375 19.1875 23.9375 18.4375L17.5625 8L17.5 7.9375C17.0625 7.25 16.3125 6.75 15.5 6.75ZM15.5 17.625C14.875 17.625 14.4375 18.125 14.4375 18.6875C14.4375 19.25 14.9375 19.75 15.5 19.75C16.125 19.75 16.5625 19.25 16.625 18.6875C16.5625 18 16.0625 17.625 15.5 17.625ZM15.5 10.5C14.8125 10.5 14.3125 11 14.375 11.875V11.9375L14.8125 16.3125C14.875 16.6875 15.1875 16.9375 15.5 16.9375C15.8125 16.9375 16.125 16.6875 16.1875 16.375V16.3125L16.625 11.9375C16.6875 10.9375 16.25 10.5 15.5 10.5Z" fill="#C53E6C"/>
</svg>
