<svg width="31" height="30" viewBox="0 0 31 30" fill="none" xmlns="http://www.w3.org/2000/svg">
<circle opacity="0.05" cx="15.5" cy="15" r="14.5" fill="#001D6D" stroke="#EBEBEB"/>
<path d="M21.8125 16.9375L20.75 17.25L19.3125 11.875L18.4375 12.125L17.5 8.5625L13 9.75L13.9375 13.3125L13.0625 13.5625L14.5 18.9375L13.375 19.25C13.125 19 12.875 18.875 12.5625 18.75L9.625 7.9375L6.875 7.625L6.75 8.5625L8.9375 8.8125L9.75 11.875L8.3125 13.6875L9 16.375L11.125 17.25L11.5625 18.75C10.5625 19 10 20 10.25 21C11 23.3125 14.375 22.4375 13.8125 20.0625L21.6875 17.9375L23.8125 19.125L24.25 18.3125L21.8125 16.9375ZM9.8125 15.625L9.3125 13.8125L10 12.875L10.8125 16L9.8125 15.625ZM12.3125 21.4375C11.8125 21.5625 11.3125 21.25 11.1875 20.8125C10.9375 19.625 12.625 19.1875 13 20.3125C13.0625 20.8125 12.8125 21.3125 12.3125 21.4375ZM16 13.75L16.875 13.5L17.125 14.375L16.25 14.625L16 13.75ZM14.125 10.4375L15 10.1875L15.25 11.0625L16.125 10.8125L15.875 9.9375L16.75 9.6875L17.4375 12.375L14.875 13.125L14.125 10.4375ZM15.375 18.6875L14.1875 14.25L15.0625 14L15.5625 15.8125L18.25 15.125L17.75 13.3125L18.625 13.0625L19.875 17.5L15.375 18.6875Z" fill="#C53E6C"/>
</svg>
