<svg width="31" height="31" viewBox="0 0 31 31" fill="none" xmlns="http://www.w3.org/2000/svg">
<circle opacity="0.05" cx="15.5" cy="15.5" r="14.5" fill="#001D6D" stroke="#EBEBEB"/>
<path d="M15.4999 7.625C15.9374 7.625 16.4374 7.9375 16.7499 8.4375L16.8124 8.5L16.8749 8.5625L23.1249 18.9375C23.3749 19.3125 23.4374 19.9375 23.1249 20.5625C22.8749 21.0625 22.3749 21.375 21.8124 21.375H21.6874H9.3124C8.6874 21.375 8.1874 21.125 7.8749 20.625C7.6249 20.1875 7.5624 19.5625 7.8124 19.0625L7.8749 19L7.9374 18.9375L14.1874 8.4375C14.4999 8 15.0624 7.625 15.4999 7.625ZM15.4999 6.75C14.7499 6.75 13.8749 7.25 13.4374 8L7.1249 18.4375L7.0624 18.5C6.6249 19.25 6.6249 20.25 7.1249 21.0625C7.6249 21.875 8.3749 22.25 9.3124 22.25H21.6874H21.8124C22.7499 22.25 23.4999 21.6875 23.9374 20.9375C24.4374 20.125 24.3749 19.1875 23.9374 18.4375L17.5624 8L17.4999 7.9375C17.0624 7.25 16.3124 6.75 15.4999 6.75ZM15.4999 17.625C14.8749 17.625 14.4374 18.125 14.4374 18.6875C14.4374 19.25 14.9374 19.75 15.4999 19.75C16.1249 19.75 16.5624 19.25 16.6249 18.6875C16.5624 18 16.0624 17.625 15.4999 17.625ZM15.4999 10.5C14.8124 10.5 14.3124 11 14.3749 11.875V11.9375L14.8124 16.3125C14.8749 16.6875 15.1874 16.9375 15.4999 16.9375C15.8124 16.9375 16.1249 16.6875 16.1874 16.375V16.3125L16.6249 11.9375C16.6874 10.9375 16.2499 10.5 15.4999 10.5Z" fill="#C53E6C"/>
</svg>
