<svg width="31" height="31" viewBox="0 0 31 31" fill="none" xmlns="http://www.w3.org/2000/svg">
<circle opacity="0.05" cx="15.9163" cy="15.5" r="14.5" fill="#001D6D" stroke="#EBEBEB"/>
<path d="M15.9162 7.625C16.3537 7.625 16.8537 7.9375 17.1662 8.4375L17.2287 8.5L17.2912 8.5625L23.5412 18.9375C23.7912 19.3125 23.8537 19.9375 23.5412 20.5625C23.2912 21.0625 22.7912 21.375 22.2287 21.375H22.1037H9.72866C9.10366 21.375 8.60366 21.125 8.29116 20.625C8.04116 20.1875 7.97866 19.5625 8.22866 19.0625L8.29116 19L8.35366 18.9375L14.6037 8.4375C14.9162 8 15.4787 7.625 15.9162 7.625ZM15.9162 6.75C15.1662 6.75 14.2912 7.25 13.8537 8L7.54116 18.4375L7.47866 18.5C7.04116 19.25 7.04116 20.25 7.54116 21.0625C8.04116 21.875 8.79116 22.25 9.72866 22.25H22.1037H22.2287C23.1662 22.25 23.9162 21.6875 24.3537 20.9375C24.8537 20.125 24.7912 19.1875 24.3537 18.4375L17.9787 8L17.9162 7.9375C17.4787 7.25 16.7287 6.75 15.9162 6.75ZM15.9162 17.625C15.2912 17.625 14.8537 18.125 14.8537 18.6875C14.8537 19.25 15.3537 19.75 15.9162 19.75C16.5412 19.75 16.9787 19.25 17.0412 18.6875C16.9787 18 16.4787 17.625 15.9162 17.625ZM15.9162 10.5C15.2287 10.5 14.7287 11 14.7912 11.875V11.9375L15.2287 16.3125C15.2912 16.6875 15.6037 16.9375 15.9162 16.9375C16.2287 16.9375 16.5412 16.6875 16.6037 16.375V16.3125L17.0412 11.9375C17.1037 10.9375 16.6662 10.5 15.9162 10.5Z" fill="#C53E6C"/>
</svg>
