<svg width="49" height="48" viewBox="0 0 49 48" fill="none" xmlns="http://www.w3.org/2000/svg">
<circle cx="24.2" cy="24" r="24" fill="#F7F7F7"/>
<path d="M19.2009 15H15.7009C15.4357 15 15.1814 15.1054 14.9938 15.2929C14.8063 15.4804 14.7009 15.7348 14.7009 16V19.5C14.7009 19.7652 14.8063 20.0196 14.9938 20.2071C15.1814 20.3946 15.4357 20.5 15.7009 20.5H19.2009C19.4661 20.5 19.7205 20.3946 19.908 20.2071C20.0956 20.0196 20.2009 19.7652 20.2009 19.5V16C20.2009 15.7348 20.0956 15.4804 19.908 15.2929C19.7205 15.1054 19.4661 15 19.2009 15ZM19.2009 19.5H15.7009V16H19.2009V19.5Z" fill="#C53E6C"/>
<path d="M32.7 15H22.2C21.9347 15 21.6804 15.1054 21.4928 15.2929C21.3053 15.4804 21.2 15.7348 21.2 16V19.5C21.2 19.7652 21.3053 20.0196 21.4928 20.2071C21.6804 20.3946 21.9347 20.5 22.2 20.5H32.7C32.9652 20.5 33.2195 20.3946 33.4071 20.2071C33.5946 20.0196 33.7 19.7652 33.7 19.5V16C33.7 15.7348 33.5946 15.4804 33.4071 15.2929C33.2195 15.1054 32.9652 15 32.7 15ZM32.7 19.5H22.2V16H32.7V19.5Z" fill="#C53E6C"/>
<path d="M19.2009 21.5001H15.7009C15.4357 21.5001 15.1814 21.6055 14.9938 21.793C14.8063 21.9806 14.7009 22.2349 14.7009 22.5001V26.0001C14.7009 26.2653 14.8063 26.5197 14.9938 26.7072C15.1814 26.8948 15.4357 27.0001 15.7009 27.0001H19.2009C19.4661 27.0001 19.7205 26.8948 19.908 26.7072C20.0956 26.5197 20.2009 26.2653 20.2009 26.0001V22.5001C20.2009 22.2349 20.0956 21.9806 19.908 21.793C19.7205 21.6055 19.4661 21.5001 19.2009 21.5001ZM19.2009 26.0001H15.7009V22.5001H19.2009V26.0001Z" fill="#C53E6C"/>
<path d="M32.7 21.5001H22.2C21.9347 21.5001 21.6804 21.6055 21.4928 21.793C21.3053 21.9806 21.2 22.2349 21.2 22.5001V26.0001C21.2 26.2653 21.3053 26.5197 21.4928 26.7072C21.6804 26.8948 21.9347 27.0001 22.2 27.0001H32.7C32.9652 27.0001 33.2195 26.8948 33.4071 26.7072C33.5946 26.5197 33.7 26.2653 33.7 26.0001V22.5001C33.7 22.2349 33.5946 21.9806 33.4071 21.793C33.2195 21.6055 32.9652 21.5001 32.7 21.5001ZM32.7 26.0001H22.2V22.5001H32.7V26.0001Z" fill="#C53E6C"/>
<path d="M19.2009 27.9999H15.7009C15.4357 27.9999 15.1814 28.1052 14.9938 28.2928C14.8063 28.4803 14.7009 28.7347 14.7009 28.9999V32.4999C14.7009 32.7651 14.8063 33.0194 14.9938 33.207C15.1814 33.3945 15.4357 33.4999 15.7009 33.4999H19.2009C19.4661 33.4999 19.7205 33.3945 19.908 33.207C20.0956 33.0194 20.2009 32.7651 20.2009 32.4999V28.9999C20.2009 28.7347 20.0956 28.4803 19.908 28.2928C19.7205 28.1052 19.4661 27.9999 19.2009 27.9999ZM19.2009 32.4999H15.7009V28.9999H19.2009V32.4999Z" fill="#C53E6C"/>
<path d="M32.7 27.9999H22.2C21.9347 27.9999 21.6804 28.1052 21.4928 28.2928C21.3053 28.4803 21.2 28.7347 21.2 28.9999V32.4999C21.2 32.7651 21.3053 33.0194 21.4928 33.207C21.6804 33.3945 21.9347 33.4999 22.2 33.4999H32.7C32.9652 33.4999 33.2195 33.3945 33.4071 33.207C33.5946 33.0194 33.7 32.7651 33.7 32.4999V28.9999C33.7 28.7347 33.5946 28.4803 33.4071 28.2928C33.2195 28.1052 32.9652 27.9999 32.7 27.9999ZM32.7 32.4999H22.2V28.9999H32.7V32.4999Z" fill="#C53E6C"/>
</svg>
