<svg width="49" height="48" viewBox="0 0 49 48" fill="none" xmlns="http://www.w3.org/2000/svg">
<circle cx="24.2" cy="24" r="24" fill="#F7F7F7"/>
<path d="M31.5011 34.5599C31.0455 34.5599 30.6761 34.1906 30.6761 33.7349C30.6761 30.5051 28.0484 27.8774 24.8186 27.8774H23.5811C20.3513 27.8774 17.7236 30.5051 17.7236 33.7349C17.7236 34.1906 17.3543 34.5599 16.8986 34.5599C16.443 34.5599 16.0736 34.1906 16.0736 33.7349C16.0736 29.5953 19.4415 26.2274 23.5811 26.2274H24.8186C28.9583 26.2274 32.3261 29.5953 32.3261 33.7349C32.3261 34.1906 31.9568 34.5599 31.5011 34.5599Z" fill="#C53E6C"/>
<path d="M24.1176 24.5775C21.047 24.5775 18.5488 22.0794 18.5488 19.0088C18.5488 15.9381 21.047 13.44 24.1176 13.44C27.1882 13.44 29.6863 15.9381 29.6863 19.0088C29.6863 22.0794 27.1882 24.5775 24.1176 24.5775ZM24.1176 15.09C21.9568 15.09 20.1988 16.848 20.1988 19.0088C20.1988 21.1696 21.9568 22.9275 24.1176 22.9275C26.2784 22.9275 28.0363 21.1696 28.0363 19.0088C28.0363 16.848 26.2784 15.09 24.1176 15.09Z" fill="#C53E6C"/>
</svg>
