<svg width="49" height="48" viewBox="0 0 49 48" fill="none" xmlns="http://www.w3.org/2000/svg">
<circle cx="24.3999" cy="24" r="24" fill="#F7F7F7"/>
<path d="M30.324 14.3533H26.0876V13.2236C26.0868 12.964 25.8765 12.7537 25.6169 12.7529H22.7926C22.533 12.7537 22.3226 12.964 22.3219 13.2236V14.3533H18.0855C16.7859 14.3539 15.7325 15.4073 15.7319 16.7069V32.8994C15.7325 34.199 16.7859 35.2523 18.0855 35.2529H30.324C31.6236 35.2523 32.677 34.199 32.6775 32.8994V16.7069C32.677 15.4073 31.6236 14.3539 30.324 14.3533ZM23.2633 13.6944H25.1462V15.5772H23.2633V13.6944ZM31.7361 32.8994C31.7339 33.6783 31.1029 34.3093 30.324 34.3115H18.0855C17.3066 34.3093 16.6756 33.6783 16.6734 32.8994V16.7069C16.6756 15.928 17.3066 15.297 18.0855 15.2948H22.3219V16.0479C22.3226 16.3075 22.533 16.5179 22.7926 16.5186H25.6169C25.8765 16.5179 26.0868 16.3075 26.0876 16.0479V15.2948H30.324C31.1029 15.297 31.7339 15.928 31.7361 16.7069V32.8994Z" fill="black"/>
<path d="M29.2951 31.77H19.1089C18.849 31.77 18.6382 31.9807 18.6382 32.2407C18.6382 32.5008 18.849 32.7114 19.1089 32.7114H29.2998C29.5599 32.7101 29.7695 32.4983 29.7681 32.2384C29.7668 31.9783 29.555 31.7687 29.2951 31.77Z" fill="black"/>
<path d="M21.4614 29.6988C21.2015 29.6988 20.9907 29.9094 20.9907 30.1695C20.9907 30.4296 21.2015 30.6402 21.4614 30.6402H26.9452C27.2053 30.6402 27.4159 30.4296 27.4159 30.1695C27.4159 29.9094 27.2053 29.6988 26.9452 29.6988H21.4614Z" fill="black"/>
</svg>
