<svg width="36" height="36" viewBox="0 0 36 36" fill="none" xmlns="http://www.w3.org/2000/svg">
<path fill-rule="evenodd" clip-rule="evenodd" d="M11.4246 13.0455C11.4246 13.5309 11.0311 13.9244 10.5457 13.9244C10.0602 13.9244 9.66675 13.5309 9.66675 13.0455C9.66675 12.5601 10.0602 12.1666 10.5457 12.1666C11.0311 12.1666 11.4246 12.5601 11.4246 13.0455ZM14.3628 12.3945H25.6824C26.0419 12.3945 26.3334 12.686 26.3334 13.0455C26.3334 13.4051 26.0419 13.6966 25.6824 13.6966H14.3628C14.0032 13.6966 13.7117 13.4051 13.7117 13.0455C13.7117 12.686 14.0032 12.3945 14.3628 12.3945ZM14.3628 17.2773H25.6824C26.0419 17.2773 26.3334 17.5688 26.3334 17.9283C26.3334 18.2879 26.0419 18.5794 25.6824 18.5794H14.3628C14.0032 18.5794 13.7117 18.2879 13.7117 17.9283C13.7117 17.5688 14.0032 17.2773 14.3628 17.2773ZM25.6824 22.1601H14.3628C14.0032 22.1601 13.7117 22.4516 13.7117 22.8112C13.7117 23.1707 14.0032 23.4622 14.3628 23.4622H25.6824C26.0419 23.4622 26.3334 23.1707 26.3334 22.8112C26.3334 22.4516 26.0419 22.1601 25.6824 22.1601ZM10.5457 18.8073C11.0311 18.8073 11.4246 18.4138 11.4246 17.9283C11.4246 17.4429 11.0311 17.0494 10.5457 17.0494C10.0602 17.0494 9.66675 17.4429 9.66675 17.9283C9.66675 18.4138 10.0602 18.8073 10.5457 18.8073ZM11.4246 22.8112C11.4246 23.2966 11.0311 23.6901 10.5457 23.6901C10.0602 23.6901 9.66675 23.2966 9.66675 22.8112C9.66675 22.3258 10.0602 21.9323 10.5457 21.9323C11.0311 21.9323 11.4246 22.3258 11.4246 22.8112Z" fill="#606060"/>
</svg>
