<svg width="20" height="20" viewBox="0 0 20 20" fill="none" xmlns="http://www.w3.org/2000/svg">
<g clip-path="url(#clip0_706_56990)">
<path d="M16.7007 4.49871L15.5423 3.09871C15.3173 2.81538 14.9757 2.64038 14.584 2.64038H4.58398C4.19232 2.64038 3.85065 2.81538 3.61732 3.09871L2.46732 4.49871C2.22565 4.78205 2.08398 5.15705 2.08398 5.55705V15.9737C2.08398 16.8904 2.83398 17.6404 3.75065 17.6404H15.4173C16.334 17.6404 17.084 16.8904 17.084 15.9737V5.55705C17.084 5.15705 16.9423 4.78205 16.7007 4.49871ZM5.00065 3.75041H13.7507L15.4173 5.41707H3.61732L5.00065 3.75041ZM3.33398 16.3904V6.80705H15.834V16.3904H3.33398ZM10.7923 8.47371H8.37565V10.9737H6.25065L9.58398 14.307L12.9173 10.9737H10.7923V8.47371Z" fill="#9C9C9C"/>
</g>
<defs>
<clipPath id="clip0_706_56990">
<rect width="20" height="20" fill="white"/>
</clipPath>
</defs>
</svg>
