<svg width="36" height="36" viewBox="0 0 36 36" fill="none" xmlns="http://www.w3.org/2000/svg">
<path d="M16.3334 18.8333H10.5001C10.2791 18.8333 10.0671 18.9211 9.91083 19.0774C9.75455 19.2337 9.66675 19.4456 9.66675 19.6666V25.5C9.66675 25.721 9.75455 25.9329 9.91083 26.0892C10.0671 26.2455 10.2791 26.3333 10.5001 26.3333H16.3334C16.5544 26.3333 16.7664 26.2455 16.9227 26.0892C17.079 25.9329 17.1667 25.721 17.1667 25.5V19.6666C17.1667 19.4456 17.079 19.2337 16.9227 19.0774C16.7664 18.9211 16.5544 18.8333 16.3334 18.8333ZM15.5001 24.6666H11.3334V20.5H15.5001V24.6666ZM25.5001 9.66663H19.6667C19.4457 9.66663 19.2338 9.75442 19.0775 9.9107C18.9212 10.067 18.8334 10.2789 18.8334 10.5V16.3333C18.8334 16.5543 18.9212 16.7663 19.0775 16.9225C19.2338 17.0788 19.4457 17.1666 19.6667 17.1666H25.5001C25.7211 17.1666 25.9331 17.0788 26.0893 16.9225C26.2456 16.7663 26.3334 16.5543 26.3334 16.3333V10.5C26.3334 10.2789 26.2456 10.067 26.0893 9.9107C25.9331 9.75442 25.7211 9.66663 25.5001 9.66663V9.66663ZM24.6667 15.5H20.5001V11.3333H24.6667V15.5ZM25.5001 18.8333H19.6667C19.4457 18.8333 19.2338 18.9211 19.0775 19.0774C18.9212 19.2337 18.8334 19.4456 18.8334 19.6666V25.5C18.8334 25.721 18.9212 25.9329 19.0775 26.0892C19.2338 26.2455 19.4457 26.3333 19.6667 26.3333H25.5001C25.7211 26.3333 25.9331 26.2455 26.0893 26.0892C26.2456 25.9329 26.3334 25.721 26.3334 25.5V19.6666C26.3334 19.4456 26.2456 19.2337 26.0893 19.0774C25.9331 18.9211 25.7211 18.8333 25.5001 18.8333ZM24.6667 24.6666H20.5001V20.5H24.6667V24.6666ZM16.3334 9.66663H10.5001C10.2791 9.66663 10.0671 9.75442 9.91083 9.9107C9.75455 10.067 9.66675 10.2789 9.66675 10.5V16.3333C9.66675 16.5543 9.75455 16.7663 9.91083 16.9225C10.0671 17.0788 10.2791 17.1666 10.5001 17.1666H16.3334C16.5544 17.1666 16.7664 17.0788 16.9227 16.9225C17.079 16.7663 17.1667 16.5543 17.1667 16.3333V10.5C17.1667 10.2789 17.079 10.067 16.9227 9.9107C16.7664 9.75442 16.5544 9.66663 16.3334 9.66663V9.66663ZM15.5001 15.5H11.3334V11.3333H15.5001V15.5Z" fill="#90003B"/>
<path d="M36 35.1219H0V36H36V35.1219Z" fill="#90003B"/>
</svg>
