<svg width="21" height="20" viewBox="0 0 21 20" fill="none" xmlns="http://www.w3.org/2000/svg">
<path d="M10.7769 1.25C9.04627 1.25 7.35455 1.76318 5.91562 2.72464C4.47669 3.6861 3.35518 5.05267 2.69291 6.65152C2.03065 8.25037 1.85737 10.0097 2.19499 11.707C2.53261 13.4044 3.36597 14.9635 4.58967 16.1872C5.81338 17.4109 7.37249 18.2443 9.06982 18.5819C10.7672 18.9195 12.5265 18.7462 14.1253 18.0839C15.7242 17.4217 17.0908 16.3002 18.0522 14.8612C19.0137 13.4223 19.5269 11.7306 19.5269 10C19.5269 7.67936 18.605 5.45376 16.964 3.81282C15.3231 2.17187 13.0975 1.25 10.7769 1.25V1.25ZM10.7769 17.5C9.2935 17.5 7.84345 17.0601 6.61008 16.236C5.37671 15.4119 4.41542 14.2406 3.84776 12.8701C3.28011 11.4997 3.13158 9.99168 3.42097 8.53682C3.71036 7.08197 4.42466 5.74559 5.47356 4.6967C6.52245 3.64781 7.85882 2.9335 9.31368 2.64411C10.7685 2.35472 12.2765 2.50325 13.647 3.0709C15.0174 3.63856 16.1888 4.59985 17.0129 5.83322C17.837 7.06659 18.2769 8.51664 18.2769 10C18.2769 11.9891 17.4867 13.8968 16.0802 15.3033C14.6736 16.7098 12.766 17.5 10.7769 17.5Z" fill="#9C9C9C"/>
<path d="M10.7768 7.59371C10.6441 7.59724 10.5122 7.57292 10.3894 7.52233C10.2667 7.47173 10.156 7.39598 10.0643 7.29996C9.97347 7.20897 9.90178 7.1007 9.85347 6.98155C9.80517 6.86239 9.78122 6.73477 9.78306 6.60621C9.78133 6.47581 9.80595 6.34641 9.85544 6.22575C9.90493 6.1051 9.97827 5.99568 10.0711 5.90405C10.1639 5.81243 10.2742 5.74048 10.3955 5.69252C10.5167 5.64456 10.6464 5.62158 10.7768 5.62496C10.9107 5.62187 11.0439 5.64573 11.1685 5.69512C11.293 5.7445 11.4064 5.81841 11.5018 5.91246C11.5921 6.00386 11.6634 6.11221 11.7117 6.23127C11.7599 6.35032 11.7842 6.47774 11.7831 6.60621C11.7849 6.73477 11.7609 6.86239 11.7126 6.98155C11.6643 7.1007 11.5926 7.20897 11.5018 7.29996C11.4076 7.39602 11.2946 7.47167 11.1698 7.5222C11.0451 7.57274 10.9113 7.59708 10.7768 7.59371V7.59371ZM9.93306 14.375V8.26871H11.5956V14.375H9.93306Z" fill="#9C9C9C"/>
</svg>
