<svg width="21" height="20" viewBox="0 0 21 20" fill="none" xmlns="http://www.w3.org/2000/svg">
<path d="M10.7767 1.25C9.04615 1.25 7.35443 1.76318 5.9155 2.72464C4.47657 3.6861 3.35506 5.05267 2.69279 6.65152C2.03052 8.25037 1.85725 10.0097 2.19487 11.707C2.53249 13.4044 3.36584 14.9635 4.58955 16.1872C5.81326 17.4109 7.37236 18.2443 9.0697 18.5819C10.767 18.9195 12.5264 18.7462 14.1252 18.0839C15.7241 17.4217 17.0906 16.3002 18.0521 14.8612C19.0136 13.4223 19.5267 11.7306 19.5267 10C19.5267 7.67936 18.6049 5.45376 16.9639 3.81282C15.323 2.17187 13.0974 1.25 10.7767 1.25V1.25ZM10.7767 17.5C9.29338 17.5 7.84333 17.0601 6.60996 16.236C5.37659 15.4119 4.4153 14.2406 3.84764 12.8701C3.27998 11.4997 3.13146 9.99168 3.42085 8.53682C3.71024 7.08197 4.42454 5.74559 5.47344 4.6967C6.52233 3.64781 7.8587 2.9335 9.31356 2.64411C10.7684 2.35472 12.2764 2.50325 13.6469 3.0709C15.0173 3.63856 16.1886 4.59985 17.0128 5.83322C17.8369 7.06659 18.2767 8.51664 18.2767 10C18.2767 11.9891 17.4866 13.8968 16.08 15.3033C14.6735 16.7098 12.7659 17.5 10.7767 17.5Z" fill="#9C9C9C"/>
<path d="M10.7767 7.59371C10.644 7.59724 10.512 7.57292 10.3893 7.52233C10.2666 7.47173 10.1558 7.39598 10.0642 7.29996C9.97334 7.20897 9.90166 7.1007 9.85335 6.98155C9.80504 6.86239 9.7811 6.73477 9.78293 6.60621C9.78121 6.47581 9.80583 6.34641 9.85532 6.22575C9.90481 6.1051 9.97814 5.99568 10.0709 5.90405C10.1637 5.81243 10.2741 5.74048 10.3953 5.69252C10.5166 5.64456 10.6463 5.62158 10.7767 5.62496C10.9106 5.62187 11.0438 5.64573 11.1684 5.69512C11.2929 5.7445 11.4063 5.81841 11.5017 5.91246C11.592 6.00386 11.6633 6.11221 11.7115 6.23127C11.7598 6.35032 11.7841 6.47774 11.7829 6.60621C11.7848 6.73477 11.7608 6.86239 11.7125 6.98155C11.6642 7.1007 11.5925 7.20897 11.5017 7.29996C11.4074 7.39602 11.2944 7.47167 11.1697 7.5222C11.045 7.57274 10.9112 7.59708 10.7767 7.59371V7.59371ZM9.93293 14.375V8.26871H11.5954V14.375H9.93293Z" fill="#9C9C9C"/>
</svg>
