<svg width="21" height="20" viewBox="0 0 21 20" fill="none" xmlns="http://www.w3.org/2000/svg">
<path d="M10.5 1.25C8.76942 1.25 7.07769 1.76318 5.63876 2.72464C4.19983 3.6861 3.07832 5.05267 2.41606 6.65152C1.75379 8.25037 1.58051 10.0097 1.91813 11.707C2.25575 13.4044 3.08911 14.9635 4.31282 16.1872C5.53653 17.4109 7.09563 18.2443 8.79296 18.5819C10.4903 18.9195 12.2496 18.7462 13.8485 18.0839C15.4473 17.4217 16.8139 16.3002 17.7754 14.8612C18.7368 13.4223 19.25 11.7306 19.25 10C19.25 7.67936 18.3281 5.45376 16.6872 3.81282C15.0462 2.17187 12.8206 1.25 10.5 1.25V1.25ZM10.5 17.5C9.01664 17.5 7.5666 17.0601 6.33323 16.236C5.09986 15.4119 4.13856 14.2406 3.57091 12.8701C3.00325 11.4997 2.85473 9.99168 3.14411 8.53682C3.4335 7.08197 4.14781 5.74559 5.1967 4.6967C6.2456 3.64781 7.58197 2.9335 9.03683 2.64411C10.4917 2.35472 11.9997 2.50325 13.3701 3.0709C14.7406 3.63856 15.9119 4.59985 16.736 5.83322C17.5601 7.06659 18 8.51664 18 10C18 11.9891 17.2098 13.8968 15.8033 15.3033C14.3968 16.7098 12.4891 17.5 10.5 17.5Z" fill="#9C9C9C"/>
<path d="M10.5 7.59371C10.3673 7.59724 10.2353 7.57292 10.1126 7.52233C9.98986 7.47173 9.8791 7.39598 9.78745 7.29996C9.69661 7.20897 9.62492 7.1007 9.57662 6.98155C9.52831 6.86239 9.50437 6.73477 9.5062 6.60621C9.50447 6.47581 9.52909 6.34641 9.57858 6.22575C9.62807 6.1051 9.70141 5.99568 9.79421 5.90405C9.887 5.81243 9.99734 5.74048 10.1186 5.69252C10.2399 5.64456 10.3696 5.62158 10.5 5.62496C10.6339 5.62187 10.7671 5.64573 10.8916 5.69512C11.0162 5.7445 11.1295 5.81841 11.225 5.91246C11.3152 6.00386 11.3865 6.11221 11.4348 6.23127C11.4831 6.35032 11.5073 6.47774 11.5062 6.60621C11.508 6.73477 11.4841 6.86239 11.4358 6.98155C11.3875 7.1007 11.3158 7.20897 11.225 7.29996C11.1307 7.39602 11.0177 7.47167 10.893 7.5222C10.7683 7.57274 10.6345 7.59708 10.5 7.59371V7.59371ZM9.6562 14.375V8.26871H11.3187V14.375H9.6562Z" fill="#9C9C9C"/>
</svg>
