<svg width="7" height="12" viewBox="0 0 7 12" fill="none" xmlns="http://www.w3.org/2000/svg">
<g clip-path="url(#clip0_702_9851)">
<path d="M6.47828 5.97031C6.47828 6.18007 6.40319 6.38983 6.253 6.55039L1.54878 11.5795C1.24841 11.9006 0.763933 11.9006 0.463561 11.5795C0.163188 11.2584 0.163188 10.7404 0.463561 10.4219L4.6276 5.97031L0.463561 1.51872C0.163188 1.1976 0.163188 0.679675 0.463561 0.361149C0.763933 0.0400333 1.24841 0.0400333 1.54878 0.361149L6.253 5.39023C6.40319 5.55079 6.47828 5.76055 6.47828 5.97031Z" fill="#877878"/>
<mask id="mask0_702_9851" style="mask-type:luminance" maskUnits="userSpaceOnUse" x="0" y="0" width="7" height="12">
<path d="M6.47828 5.97031C6.47828 6.18007 6.40319 6.38983 6.253 6.55039L1.54878 11.5795C1.24841 11.9006 0.763933 11.9006 0.463561 11.5795C0.163188 11.2584 0.163188 10.7404 0.463561 10.4219L4.6276 5.97031L0.463561 1.51872C0.163188 1.1976 0.163188 0.679675 0.463561 0.361149C0.763933 0.0400333 1.24841 0.0400333 1.54878 0.361149L6.253 5.39023C6.40319 5.55079 6.47828 5.76055 6.47828 5.97031Z" fill="white"/>
</mask>
<g mask="url(#mask0_702_9851)">
</g>
</g>
<defs>
<clipPath id="clip0_702_9851">
<rect width="12" height="7" fill="white" transform="matrix(0 -1 1 0 0 12)"/>
</clipPath>
</defs>
</svg>
