<svg width="7" height="12" viewBox="0 0 7 12" fill="none" xmlns="http://www.w3.org/2000/svg">
<g clip-path="url(#clip0_702_9819)">
<path d="M0.521719 6.02969C0.521719 5.81993 0.596812 5.61017 0.746998 5.44961L5.45122 0.420524C5.75159 0.0994086 6.23607 0.0994086 6.53644 0.420524C6.83681 0.74164 6.83681 1.25957 6.53644 1.57809L2.3724 6.02969L6.53644 10.4813C6.83681 10.8024 6.83681 11.3203 6.53644 11.6389C6.23607 11.96 5.75159 11.96 5.45122 11.6389L0.746998 6.60977C0.596812 6.44921 0.521719 6.23945 0.521719 6.02969Z" fill="#877878"/>
<mask id="mask0_702_9819" style="mask-type:luminance" maskUnits="userSpaceOnUse" x="0" y="0" width="7" height="12">
<path d="M0.521719 6.02969C0.521719 5.81993 0.596812 5.61017 0.746998 5.44961L5.45122 0.420524C5.75159 0.0994086 6.23607 0.0994086 6.53644 0.420524C6.83681 0.74164 6.83681 1.25957 6.53644 1.57809L2.3724 6.02969L6.53644 10.4813C6.83681 10.8024 6.83681 11.3203 6.53644 11.6389C6.23607 11.96 5.75159 11.96 5.45122 11.6389L0.746998 6.60977C0.596812 6.44921 0.521719 6.23945 0.521719 6.02969Z" fill="white"/>
</mask>
<g mask="url(#mask0_702_9819)">
</g>
</g>
<defs>
<clipPath id="clip0_702_9819">
<rect width="12" height="7" fill="white" transform="matrix(0 1 -1 0 7 0)"/>
</clipPath>
</defs>
</svg>
