<svg width="32" height="33" viewBox="0 0 32 33" fill="none" xmlns="http://www.w3.org/2000/svg">
<g clip-path="url(#clip0_31_21899)">
<path d="M15.5211 3.16669C11.1132 3.16669 6.98774 5.34708 4.50147 9.00198C2.98774 11.2137 2.18774 13.8098 2.18774 16.5C2.18774 19.1902 2.98774 21.7863 4.50147 23.9981C6.98774 27.653 11.1132 29.8334 15.5211 29.8334C19.9289 29.8334 24.0544 27.653 26.5407 23.9981C28.0544 21.7863 28.8544 19.1902 28.8544 16.5C28.8544 13.8098 28.0544 11.2137 26.5407 9.00198C24.0544 5.34708 19.9368 3.16669 15.5211 3.16669ZM24.2897 8.65688H20.7995C20.3446 7.32355 19.7721 6.19414 19.1132 5.30786C21.1054 5.951 22.8936 7.10394 24.2897 8.65688ZM10.6348 15.7157C10.6897 13.7706 10.9642 11.8883 11.4191 10.2255H19.6152C20.0701 11.8883 20.3446 13.7706 20.3995 15.7157H10.6348ZM20.4074 17.2843C20.3524 19.2294 20.0779 21.1118 19.623 22.7745H11.4191C10.9642 21.1118 10.6897 19.2294 10.6348 17.2843H20.4074ZM15.5211 4.73531C16.8309 4.73531 18.1564 6.18629 19.1054 8.65688H11.9368C12.8858 6.18629 14.2113 4.73531 15.5211 4.73531ZM11.9289 5.30786C11.2701 6.19414 10.6975 7.32355 10.2426 8.65688H6.75245C8.14853 7.10394 9.93676 5.951 11.9289 5.30786ZM5.56814 10.2255H9.7799C9.35637 11.9039 9.11323 13.7863 9.06618 15.7157H3.7799C3.91323 13.7628 4.525 11.8804 5.56814 10.2255ZM5.56814 22.7745C4.525 21.1196 3.90539 19.2373 3.7799 17.2843H9.06618C9.12108 19.2137 9.36421 21.0961 9.7799 22.7745H5.56814ZM6.75245 24.3432H10.2426C10.6975 25.6765 11.2701 26.8059 11.9289 27.6922C9.93676 27.049 8.14853 25.8961 6.75245 24.3432ZM15.5211 28.2647C14.2113 28.2647 12.8858 26.8137 11.9368 24.3432H19.1054C18.1564 26.8137 16.8309 28.2647 15.5211 28.2647ZM19.1132 27.6922C19.7721 26.8137 20.3446 25.6765 20.7995 24.3432H24.2897C22.8936 25.8961 21.1054 27.049 19.1132 27.6922ZM25.474 22.7745H21.2623C21.6858 21.0961 21.9289 19.2137 21.976 17.2843H27.2623C27.1289 19.2373 26.5172 21.1196 25.474 22.7745ZM21.976 15.7157C21.9211 13.7863 21.6779 11.9039 21.2623 10.2255H25.474C26.5172 11.8804 27.1368 13.7628 27.2623 15.7157H21.976Z" fill="#EF0AA1"/>
</g>
<defs>
<clipPath id="clip0_31_21899">
<rect width="32" height="32" fill="white" transform="translate(0 0.5)"/>
</clipPath>
</defs>
</svg>
