<svg width="64" height="44" viewBox="0 0 64 44" fill="none" xmlns="http://www.w3.org/2000/svg">
<path d="M4.17469 22.206C4.79604 22.6977 5.44773 22.9641 6.23312 22.9641C7.14323 22.9641 7.68817 22.5856 7.68817 21.9895C7.68817 21.3935 7.26795 21.0427 5.9848 20.7874C3.82862 20.3523 2.75671 19.2733 2.75671 17.646C2.75671 16.001 4.18368 14.79 6.33874 14.79C8.30166 14.79 9.5466 15.7257 10.0466 17.2109C10.1814 17.6183 9.94211 17.8825 9.51177 17.8825H8.23986C7.8848 17.8825 7.72301 17.7126 7.54098 17.4096C7.31627 17.0599 6.95671 16.8712 6.46795 16.8712C5.84548 16.8712 5.32862 17.182 5.32862 17.6838C5.32862 18.2044 5.79829 18.6306 6.9084 18.8571C9.20728 19.3211 10.2612 20.3611 10.2612 22.0173C10.2612 23.75 8.80053 25.0454 6.33424 25.0454C5.02188 25.0454 3.92975 24.4904 2.99154 23.437C2.73424 23.1528 2.76683 22.8598 3.01177 22.5856L3.30728 22.2526C3.5657 21.9596 3.85334 21.9496 4.1702 22.2049" fill="#131CA2"/>
<path d="M15.5162 14.7888C16.905 14.7888 18.0252 15.3194 18.8207 16.1886V15.6213C18.8207 15.2339 19.0454 15.0153 19.4331 15.0153H20.8117C21.205 15.0153 21.4252 15.2373 21.4252 15.6213V28.6086C21.4252 28.996 21.2005 29.2135 20.8117 29.2135H19.4331C19.041 29.2135 18.8207 28.9915 18.8207 28.6086V23.6457C18.0252 24.5148 16.905 25.0465 15.5162 25.0465C12.7477 25.0465 10.7275 22.7832 10.7275 19.9171C10.7275 17.051 12.7499 14.7888 15.5162 14.7888ZM16.078 22.7465C17.6106 22.7465 18.8185 21.5155 18.8185 19.9171C18.8185 18.3187 17.6129 17.0877 16.0803 17.0877C14.5477 17.0877 13.3713 18.3265 13.3713 19.916C13.3713 21.5055 14.5578 22.7488 16.0803 22.7488" fill="#131CA2"/>
<path d="M22.622 21.0839V15.6215C22.622 15.2341 22.8467 15.0165 23.2343 15.0165H24.6444C25.0377 15.0165 25.2579 15.2386 25.2579 15.6215V20.8075C25.2579 21.8942 26.1197 22.7467 27.1343 22.7467C28.3804 22.7467 29.3815 21.7821 29.3815 20.2392V15.6215C29.3815 15.2341 29.6062 15.0165 29.9939 15.0165H31.4017C31.795 15.0165 32.0152 15.2386 32.0152 15.6215V24.213C32.0152 24.6004 31.7905 24.8191 31.4017 24.8191H29.995C29.6029 24.8191 29.3826 24.5971 29.3826 24.213V23.7302C29.0394 24.1429 28.6076 24.4751 28.1185 24.7028C27.6294 24.9304 27.0952 25.0479 26.5546 25.0467C24.2276 25.0467 22.622 23.456 22.622 21.0817" fill="#131CA2"/>
<path d="M37.5501 14.7888C38.9377 14.7888 40.0602 15.3194 40.8546 16.1886V15.6213C40.8546 15.2339 41.0793 15.0153 41.4681 15.0153H42.8467C43.2389 15.0153 43.4591 15.2373 43.4591 15.6213V24.2118C43.4591 24.6003 43.2344 24.8178 42.8467 24.8178H41.4681C41.0748 24.8178 40.8546 24.5958 40.8546 24.2118V23.6457C40.0602 24.5148 38.9377 25.0465 37.5501 25.0465C34.7827 25.0465 32.7624 22.7832 32.7624 19.9171C32.7624 17.051 34.7849 14.7888 37.5501 14.7888ZM38.1119 22.7465C39.6433 22.7465 40.8512 21.5155 40.8512 19.9171C40.8512 18.3187 39.6467 17.0877 38.1153 17.0877C36.5838 17.0877 35.4063 18.3265 35.4063 19.916C35.4063 21.5055 36.5917 22.7488 38.1153 22.7488" fill="#131CA2"/>
<path d="M47.489 19.6243V24.212C47.489 24.6005 47.2643 24.8181 46.8767 24.8181H45.4677C45.0756 24.8181 44.8553 24.5961 44.8553 24.212V15.6216C44.8553 15.2331 45.0801 15.0155 45.4677 15.0155H46.8767C47.2699 15.0155 47.489 15.2375 47.489 15.6216V16.2177C48.1216 15.3851 49.0025 14.7902 50.143 14.7902C50.2743 14.7882 50.4054 14.8005 50.534 14.8268C50.8902 14.8934 51.0329 15.1776 51.0037 15.5272L50.9183 16.625C50.8801 17.0313 50.6306 17.18 50.2093 17.1168C50.0779 17.0981 49.9454 17.0885 49.8126 17.0879C48.5486 17.0879 47.4947 18.1002 47.4947 19.6232" fill="#131CA2"/>
<path d="M56.2804 22.9707C57.4208 22.9707 58.3028 22.6499 59.0961 22.0339C59.4028 21.7974 59.6995 21.8119 59.9669 22.0716L60.4366 22.5356C60.7152 22.8098 60.7354 23.1228 60.4557 23.397C59.9074 23.9319 59.2564 24.3532 58.5409 24.6359C57.8254 24.9186 57.0598 25.057 56.2894 25.0431C52.8995 25.0431 50.6489 22.7809 50.6489 19.9148C50.6489 17.0488 52.9669 14.7866 56.0422 14.7866C59.0759 14.7866 61.2433 17.0066 61.2433 19.7439C61.2433 19.8682 61.2332 20.0103 61.2242 20.1424C61.1849 20.5109 60.9354 20.6896 60.5624 20.6896H53.3118C53.5422 22.0539 54.6905 22.9707 56.2804 22.9707ZM53.3792 18.837H58.5298C58.2399 17.6748 57.3051 16.8656 56.0219 16.8656C55.4225 16.8621 54.8386 17.054 54.3608 17.4116C53.883 17.7693 53.538 18.2726 53.3792 18.8437" fill="#131CA2"/>
</svg>
