<svg width="64" height="44" viewBox="0 0 64 44" fill="none" xmlns="http://www.w3.org/2000/svg">
<path d="M4.17481 22.206C4.79616 22.6977 5.44785 22.9641 6.23324 22.9641C7.14335 22.9641 7.6883 22.5856 7.6883 21.9895C7.6883 21.3935 7.26807 21.0427 5.98493 20.7874C3.82875 20.3523 2.75684 19.2733 2.75684 17.646C2.75684 16.001 4.1838 14.79 6.33886 14.79C8.30178 14.79 9.54672 15.7257 10.0467 17.2109C10.1816 17.6183 9.94223 17.8825 9.51189 17.8825H8.23998C7.88493 17.8825 7.72313 17.7126 7.54111 17.4096C7.31639 17.0599 6.95684 16.8712 6.46807 16.8712C5.8456 16.8712 5.32875 17.182 5.32875 17.6838C5.32875 18.2044 5.79841 18.6306 6.90852 18.8571C9.2074 19.3211 10.2613 20.3611 10.2613 22.0173C10.2613 23.75 8.80066 25.0454 6.33436 25.0454C5.022 25.0454 3.92987 24.4904 2.99167 23.437C2.73436 23.1528 2.76695 22.8598 3.01189 22.5856L3.3074 22.2526C3.56583 21.9596 3.85347 21.9496 4.17032 22.2049" fill="#131CA2"/>
<path d="M15.5164 14.7888C16.9051 14.7888 18.0253 15.3194 18.8209 16.1886V15.6213C18.8209 15.2339 19.0456 15.0153 19.4332 15.0153H20.8119C21.2051 15.0153 21.4253 15.2373 21.4253 15.6213V28.6086C21.4253 28.996 21.2006 29.2135 20.8119 29.2135H19.4332C19.0411 29.2135 18.8209 28.9915 18.8209 28.6086V23.6457C18.0253 24.5148 16.9051 25.0465 15.5164 25.0465C12.7478 25.0465 10.7276 22.7832 10.7276 19.9171C10.7276 17.051 12.7501 14.7888 15.5164 14.7888ZM16.0782 22.7465C17.6107 22.7465 18.8186 21.5155 18.8186 19.9171C18.8186 18.3187 17.613 17.0877 16.0804 17.0877C14.5478 17.0877 13.3714 18.3265 13.3714 19.916C13.3714 21.5055 14.5579 22.7488 16.0804 22.7488" fill="#131CA2"/>
<path d="M22.6221 21.0839V15.6215C22.6221 15.2341 22.8468 15.0165 23.2344 15.0165H24.6446C25.0378 15.0165 25.258 15.2386 25.258 15.6215V20.8075C25.258 21.8942 26.1198 22.7467 27.1345 22.7467C28.3805 22.7467 29.3816 21.7821 29.3816 20.2392V15.6215C29.3816 15.2341 29.6064 15.0165 29.994 15.0165H31.4019C31.7951 15.0165 32.0153 15.2386 32.0153 15.6215V24.213C32.0153 24.6004 31.7906 24.8191 31.4019 24.8191H29.9951C29.603 24.8191 29.3828 24.5971 29.3828 24.213V23.7302C29.0395 24.1429 28.6077 24.4751 28.1186 24.7028C27.6295 24.9304 27.0953 25.0479 26.5547 25.0467C24.2277 25.0467 22.6221 23.456 22.6221 21.0817" fill="#131CA2"/>
<path d="M37.5502 14.7888C38.9379 14.7888 40.0603 15.3194 40.8547 16.1886V15.6213C40.8547 15.2339 41.0794 15.0153 41.4682 15.0153H42.8468C43.239 15.0153 43.4592 15.2373 43.4592 15.6213V24.2118C43.4592 24.6003 43.2345 24.8178 42.8468 24.8178H41.4682C41.0749 24.8178 40.8547 24.5958 40.8547 24.2118V23.6457C40.0603 24.5148 38.9379 25.0465 37.5502 25.0465C34.7828 25.0465 32.7626 22.7832 32.7626 19.9171C32.7626 17.051 34.785 14.7888 37.5502 14.7888ZM38.112 22.7465C39.6435 22.7465 40.8513 21.5155 40.8513 19.9171C40.8513 18.3187 39.6468 17.0877 38.1154 17.0877C36.5839 17.0877 35.4064 18.3265 35.4064 19.916C35.4064 21.5055 36.5918 22.7488 38.1154 22.7488" fill="#131CA2"/>
<path d="M47.4892 19.6243V24.212C47.4892 24.6005 47.2645 24.8181 46.8768 24.8181H45.4678C45.0757 24.8181 44.8555 24.5961 44.8555 24.212V15.6216C44.8555 15.2331 45.0802 15.0155 45.4678 15.0155H46.8768C47.2701 15.0155 47.4892 15.2375 47.4892 15.6216V16.2177C48.1218 15.3851 49.0027 14.7902 50.1431 14.7902C50.2744 14.7882 50.4055 14.8005 50.5341 14.8268C50.8903 14.8934 51.033 15.1776 51.0038 15.5272L50.9184 16.625C50.8802 17.0313 50.6307 17.18 50.2094 17.1168C50.078 17.0981 49.9455 17.0885 49.8128 17.0879C48.5487 17.0879 47.4948 18.1002 47.4948 19.6232" fill="#131CA2"/>
<path d="M56.2805 22.9707C57.4209 22.9707 58.303 22.6499 59.0962 22.0339C59.403 21.7974 59.6996 21.8119 59.967 22.0716L60.4367 22.5356C60.7153 22.8098 60.7356 23.1228 60.4558 23.397C59.9075 23.9319 59.2565 24.3532 58.541 24.6359C57.8255 24.9186 57.06 25.057 56.2895 25.0431C52.8996 25.0431 50.649 22.7809 50.649 19.9148C50.649 17.0488 52.967 14.7866 56.0423 14.7866C59.076 14.7866 61.2434 17.0066 61.2434 19.7439C61.2434 19.8682 61.2333 20.0103 61.2243 20.1424C61.185 20.5109 60.9356 20.6896 60.5625 20.6896H53.312C53.5423 22.0539 54.6906 22.9707 56.2805 22.9707ZM53.3794 18.837H58.5299C58.2401 17.6748 57.3052 16.8656 56.0221 16.8656C55.4226 16.8621 54.8387 17.054 54.3609 17.4116C53.8831 17.7693 53.5381 18.2726 53.3794 18.8437" fill="#131CA2"/>
</svg>
