<svg width="32" height="32" viewBox="0 0 32 32" fill="none" xmlns="http://www.w3.org/2000/svg">
<path d="M8.5 31C7.46875 31 6.625 30.1562 6.625 29.125V2.875C6.625 1.84375 7.46875 1 8.5 1H27.25C28.2812 1 29.125 1.84375 29.125 2.875V23.5L21.625 31H8.5Z" fill="#E2E5E7"/>
<path d="M23.5 23.5H29.125L21.625 31V25.375C21.625 24.3438 22.4688 23.5 23.5 23.5Z" fill="#B0B7BD"/>
<path d="M20.875 15.3125C20.875 15.725 20.5375 16.0625 20.125 16.0625H3.625C3.2125 16.0625 2.875 15.725 2.875 15.3125V7.8125C2.875 7.4 3.2125 7.0625 3.625 7.0625H20.125C20.5375 7.0625 20.875 7.4 20.875 7.8125V15.3125Z" fill="#009500"/>
<path d="M7.26125 9.86319C7.16875 9.68444 7 9.59569 6.755 9.59569C6.62 9.59569 6.50875 9.63194 6.42125 9.70569C6.33375 9.77819 6.265 9.89444 6.215 10.0569C6.165 10.2194 6.13 10.4319 6.11 10.6957C6.08875 10.9582 6.08 11.2794 6.08 11.6594C6.08 12.0644 6.09375 12.3919 6.12125 12.6419C6.1475 12.8919 6.19125 13.0844 6.24875 13.2232C6.30625 13.3619 6.37875 13.4544 6.46625 13.5007C6.55375 13.5482 6.655 13.5732 6.77 13.5732C6.865 13.5732 6.95375 13.5569 7.03625 13.5244C7.11875 13.4919 7.19 13.4269 7.25 13.3294C7.31125 13.2319 7.35875 13.0944 7.3925 12.9169C7.4275 12.7394 7.445 12.5057 7.445 12.2157H8.52375C8.52375 12.5044 8.50125 12.7807 8.45625 13.0407C8.41125 13.3007 8.32625 13.5282 8.205 13.7232C8.08125 13.9169 7.91 14.0694 7.6875 14.1794C7.465 14.2894 7.17625 14.3457 6.82125 14.3457C6.4175 14.3457 6.09375 14.2794 5.855 14.1507C5.615 14.0207 5.43125 13.8332 5.30375 13.5882C5.17625 13.3432 5.09375 13.0507 5.05625 12.7107C5.02 12.3719 5 11.9957 5 11.5869C5 11.1819 5.02 10.8082 5.05625 10.4657C5.09375 10.1244 5.1775 9.82944 5.30375 9.58444C5.4325 9.34069 5.615 9.14819 5.855 9.01069C6.09375 8.87444 6.4175 8.80444 6.82125 8.80444C7.2075 8.80444 7.51 8.86694 7.7325 8.99194C7.955 9.11694 8.12125 9.27569 8.23 9.46819C8.33875 9.66069 8.41 9.86819 8.43625 10.0907C8.46375 10.3132 8.4775 10.5219 8.4775 10.7169H7.39875C7.39875 10.3232 7.3525 10.0394 7.26125 9.86319Z" fill="white"/>
<path d="M10.7558 12.7458C10.7558 12.8708 10.767 12.9845 10.7858 13.0858C10.807 13.1883 10.8433 13.2745 10.8983 13.3445C10.9533 13.4158 11.0283 13.4708 11.1208 13.5108C11.212 13.5495 11.3295 13.5708 11.4683 13.5708C11.6345 13.5708 11.782 13.517 11.9145 13.4095C12.0458 13.302 12.1133 13.1345 12.1133 12.9108C12.1133 12.7908 12.0958 12.687 12.0645 12.5995C12.032 12.512 11.9783 12.4333 11.9033 12.3645C11.827 12.2933 11.7283 12.2308 11.607 12.1733C11.4858 12.1158 11.3333 12.057 11.1533 11.997C10.9145 11.917 10.707 11.8283 10.5308 11.7333C10.3558 11.6395 10.2095 11.5283 10.092 11.3995C9.97453 11.272 9.88828 11.1245 9.83328 10.957C9.77828 10.7883 9.75078 10.5958 9.75078 10.3745C9.75078 9.84453 9.89828 9.45078 10.1933 9.19078C10.487 8.93078 10.8933 8.80078 11.4083 8.80078C11.6483 8.80078 11.8695 8.82703 12.072 8.87953C12.2745 8.93203 12.4495 9.01578 12.597 9.13453C12.7445 9.25203 12.8595 9.40203 12.942 9.58328C13.0233 9.76578 13.0658 9.98453 13.0658 10.2395V10.3895H12.032C12.032 10.1345 11.987 9.93828 11.8983 9.79953C11.8083 9.66328 11.6583 9.59328 11.4483 9.59328C11.3283 9.59328 11.2283 9.61203 11.1483 9.64578C11.0695 9.68078 11.0045 9.72703 10.957 9.78453C10.9095 9.84203 10.8758 9.91078 10.8583 9.98578C10.8395 10.0608 10.832 10.1383 10.832 10.2183C10.832 10.3845 10.867 10.522 10.937 10.6345C11.007 10.7483 11.157 10.852 11.387 10.9458L12.2195 11.3058C12.4245 11.3958 12.592 11.4895 12.7208 11.5883C12.8508 11.6858 12.9558 11.7908 13.032 11.9033C13.1095 12.0158 13.1633 12.1383 13.1933 12.2745C13.2233 12.4083 13.2383 12.5595 13.2383 12.7233C13.2383 13.2883 13.0745 13.6995 12.747 13.957C12.4195 14.2145 11.9633 14.3445 11.3783 14.3445C10.7683 14.3445 10.332 14.212 10.0683 13.947C9.80578 13.682 9.67578 13.302 9.67578 12.807V12.5895H10.7558V12.7458Z" fill="white"/>
<path d="M16.0923 12.8663H16.1161L16.9111 8.90625H18.0298L16.7998 14.2613H15.4123L14.1836 8.90625H15.3386L16.0923 12.8663Z" fill="white"/>
</svg>
