<svg width="16" height="25" viewBox="0 0 16 25" fill="none" xmlns="http://www.w3.org/2000/svg">
<path fill-rule="evenodd" clip-rule="evenodd" d="M5.8665 16.1065L4.622 7.80947C4.5105 7.06947 3.887 6.53247 3.1385 6.53247H1.5V7.53247H3.1385C3.388 7.53247 3.596 7.71097 3.633 7.95797L4.8775 16.255C4.989 16.995 5.6125 17.5325 6.361 17.5325H14V16.5325H6.361C6.1115 16.5325 5.9035 16.3535 5.8665 16.1065ZM5 19.5325C5 18.9805 5.448 18.5325 6 18.5325C6.552 18.5325 7 18.9805 7 19.5325C7 20.0845 6.552 20.5325 6 20.5325C5.448 20.5325 5 20.0845 5 19.5325ZM12 19.5325C12 18.9805 12.448 18.5325 13 18.5325C13.552 18.5325 14 18.9805 14 19.5325C14 20.0845 13.552 20.5325 13 20.5325C12.448 20.5325 12 20.0845 12 19.5325ZM6.7199 15.0325L5.6699 8.03247H14.4999L14.1329 13.175C14.0579 14.2215 13.1869 15.0325 12.1379 15.0325H6.7199Z" fill="#9C9C9C"/>
</svg>
