<svg width="20" height="20" viewBox="0 0 20 20" fill="none" xmlns="http://www.w3.org/2000/svg">
<path fill-rule="evenodd" clip-rule="evenodd" d="M16.9319 10.625H17.5V9.375H16.9319H15.9744L15.725 8.45062C15.5912 7.95563 15.3962 7.48313 15.145 7.04625L14.6669 6.21625L15.3444 5.53937L15.745 5.13875L14.8612 4.255L14.4606 4.65562L13.7831 5.3325L12.9531 4.855C12.5169 4.60375 12.0444 4.40937 11.5494 4.275L10.625 4.025V3.06813V2.5H9.375V3.06813V4.025L8.45062 4.275C7.955 4.40937 7.48313 4.60375 7.04688 4.855L6.21688 5.3325L5.53937 4.65562L5.13875 4.255L4.255 5.13875L4.65562 5.53937L5.3325 6.21625L4.855 7.04625C4.60375 7.48313 4.40875 7.95563 4.275 8.45062L4.02562 9.375H3.06813H2.5V10.625H3.06813H4.02562L4.275 11.5494C4.40875 12.0444 4.60375 12.5169 4.855 12.9537L5.3325 13.7838L4.65562 14.4606L4.255 14.8612L5.13875 15.745L5.53937 15.3444L6.21688 14.6669L7.04688 15.145C7.48313 15.3962 7.955 15.5906 8.45062 15.725L9.375 15.975V16.9319V17.5H10.625V16.9319V15.975L11.5494 15.725C12.045 15.5906 12.5169 15.3962 12.9531 15.145L13.7831 14.6669L14.4606 15.3444L14.8612 15.745L15.745 14.8612L15.3444 14.4606L14.6669 13.7838L15.145 12.9537C15.3962 12.5169 15.5912 12.0444 15.725 11.5494L15.9744 10.625H16.9319ZM16.9319 8.125H17.5C18.1875 8.125 18.75 8.6875 18.75 9.375V10.625C18.75 11.3125 18.1875 11.875 17.5 11.875H16.9319C16.7694 12.4775 16.5325 13.0481 16.2281 13.5769L16.6288 13.9775C17.115 14.4637 17.115 15.2587 16.6288 15.745L15.745 16.6288C15.5019 16.8719 15.1819 16.9931 14.8612 16.9931C14.5406 16.9931 14.22 16.8719 13.9775 16.6288L13.5769 16.2281C13.0481 16.5325 12.4775 16.7688 11.875 16.9319V17.5C11.875 18.1875 11.3125 18.75 10.625 18.75H9.375C8.6875 18.75 8.125 18.1875 8.125 17.5V16.9319C7.5225 16.7688 6.95188 16.5325 6.42313 16.2281L6.0225 16.6288C5.77938 16.8719 5.45875 16.9931 5.13875 16.9931C4.81813 16.9931 4.4975 16.8719 4.255 16.6288L3.37125 15.745C2.885 15.2587 2.885 14.4637 3.37125 13.9775L3.77187 13.5769C3.4675 13.0481 3.23062 12.4775 3.06813 11.875H2.5C1.8125 11.875 1.25 11.3125 1.25 10.625V9.375C1.25 8.6875 1.8125 8.125 2.5 8.125H3.06813C3.23062 7.5225 3.4675 6.95188 3.77187 6.42313L3.37125 6.0225C2.885 5.53625 2.885 4.74125 3.37125 4.255L4.255 3.37125C4.4975 3.1275 4.81813 3.00688 5.13875 3.00688C5.45875 3.00688 5.77938 3.1275 6.0225 3.37125L6.42313 3.77125C6.95188 3.4675 7.5225 3.23125 8.125 3.06813V2.5C8.125 1.8125 8.6875 1.25 9.375 1.25H10.625C11.3125 1.25 11.875 1.8125 11.875 2.5V3.06813C12.4775 3.23125 13.0481 3.4675 13.5769 3.77125L13.9775 3.37125C14.22 3.1275 14.5406 3.00688 14.8612 3.00688C15.1819 3.00688 15.5019 3.1275 15.745 3.37125L16.6288 4.255C17.115 4.74125 17.115 5.53625 16.6288 6.0225L16.2281 6.42313C16.5325 6.95188 16.7694 7.5225 16.9319 8.125ZM7.1875 10C7.1875 11.5506 8.44938 12.8125 10 12.8125C11.5506 12.8125 12.8125 11.5506 12.8125 10C12.8125 8.44938 11.5506 7.1875 10 7.1875C8.44938 7.1875 7.1875 8.44938 7.1875 10ZM5.9375 10C5.9375 7.75625 7.75625 5.9375 10 5.9375C12.2437 5.9375 14.0625 7.75625 14.0625 10C14.0625 12.2437 12.2437 14.0625 10 14.0625C7.75625 14.0625 5.9375 12.2437 5.9375 10Z" fill="#686868"/>
</svg>
