<svg width="21" height="20" viewBox="0 0 21 20" fill="none" xmlns="http://www.w3.org/2000/svg">
<path fill-rule="evenodd" clip-rule="evenodd" d="M17.5627 10.625H16.9946H16.0371L15.7877 11.5494C15.654 12.0444 15.459 12.5169 15.2077 12.9537L14.7296 13.7838L15.4071 14.4606L15.8077 14.8612L14.924 15.745L14.5234 15.3444L13.8459 14.6669L13.0159 15.145C12.5796 15.3962 12.1077 15.5906 11.6121 15.725L10.6877 15.975V16.9319V17.5H9.43774V16.9319V15.975L8.51337 15.725C8.01774 15.5906 7.54587 15.3962 7.10962 15.145L6.27962 14.6669L5.60212 15.3444L5.20149 15.745L4.31774 14.8612L4.71837 14.4606L5.39524 13.7838L4.91774 12.9537C4.66649 12.5169 4.47149 12.0444 4.33774 11.5494L4.08837 10.625H3.13087H2.56274V9.375H3.13087H4.08837L4.33774 8.45062C4.47149 7.95563 4.66649 7.48313 4.91774 7.04625L5.39524 6.21625L4.71837 5.53937L4.31774 5.13875L5.20149 4.255L5.60212 4.65562L6.27962 5.3325L7.10962 4.855C7.54587 4.60375 8.01774 4.40937 8.51337 4.275L9.43774 4.025V3.06813V2.5H10.6877V3.06813V4.025L11.6121 4.275C12.1071 4.40937 12.5796 4.60375 13.0159 4.855L13.8459 5.3325L14.5234 4.65562L14.924 4.255L15.8077 5.13875L15.4071 5.53937L14.7296 6.21625L15.2077 7.04625C15.459 7.48313 15.654 7.95563 15.7877 8.45062L16.0371 9.375H16.9946H17.5627V10.625ZM17.5627 8.125H16.9946C16.8321 7.5225 16.5952 6.95188 16.2909 6.42313L16.6915 6.0225C17.1777 5.53625 17.1777 4.74125 16.6915 4.255L15.8077 3.37125C15.5646 3.1275 15.2446 3.00688 14.924 3.00688C14.6034 3.00688 14.2827 3.1275 14.0402 3.37125L13.6396 3.77125C13.1109 3.4675 12.5402 3.23125 11.9377 3.06813V2.5C11.9377 1.8125 11.3752 1.25 10.6877 1.25H9.43774C8.75024 1.25 8.18774 1.8125 8.18774 2.5V3.06813C7.58524 3.23125 7.01462 3.4675 6.48587 3.77125L6.08524 3.37125C5.84212 3.1275 5.52149 3.00688 5.20149 3.00688C4.88087 3.00688 4.56024 3.1275 4.31774 3.37125L3.43399 4.255C2.94774 4.74125 2.94774 5.53625 3.43399 6.0225L3.83462 6.42313C3.53024 6.95188 3.29337 7.5225 3.13087 8.125H2.56274C1.87524 8.125 1.31274 8.6875 1.31274 9.375V10.625C1.31274 11.3125 1.87524 11.875 2.56274 11.875H3.13087C3.29337 12.4775 3.53024 13.0481 3.83462 13.5769L3.43399 13.9775C2.94774 14.4637 2.94774 15.2587 3.43399 15.745L4.31774 16.6288C4.56024 16.8719 4.88087 16.9931 5.20149 16.9931C5.52149 16.9931 5.84212 16.8719 6.08524 16.6288L6.48587 16.2281C7.01462 16.5325 7.58524 16.7688 8.18774 16.9319V17.5C8.18774 18.1875 8.75024 18.75 9.43774 18.75H10.6877C11.3752 18.75 11.9377 18.1875 11.9377 17.5V16.9319C12.5402 16.7688 13.1109 16.5325 13.6396 16.2281L14.0402 16.6288C14.2827 16.8719 14.6034 16.9931 14.924 16.9931C15.2446 16.9931 15.5646 16.8719 15.8077 16.6288L16.6915 15.745C17.1777 15.2587 17.1777 14.4637 16.6915 13.9775L16.2909 13.5769C16.5952 13.0481 16.8321 12.4775 16.9946 11.875H17.5627C18.2502 11.875 18.8127 11.3125 18.8127 10.625V9.375C18.8127 8.6875 18.2502 8.125 17.5627 8.125Z" fill="#9C9C9C"/>
<path fill-rule="evenodd" clip-rule="evenodd" d="M10.0627 12.8125C8.51212 12.8125 7.25024 11.5506 7.25024 10C7.25024 8.44938 8.51212 7.1875 10.0627 7.1875C11.6134 7.1875 12.8752 8.44938 12.8752 10C12.8752 11.5506 11.6134 12.8125 10.0627 12.8125ZM10.0627 5.9375C7.81899 5.9375 6.00024 7.75625 6.00024 10C6.00024 12.2438 7.81899 14.0625 10.0627 14.0625C12.3065 14.0625 14.1252 12.2438 14.1252 10C14.1252 7.75625 12.3065 5.9375 10.0627 5.9375Z" fill="#9C9C9C"/>
</svg>
