<svg width="20" height="21" viewBox="0 0 20 21" fill="none" xmlns="http://www.w3.org/2000/svg">
<path fill-rule="evenodd" clip-rule="evenodd" d="M16.9319 11.268H17.5V10.018H16.9319H15.9744L15.725 9.09363C15.5912 8.59863 15.3962 8.12613 15.145 7.68926L14.6669 6.85926L15.3444 6.18238L15.745 5.78176L14.8612 4.89801L14.4606 5.29863L13.7831 5.97551L12.9531 5.49801C12.5169 5.24676 12.0444 5.05238 11.5494 4.91801L10.625 4.66801V3.71113V3.14301H9.375V3.71113V4.66801L8.45062 4.91801C7.955 5.05238 7.48313 5.24676 7.04688 5.49801L6.21688 5.97551L5.53937 5.29863L5.13875 4.89801L4.255 5.78176L4.65562 6.18238L5.3325 6.85926L4.855 7.68926C4.60375 8.12613 4.40875 8.59863 4.275 9.09363L4.02562 10.018H3.06813H2.5V11.268H3.06813H4.02562L4.275 12.1924C4.40875 12.6874 4.60375 13.1599 4.855 13.5968L5.3325 14.4268L4.65562 15.1036L4.255 15.5043L5.13875 16.388L5.53937 15.9874L6.21688 15.3099L7.04688 15.788C7.48313 16.0393 7.955 16.2336 8.45062 16.368L9.375 16.618V17.5749V18.143H10.625V17.5749V16.618L11.5494 16.368C12.045 16.2336 12.5169 16.0393 12.9531 15.788L13.7831 15.3099L14.4606 15.9874L14.8612 16.388L15.745 15.5043L15.3444 15.1036L14.6669 14.4268L15.145 13.5968C15.3962 13.1599 15.5912 12.6874 15.725 12.1924L15.9744 11.268H16.9319ZM16.9319 8.76801H17.5C18.1875 8.76801 18.75 9.33051 18.75 10.018V11.268C18.75 11.9555 18.1875 12.518 17.5 12.518H16.9319C16.7694 13.1205 16.5325 13.6911 16.2281 14.2199L16.6288 14.6205C17.115 15.1068 17.115 15.9018 16.6288 16.388L15.745 17.2718C15.5019 17.5149 15.1819 17.6361 14.8612 17.6361C14.5406 17.6361 14.22 17.5149 13.9775 17.2718L13.5769 16.8711C13.0481 17.1755 12.4775 17.4118 11.875 17.5749V18.143C11.875 18.8305 11.3125 19.393 10.625 19.393H9.375C8.6875 19.393 8.125 18.8305 8.125 18.143V17.5749C7.5225 17.4118 6.95188 17.1755 6.42313 16.8711L6.0225 17.2718C5.77938 17.5149 5.45875 17.6361 5.13875 17.6361C4.81813 17.6361 4.4975 17.5149 4.255 17.2718L3.37125 16.388C2.885 15.9018 2.885 15.1068 3.37125 14.6205L3.77187 14.2199C3.4675 13.6911 3.23062 13.1205 3.06813 12.518H2.5C1.8125 12.518 1.25 11.9555 1.25 11.268V10.018C1.25 9.33051 1.8125 8.76801 2.5 8.76801H3.06813C3.23062 8.16551 3.4675 7.59488 3.77187 7.06613L3.37125 6.66551C2.885 6.17926 2.885 5.38426 3.37125 4.89801L4.255 4.01426C4.4975 3.77051 4.81813 3.64988 5.13875 3.64988C5.45875 3.64988 5.77938 3.77051 6.0225 4.01426L6.42313 4.41426C6.95188 4.11051 7.5225 3.87426 8.125 3.71113V3.14301C8.125 2.45551 8.6875 1.89301 9.375 1.89301H10.625C11.3125 1.89301 11.875 2.45551 11.875 3.14301V3.71113C12.4775 3.87426 13.0481 4.11051 13.5769 4.41426L13.9775 4.01426C14.22 3.77051 14.5406 3.64988 14.8612 3.64988C15.1819 3.64988 15.5019 3.77051 15.745 4.01426L16.6288 4.89801C17.115 5.38426 17.115 6.17926 16.6288 6.66551L16.2281 7.06613C16.5325 7.59488 16.7694 8.16551 16.9319 8.76801ZM7.1875 10.643C7.1875 12.1936 8.44938 13.4555 10 13.4555C11.5506 13.4555 12.8125 12.1936 12.8125 10.643C12.8125 9.09238 11.5506 7.83051 10 7.83051C8.44938 7.83051 7.1875 9.09238 7.1875 10.643ZM5.9375 10.643C5.9375 8.39926 7.75625 6.58051 10 6.58051C12.2437 6.58051 14.0625 8.39926 14.0625 10.643C14.0625 12.8868 12.2437 14.7055 10 14.7055C7.75625 14.7055 5.9375 12.8868 5.9375 10.643Z" fill="#686868"/>
</svg>
