<svg width="21" height="20" viewBox="0 0 21 20" fill="none" xmlns="http://www.w3.org/2000/svg">
<path fill-rule="evenodd" clip-rule="evenodd" d="M17.9741 10.625H17.406H16.4485L16.1991 11.5494C16.0654 12.0444 15.8704 12.5169 15.6191 12.9537L15.141 13.7838L15.8185 14.4606L16.2191 14.8612L15.3354 15.745L14.9347 15.3444L14.2572 14.6669L13.4272 15.145C12.991 15.3963 12.5191 15.5906 12.0235 15.725L11.0991 15.975V16.9319V17.5H9.84912V16.9319V15.975L8.92475 15.725C8.42912 15.5906 7.95725 15.3963 7.521 15.145L6.691 14.6669L6.0135 15.3444L5.61287 15.745L4.72912 14.8612L5.12975 14.4606L5.80662 13.7838L5.32912 12.9537C5.07787 12.5169 4.88287 12.0444 4.74912 11.5494L4.49975 10.625H3.54225H2.97412V9.375H3.54225H4.49975L4.74912 8.45062C4.88287 7.95562 5.07787 7.48313 5.32912 7.04625L5.80662 6.21625L5.12975 5.53937L4.72912 5.13875L5.61287 4.255L6.0135 4.65562L6.691 5.3325L7.521 4.855C7.95725 4.60375 8.42912 4.40937 8.92475 4.275L9.84912 4.025V3.06812V2.5H11.0991V3.06812V4.025L12.0235 4.275C12.5185 4.40937 12.991 4.60375 13.4272 4.855L14.2572 5.3325L14.9347 4.65562L15.3354 4.255L16.2191 5.13875L15.8185 5.53937L15.141 6.21625L15.6191 7.04625C15.8704 7.48313 16.0654 7.95562 16.1991 8.45062L16.4485 9.375H17.406H17.9741V10.625ZM17.9741 8.125H17.406C17.2435 7.5225 17.0066 6.95188 16.7022 6.42313L17.1029 6.0225C17.5891 5.53625 17.5891 4.74125 17.1029 4.255L16.2191 3.37125C15.976 3.1275 15.656 3.00688 15.3354 3.00688C15.0147 3.00688 14.6941 3.1275 14.4516 3.37125L14.051 3.77125C13.5222 3.4675 12.9516 3.23125 12.3491 3.06812V2.5C12.3491 1.8125 11.7866 1.25 11.0991 1.25H9.84912C9.16162 1.25 8.59912 1.8125 8.59912 2.5V3.06812C7.99662 3.23125 7.426 3.4675 6.89725 3.77125L6.49662 3.37125C6.2535 3.1275 5.93287 3.00688 5.61287 3.00688C5.29225 3.00688 4.97162 3.1275 4.72912 3.37125L3.84537 4.255C3.35912 4.74125 3.35912 5.53625 3.84537 6.0225L4.246 6.42313C3.94162 6.95188 3.70475 7.5225 3.54225 8.125H2.97412C2.28662 8.125 1.72412 8.6875 1.72412 9.375V10.625C1.72412 11.3125 2.28662 11.875 2.97412 11.875H3.54225C3.70475 12.4775 3.94162 13.0481 4.246 13.5769L3.84537 13.9775C3.35912 14.4638 3.35912 15.2587 3.84537 15.745L4.72912 16.6288C4.97162 16.8719 5.29225 16.9931 5.61287 16.9931C5.93287 16.9931 6.2535 16.8719 6.49662 16.6288L6.89725 16.2281C7.426 16.5325 7.99662 16.7687 8.59912 16.9319V17.5C8.59912 18.1875 9.16162 18.75 9.84912 18.75H11.0991C11.7866 18.75 12.3491 18.1875 12.3491 17.5V16.9319C12.9516 16.7687 13.5222 16.5325 14.051 16.2281L14.4516 16.6288C14.6941 16.8719 15.0147 16.9931 15.3354 16.9931C15.656 16.9931 15.976 16.8719 16.2191 16.6288L17.1029 15.745C17.5891 15.2587 17.5891 14.4638 17.1029 13.9775L16.7022 13.5769C17.0066 13.0481 17.2435 12.4775 17.406 11.875H17.9741C18.6616 11.875 19.2241 11.3125 19.2241 10.625V9.375C19.2241 8.6875 18.6616 8.125 17.9741 8.125V8.125Z" fill="#9C9C9C"/>
<path fill-rule="evenodd" clip-rule="evenodd" d="M10.4741 12.8125C8.9235 12.8125 7.66162 11.5506 7.66162 10C7.66162 8.44938 8.9235 7.1875 10.4741 7.1875C12.0247 7.1875 13.2866 8.44938 13.2866 10C13.2866 11.5506 12.0247 12.8125 10.4741 12.8125M10.4741 5.9375C8.23037 5.9375 6.41162 7.75625 6.41162 10C6.41162 12.2437 8.23037 14.0625 10.4741 14.0625C12.7179 14.0625 14.5366 12.2437 14.5366 10C14.5366 7.75625 12.7179 5.9375 10.4741 5.9375" fill="#9C9C9C"/>
</svg>
