<svg width="21" height="20" viewBox="0 0 21 20" fill="none" xmlns="http://www.w3.org/2000/svg">
<path fill-rule="evenodd" clip-rule="evenodd" d="M18 10.625H17.4319H16.4744L16.225 11.5494C16.0912 12.0444 15.8962 12.5169 15.645 12.9537L15.1669 13.7838L15.8444 14.4606L16.245 14.8612L15.3612 15.745L14.9606 15.3444L14.2831 14.6669L13.4531 15.145C13.0169 15.3962 12.545 15.5906 12.0494 15.725L11.125 15.975V16.9319V17.5H9.875V16.9319V15.975L8.95062 15.725C8.455 15.5906 7.98313 15.3962 7.54688 15.145L6.71688 14.6669L6.03937 15.3444L5.63875 15.745L4.755 14.8612L5.15562 14.4606L5.8325 13.7838L5.355 12.9537C5.10375 12.5169 4.90875 12.0444 4.775 11.5494L4.52562 10.625H3.56813H3V9.375H3.56813H4.52562L4.775 8.45062C4.90875 7.95563 5.10375 7.48313 5.355 7.04625L5.8325 6.21625L5.15562 5.53937L4.755 5.13875L5.63875 4.255L6.03937 4.65562L6.71688 5.3325L7.54688 4.855C7.98313 4.60375 8.455 4.40937 8.95062 4.275L9.875 4.025V3.06813V2.5H11.125V3.06813V4.025L12.0494 4.275C12.5444 4.40937 13.0169 4.60375 13.4531 4.855L14.2831 5.3325L14.9606 4.65562L15.3612 4.255L16.245 5.13875L15.8444 5.53937L15.1669 6.21625L15.645 7.04625C15.8962 7.48313 16.0912 7.95563 16.225 8.45062L16.4744 9.375H17.4319H18V10.625ZM18 8.125H17.4319C17.2694 7.5225 17.0325 6.95188 16.7281 6.42313L17.1288 6.0225C17.615 5.53625 17.615 4.74125 17.1288 4.255L16.245 3.37125C16.0019 3.1275 15.6819 3.00688 15.3612 3.00688C15.0406 3.00688 14.72 3.1275 14.4775 3.37125L14.0769 3.77125C13.5481 3.4675 12.9775 3.23125 12.375 3.06813V2.5C12.375 1.8125 11.8125 1.25 11.125 1.25H9.875C9.1875 1.25 8.625 1.8125 8.625 2.5V3.06813C8.0225 3.23125 7.45188 3.4675 6.92313 3.77125L6.5225 3.37125C6.27938 3.1275 5.95875 3.00688 5.63875 3.00688C5.31813 3.00688 4.9975 3.1275 4.755 3.37125L3.87125 4.255C3.385 4.74125 3.385 5.53625 3.87125 6.0225L4.27187 6.42313C3.9675 6.95188 3.73062 7.5225 3.56813 8.125H3C2.3125 8.125 1.75 8.6875 1.75 9.375V10.625C1.75 11.3125 2.3125 11.875 3 11.875H3.56813C3.73062 12.4775 3.9675 13.0481 4.27187 13.5769L3.87125 13.9775C3.385 14.4637 3.385 15.2587 3.87125 15.745L4.755 16.6288C4.9975 16.8719 5.31813 16.9931 5.63875 16.9931C5.95875 16.9931 6.27938 16.8719 6.5225 16.6288L6.92313 16.2281C7.45188 16.5325 8.0225 16.7688 8.625 16.9319V17.5C8.625 18.1875 9.1875 18.75 9.875 18.75H11.125C11.8125 18.75 12.375 18.1875 12.375 17.5V16.9319C12.9775 16.7688 13.5481 16.5325 14.0769 16.2281L14.4775 16.6288C14.72 16.8719 15.0406 16.9931 15.3612 16.9931C15.6819 16.9931 16.0019 16.8719 16.245 16.6288L17.1288 15.745C17.615 15.2587 17.615 14.4637 17.1288 13.9775L16.7281 13.5769C17.0325 13.0481 17.2694 12.4775 17.4319 11.875H18C18.6875 11.875 19.25 11.3125 19.25 10.625V9.375C19.25 8.6875 18.6875 8.125 18 8.125Z" fill="#9C9C9C"/>
<path fill-rule="evenodd" clip-rule="evenodd" d="M10.5 12.8125C8.94938 12.8125 7.6875 11.5506 7.6875 10C7.6875 8.44938 8.94938 7.1875 10.5 7.1875C12.0506 7.1875 13.3125 8.44938 13.3125 10C13.3125 11.5506 12.0506 12.8125 10.5 12.8125ZM10.5 5.9375C8.25625 5.9375 6.4375 7.75625 6.4375 10C6.4375 12.2438 8.25625 14.0625 10.5 14.0625C12.7438 14.0625 14.5625 12.2438 14.5625 10C14.5625 7.75625 12.7438 5.9375 10.5 5.9375Z" fill="#9C9C9C"/>
</svg>
