<svg width="20" height="21" viewBox="0 0 20 21" fill="none" xmlns="http://www.w3.org/2000/svg">
<path fill-rule="evenodd" clip-rule="evenodd" d="M16.9319 11.125H17.5V9.875H16.9319H15.9744L15.725 8.95062C15.5912 8.45563 15.3962 7.98313 15.145 7.54625L14.6669 6.71625L15.3444 6.03937L15.745 5.63875L14.8612 4.755L14.4606 5.15562L13.7831 5.8325L12.9531 5.355C12.5169 5.10375 12.0444 4.90937 11.5494 4.775L10.625 4.525V3.56813V3H9.375V3.56813V4.525L8.45062 4.775C7.955 4.90937 7.48313 5.10375 7.04688 5.355L6.21688 5.8325L5.53937 5.15562L5.13875 4.755L4.255 5.63875L4.65562 6.03937L5.3325 6.71625L4.855 7.54625C4.60375 7.98313 4.40875 8.45563 4.275 8.95062L4.02562 9.875H3.06813H2.5V11.125H3.06813H4.02562L4.275 12.0494C4.40875 12.5444 4.60375 13.0169 4.855 13.4537L5.3325 14.2838L4.65562 14.9606L4.255 15.3612L5.13875 16.245L5.53937 15.8444L6.21688 15.1669L7.04688 15.645C7.48313 15.8962 7.955 16.0906 8.45062 16.225L9.375 16.475V17.4319V18H10.625V17.4319V16.475L11.5494 16.225C12.045 16.0906 12.5169 15.8962 12.9531 15.645L13.7831 15.1669L14.4606 15.8444L14.8612 16.245L15.745 15.3612L15.3444 14.9606L14.6669 14.2838L15.145 13.4537C15.3962 13.0169 15.5912 12.5444 15.725 12.0494L15.9744 11.125H16.9319ZM16.9319 8.625H17.5C18.1875 8.625 18.75 9.1875 18.75 9.875V11.125C18.75 11.8125 18.1875 12.375 17.5 12.375H16.9319C16.7694 12.9775 16.5325 13.5481 16.2281 14.0769L16.6288 14.4775C17.115 14.9637 17.115 15.7587 16.6288 16.245L15.745 17.1288C15.5019 17.3719 15.1819 17.4931 14.8612 17.4931C14.5406 17.4931 14.22 17.3719 13.9775 17.1288L13.5769 16.7281C13.0481 17.0325 12.4775 17.2688 11.875 17.4319V18C11.875 18.6875 11.3125 19.25 10.625 19.25H9.375C8.6875 19.25 8.125 18.6875 8.125 18V17.4319C7.5225 17.2688 6.95188 17.0325 6.42313 16.7281L6.0225 17.1288C5.77938 17.3719 5.45875 17.4931 5.13875 17.4931C4.81813 17.4931 4.4975 17.3719 4.255 17.1288L3.37125 16.245C2.885 15.7587 2.885 14.9637 3.37125 14.4775L3.77187 14.0769C3.4675 13.5481 3.23062 12.9775 3.06813 12.375H2.5C1.8125 12.375 1.25 11.8125 1.25 11.125V9.875C1.25 9.1875 1.8125 8.625 2.5 8.625H3.06813C3.23062 8.0225 3.4675 7.45188 3.77187 6.92313L3.37125 6.5225C2.885 6.03625 2.885 5.24125 3.37125 4.755L4.255 3.87125C4.4975 3.6275 4.81813 3.50688 5.13875 3.50688C5.45875 3.50688 5.77938 3.6275 6.0225 3.87125L6.42313 4.27125C6.95188 3.9675 7.5225 3.73125 8.125 3.56813V3C8.125 2.3125 8.6875 1.75 9.375 1.75H10.625C11.3125 1.75 11.875 2.3125 11.875 3V3.56813C12.4775 3.73125 13.0481 3.9675 13.5769 4.27125L13.9775 3.87125C14.22 3.6275 14.5406 3.50688 14.8612 3.50688C15.1819 3.50688 15.5019 3.6275 15.745 3.87125L16.6288 4.755C17.115 5.24125 17.115 6.03625 16.6288 6.5225L16.2281 6.92313C16.5325 7.45188 16.7694 8.0225 16.9319 8.625ZM7.1875 10.5C7.1875 12.0506 8.44938 13.3125 10 13.3125C11.5506 13.3125 12.8125 12.0506 12.8125 10.5C12.8125 8.94938 11.5506 7.6875 10 7.6875C8.44938 7.6875 7.1875 8.94938 7.1875 10.5ZM5.9375 10.5C5.9375 8.25625 7.75625 6.4375 10 6.4375C12.2437 6.4375 14.0625 8.25625 14.0625 10.5C14.0625 12.7437 12.2437 14.5625 10 14.5625C7.75625 14.5625 5.9375 12.7437 5.9375 10.5Z" fill="#686868"/>
</svg>
