<svg width="20" height="20" viewBox="0 0 20 20" fill="none" xmlns="http://www.w3.org/2000/svg">
<path fill-rule="evenodd" clip-rule="evenodd" d="M17.5 10.625H16.9319H15.9744L15.725 11.5494C15.5912 12.0444 15.3962 12.5169 15.145 12.9537L14.6669 13.7838L15.3444 14.4606L15.745 14.8612L14.8612 15.745L14.4606 15.3444L13.7831 14.6669L12.9531 15.145C12.5169 15.3962 12.045 15.5906 11.5494 15.725L10.625 15.975V16.9319V17.5H9.375V16.9319V15.975L8.45062 15.725C7.955 15.5906 7.48313 15.3962 7.04688 15.145L6.21688 14.6669L5.53937 15.3444L5.13875 15.745L4.255 14.8612L4.65562 14.4606L5.3325 13.7838L4.855 12.9537C4.60375 12.5169 4.40875 12.0444 4.275 11.5494L4.02562 10.625H3.06813H2.5V9.375H3.06813H4.02562L4.275 8.45062C4.40875 7.95563 4.60375 7.48313 4.855 7.04625L5.3325 6.21625L4.65562 5.53937L4.255 5.13875L5.13875 4.255L5.53937 4.65562L6.21688 5.3325L7.04688 4.855C7.48313 4.60375 7.955 4.40937 8.45062 4.275L9.375 4.025V3.06813V2.5H10.625V3.06813V4.025L11.5494 4.275C12.0444 4.40937 12.5169 4.60375 12.9531 4.855L13.7831 5.3325L14.4606 4.65562L14.8612 4.255L15.745 5.13875L15.3444 5.53937L14.6669 6.21625L15.145 7.04625C15.3962 7.48313 15.5912 7.95563 15.725 8.45062L15.9744 9.375H16.9319H17.5V10.625ZM17.5 8.125H16.9319C16.7694 7.5225 16.5325 6.95188 16.2281 6.42313L16.6288 6.0225C17.115 5.53625 17.115 4.74125 16.6288 4.255L15.745 3.37125C15.5019 3.1275 15.1819 3.00688 14.8612 3.00688C14.5406 3.00688 14.22 3.1275 13.9775 3.37125L13.5769 3.77125C13.0481 3.4675 12.4775 3.23125 11.875 3.06813V2.5C11.875 1.8125 11.3125 1.25 10.625 1.25H9.375C8.6875 1.25 8.125 1.8125 8.125 2.5V3.06813C7.5225 3.23125 6.95188 3.4675 6.42313 3.77125L6.0225 3.37125C5.77938 3.1275 5.45875 3.00688 5.13875 3.00688C4.81813 3.00688 4.4975 3.1275 4.255 3.37125L3.37125 4.255C2.885 4.74125 2.885 5.53625 3.37125 6.0225L3.77187 6.42313C3.4675 6.95188 3.23062 7.5225 3.06813 8.125H2.5C1.8125 8.125 1.25 8.6875 1.25 9.375V10.625C1.25 11.3125 1.8125 11.875 2.5 11.875H3.06813C3.23062 12.4775 3.4675 13.0481 3.77187 13.5769L3.37125 13.9775C2.885 14.4637 2.885 15.2587 3.37125 15.745L4.255 16.6288C4.4975 16.8719 4.81813 16.9931 5.13875 16.9931C5.45875 16.9931 5.77938 16.8719 6.0225 16.6288L6.42313 16.2281C6.95188 16.5325 7.5225 16.7688 8.125 16.9319V17.5C8.125 18.1875 8.6875 18.75 9.375 18.75H10.625C11.3125 18.75 11.875 18.1875 11.875 17.5V16.9319C12.4775 16.7688 13.0481 16.5325 13.5769 16.2281L13.9775 16.6288C14.22 16.8719 14.5406 16.9931 14.8612 16.9931C15.1819 16.9931 15.5019 16.8719 15.745 16.6288L16.6288 15.745C17.115 15.2587 17.115 14.4637 16.6288 13.9775L16.2281 13.5769C16.5325 13.0481 16.7694 12.4775 16.9319 11.875H17.5C18.1875 11.875 18.75 11.3125 18.75 10.625V9.375C18.75 8.6875 18.1875 8.125 17.5 8.125Z" fill="#9C9C9C"/>
<path fill-rule="evenodd" clip-rule="evenodd" d="M10 12.8125C8.44938 12.8125 7.1875 11.5506 7.1875 10C7.1875 8.44938 8.44938 7.1875 10 7.1875C11.5506 7.1875 12.8125 8.44938 12.8125 10C12.8125 11.5506 11.5506 12.8125 10 12.8125ZM10 5.9375C7.75625 5.9375 5.9375 7.75625 5.9375 10C5.9375 12.2438 7.75625 14.0625 10 14.0625C12.2438 14.0625 14.0625 12.2438 14.0625 10C14.0625 7.75625 12.2438 5.9375 10 5.9375Z" fill="#9C9C9C"/>
</svg>
