<svg width="36" height="36" viewBox="0 0 36 36" fill="none" xmlns="http://www.w3.org/2000/svg">
<rect x="0.5" y="0.5" width="35" height="35" rx="3.5" fill="white" stroke="#F2F2F2"/>
<path fill-rule="evenodd" clip-rule="evenodd" d="M15.875 21.5C12.7731 21.5 10.25 18.9762 10.25 15.875C10.25 12.7731 12.7731 10.25 15.875 10.25C18.9762 10.25 21.5 12.7731 21.5 15.875C21.5 18.9762 18.9762 21.5 15.875 21.5ZM15.875 9C12.0781 9 9 12.0781 9 15.875C9 19.6719 12.0781 22.75 15.875 22.75C19.6719 22.75 22.75 19.6719 22.75 15.875C22.75 12.0781 19.6719 9 15.875 9Z" fill="#606060"/>
<path fill-rule="evenodd" clip-rule="evenodd" d="M22.038 21.1543C21.7662 21.4712 21.4712 21.7662 21.1543 22.038L25.6162 26.4999L26.4999 25.6155L22.038 21.1543Z" fill="#606060"/>
</svg>
