<svg width="36" height="36" viewBox="0 0 36 36" fill="none" xmlns="http://www.w3.org/2000/svg">
<rect x="0.5" y="0.5" width="35" height="35" rx="3.5" fill="white" stroke="#F2F2F2"/>
<path fill-rule="evenodd" clip-rule="evenodd" d="M25.1334 12.1064C25.6222 12.5952 25.6222 13.3877 25.1334 13.8764L24.2322 14.7777L23.3478 13.8939L24.249 12.9927L21.7572 10.5008L20.8559 11.402L19.9722 10.5183L20.8734 9.61703C21.3622 9.12766 22.1547 9.12766 22.6434 9.61703L25.1334 12.1064Z" fill="#606060"/>
<path fill-rule="evenodd" clip-rule="evenodd" d="M12.7631 19.8286L14.9219 21.9867L12.1463 22.6036L12.7631 19.8286ZM15.9725 21.2698L13.48 18.7773L19.0875 13.1698L21.58 15.6617L15.9725 21.2698ZM23.3481 15.6617L22.4637 14.778L19.0913 11.4042L19.0881 11.4023L11.7169 18.773L10.5 24.2498L15.9769 23.033L23.3481 15.6617Z" fill="#606060"/>
<path fill-rule="evenodd" clip-rule="evenodd" d="M10.5 26.75H25.5V25.5H10.5V26.75Z" fill="#606060"/>
</svg>
