<svg width="36" height="36" viewBox="0 0 36 36" fill="none" xmlns="http://www.w3.org/2000/svg">
<rect x="0.5" y="0.5" width="35" height="35" rx="3.5" fill="white" stroke="#F2F2F2"/>
<path fill-rule="evenodd" clip-rule="evenodd" d="M11.125 18C11.125 17.1387 11.8256 16.4375 12.6875 16.4375C13.5494 16.4375 14.25 17.1387 14.25 18C14.25 18.8619 13.5494 19.5625 12.6875 19.5625C11.8256 19.5625 11.125 18.8619 11.125 18M21.75 23.3125C21.75 22.4506 22.4506 21.75 23.3125 21.75C24.1744 21.75 24.875 22.4506 24.875 23.3125C24.875 24.1744 24.1744 24.875 23.3125 24.875C22.4506 24.875 21.75 24.1744 21.75 23.3125M21.75 12.6875C21.75 11.8262 22.4506 11.125 23.3125 11.125C24.1744 11.125 24.875 11.8262 24.875 12.6875C24.875 13.5488 24.1744 14.25 23.3125 14.25C22.4506 14.25 21.75 13.5488 21.75 12.6875M9.875 18C9.875 19.5531 11.1344 20.8125 12.6875 20.8125C13.51 20.8125 14.2431 20.4531 14.7575 19.89L20.5531 22.7875C20.5206 22.9581 20.5 23.1325 20.5 23.3125C20.5 24.8656 21.7594 26.125 23.3125 26.125C24.8656 26.125 26.125 24.8656 26.125 23.3125C26.125 21.7594 24.8656 20.5 23.3125 20.5C22.3869 20.5 21.5725 20.9537 21.06 21.6437L15.3706 18.7987C15.4469 18.5444 15.5 18.2794 15.5 18C15.5 17.7206 15.4469 17.4556 15.3706 17.2013L21.06 14.3563C21.5725 15.0469 22.3869 15.5 23.3125 15.5C24.8656 15.5 26.125 14.2406 26.125 12.6875C26.125 11.1344 24.8656 9.875 23.3125 9.875C21.7594 9.875 20.5 11.1344 20.5 12.6875C20.5 12.8675 20.5206 13.0419 20.5531 13.2119L14.7575 16.11C14.2431 15.5469 13.51 15.1875 12.6875 15.1875C11.1344 15.1875 9.875 16.4469 9.875 18" fill="#686868"/>
</svg>
