<svg width="36" height="36" viewBox="0 0 36 36" fill="none" xmlns="http://www.w3.org/2000/svg">
<rect x="0.5" y="0.5" width="35" height="35" rx="3.5" fill="white" stroke="#F2F2F2"/>
<path fill-rule="evenodd" clip-rule="evenodd" d="M25.4902 21.125V24.25H10.4902V21.125H9.24023V24.25C9.24023 24.9375 9.80273 25.5 10.4902 25.5H25.4902C26.1777 25.5 26.7402 24.9375 26.7402 24.25V21.125H25.4902Z" fill="#606060"/>
<path fill-rule="evenodd" clip-rule="evenodd" d="M16.7403 18.625V17.375V13.625H19.2403V17.375V18.625H20.084L17.9846 20.8406L15.8909 18.625H16.7403ZM17.984 22.375C18.1521 22.375 18.3202 22.3081 18.444 22.1731L22.9902 17.375H20.4902V12.375H15.4902V17.375H12.9902L17.5227 22.1719C17.6465 22.3075 17.8152 22.375 17.984 22.375Z" fill="#606060"/>
<path fill-rule="evenodd" clip-rule="evenodd" d="M15.4902 11.125H20.4902V9.875H15.4902V11.125Z" fill="#606060"/>
</svg>
