<svg width="24" height="24" viewBox="0 0 24 24" fill="none" xmlns="http://www.w3.org/2000/svg">
<path d="M18.7357 3.41961H17.9398V2.75961C17.9398 2.58457 17.8702 2.41669 17.7465 2.29292C17.6227 2.16914 17.4548 2.09961 17.2798 2.09961C17.1047 2.09961 16.9368 2.16914 16.8131 2.29292C16.6893 2.41669 16.6198 2.58457 16.6198 2.75961V3.41961H12.6598V2.75961C12.6598 2.58457 12.5902 2.41669 12.4665 2.29292C12.3427 2.16914 12.1748 2.09961 11.9998 2.09961C11.8247 2.09961 11.6568 2.16914 11.5331 2.29292C11.4093 2.41669 11.3398 2.58457 11.3398 2.75961V3.41961H7.37977V2.75961C7.37977 2.58457 7.31023 2.41669 7.18646 2.29292C7.06268 2.16914 6.89481 2.09961 6.71977 2.09961C6.54472 2.09961 6.37685 2.16914 6.25308 2.29292C6.1293 2.41669 6.05977 2.58457 6.05977 2.75961V3.41961H5.26381C4.60001 3.42066 3.96371 3.68481 3.49434 4.15418C3.02497 4.62355 2.76081 5.25986 2.75977 5.92365V19.3956C2.76081 20.0594 3.02497 20.6957 3.49434 21.165C3.96371 21.6344 4.60001 21.8986 5.26381 21.8996H18.7357C19.3995 21.8986 20.0358 21.6344 20.5052 21.165C20.9746 20.6957 21.2387 20.0594 21.2398 19.3956V5.92365C21.2387 5.25986 20.9746 4.62355 20.5052 4.15418C20.0358 3.68481 19.3995 3.42066 18.7357 3.41961ZM10.4857 15.1062L8.50573 17.0862C8.38196 17.21 8.21411 17.2795 8.0391 17.2795C7.8641 17.2795 7.69625 17.21 7.57249 17.0862L6.25249 15.7662C6.18945 15.7053 6.13917 15.6325 6.10458 15.552C6.06999 15.4715 6.05178 15.3849 6.05102 15.2972C6.05026 15.2096 6.06696 15.1227 6.10014 15.0416C6.13333 14.9605 6.18234 14.8868 6.2443 14.8248C6.30627 14.7628 6.37996 14.7138 6.46108 14.6806C6.54219 14.6475 6.6291 14.6308 6.71673 14.6315C6.80436 14.6323 6.89097 14.6505 6.97149 14.6851C7.05202 14.7197 7.12484 14.77 7.18573 14.833L8.03977 15.6864L9.55315 14.173C9.67762 14.0528 9.84434 13.9862 10.0174 13.9877C10.1904 13.9892 10.356 14.0587 10.4783 14.181C10.6007 14.3034 10.6701 14.4689 10.6716 14.642C10.6731 14.815 10.6059 14.9818 10.4857 15.1062ZM10.4857 9.16623L8.50573 11.1462C8.38196 11.27 8.21411 11.3395 8.0391 11.3395C7.8641 11.3395 7.69625 11.27 7.57249 11.1462L6.25249 9.82623C6.18945 9.76535 6.13917 9.69252 6.10458 9.612C6.06999 9.53147 6.05178 9.44487 6.05102 9.35723C6.05026 9.2696 6.06696 9.18269 6.10014 9.10158C6.13333 9.02047 6.18234 8.94678 6.2443 8.88481C6.30627 8.82284 6.37996 8.77383 6.46108 8.74065C6.54219 8.70746 6.6291 8.69076 6.71673 8.69152C6.80436 8.69229 6.89097 8.71049 6.97149 8.74508C7.05202 8.77967 7.12484 8.82995 7.18573 8.89299L8.03977 9.74637L9.55315 8.23299C9.67762 8.11276 9.84434 8.04624 10.0174 8.04774C10.1904 8.04925 10.356 8.11866 10.4783 8.24103C10.6007 8.3634 10.6701 8.52893 10.6716 8.70198C10.6731 8.87503 10.6059 9.04175 10.4857 9.16623ZM17.2798 16.6196H12.6598C12.4847 16.6196 12.3168 16.5501 12.1931 16.4263C12.0693 16.3025 11.9998 16.1347 11.9998 15.9596C11.9998 15.7846 12.0693 15.6167 12.1931 15.4929C12.3168 15.3691 12.4847 15.2996 12.6598 15.2996H17.2798C17.4548 15.2996 17.6227 15.3691 17.7465 15.4929C17.8702 15.6167 17.9398 15.7846 17.9398 15.9596C17.9398 16.1347 17.8702 16.3025 17.7465 16.4263C17.6227 16.5501 17.4548 16.6196 17.2798 16.6196ZM17.2798 10.6796H12.6598C12.4847 10.6796 12.3168 10.6101 12.1931 10.4863C12.0693 10.3625 11.9998 10.1947 11.9998 10.0196C11.9998 9.84457 12.0693 9.67669 12.1931 9.55292C12.3168 9.42914 12.4847 9.35961 12.6598 9.35961H17.2798C17.4548 9.35961 17.6227 9.42914 17.7465 9.55292C17.8702 9.67669 17.9398 9.84457 17.9398 10.0196C17.9398 10.1947 17.8702 10.3625 17.7465 10.4863C17.6227 10.6101 17.4548 10.6796 17.2798 10.6796Z" fill="#131CA2"/>
</svg>
