<svg width="20" height="20" viewBox="0 0 20 20" fill="none" xmlns="http://www.w3.org/2000/svg">
<path fill-rule="evenodd" clip-rule="evenodd" d="M10 17.5C5.86437 17.5 2.5 14.1356 2.5 10C2.5 5.86437 5.86437 2.5 10 2.5C14.1356 2.5 17.5 5.86437 17.5 10C17.5 14.1356 14.1356 17.5 10 17.5M10 1.25C5.1675 1.25 1.25 5.1675 1.25 10C1.25 14.8325 5.1675 18.75 10 18.75C14.8325 18.75 18.75 14.8325 18.75 10C18.75 5.1675 14.8325 1.25 10 1.25" fill="#9C9C9C"/>
<path fill-rule="evenodd" clip-rule="evenodd" d="M14.129 12.4493L9.37524 10.4118V4.37488H10.6252V9.588L14.6209 11.3005L14.129 12.4493Z" fill="#9C9C9C"/>
</svg>
