<svg width="16" height="16" viewBox="0 0 16 16" fill="none" xmlns="http://www.w3.org/2000/svg">
<path fill-rule="evenodd" clip-rule="evenodd" d="M8 14C4.6915 14 2 11.3085 2 8C2 4.6915 4.6915 2 8 2C11.3085 2 14 4.6915 14 8C14 11.3085 11.3085 14 8 14ZM8 1C4.134 1 1 4.134 1 8C1 11.866 4.134 15 8 15C11.866 15 15 11.866 15 8C15 4.134 11.866 1 8 1Z" fill="#A35E04"/>
<path fill-rule="evenodd" clip-rule="evenodd" d="M11.3032 9.9595L7.50024 8.3295V3.5H8.50024V7.6705L11.6967 9.0405L11.3032 9.9595Z" fill="#A35E04"/>
</svg>
