<svg width="207" height="200" viewBox="0 0 207 200" fill="none" xmlns="http://www.w3.org/2000/svg">
<path fill-rule="evenodd" clip-rule="evenodd" d="M23.6939 116.354C17.917 86.4937 28.4337 55.8104 51.2814 35.8584C74.1291 15.9064 105.837 9.71396 134.46 19.6138C163.083 29.5135 184.274 54.0043 190.051 83.8645C195.828 113.725 185.311 144.408 162.463 164.36C139.615 184.312 107.908 190.504 79.2848 180.605C50.6617 170.705 29.4708 146.214 23.6939 116.354L56.9652 109.856C60.4317 127.774 73.1486 142.462 90.3198 148.406C107.491 154.35 126.522 150.633 140.227 138.66C153.931 126.686 160.246 108.28 156.779 90.3623C153.313 72.4446 140.596 57.7558 123.425 51.8119C106.254 45.868 87.2224 49.5848 73.5177 61.5587C59.8131 73.5326 53.4988 91.9382 56.9652 109.856L23.6939 116.354Z" fill="#455A64" fill-opacity="0.01"/>
<path fill-rule="evenodd" clip-rule="evenodd" d="M106.872 14.9733C137.148 14.9733 165.119 31.2002 180.253 57.5412C194.124 81.6857 195.353 111.134 183.54 136.36L152.875 121.861C160.611 105.345 158.984 85.9425 148.621 70.9586C139.122 57.2177 123.523 49.0276 106.872 49.0276V14.9733Z" fill="#50C7AA"/>
<path fill-rule="evenodd" clip-rule="evenodd" d="M96.1517 184.562C66.115 180.752 40.3913 161.131 28.66 133.093C16.9287 105.054 20.977 72.8584 39.2825 48.63C55.3035 27.421 80.2754 14.963 106.772 14.9605L106.774 49.0209C88.609 49.025 71.8252 58.7563 62.7424 74.5581C53.6597 90.36 53.6572 109.831 62.7424 125.637C70.6902 139.468 84.6236 148.777 100.4 150.779L96.1517 184.562Z" fill="#8C61D3"/>
<path d="M106.448 49.135V14.9733C60.0481 14.9733 22.354 52.2554 22.354 99.4653H55.9166C55.9166 71.6829 79.1424 49.135 106.448 49.135Z" fill="#6188D3"/>
<path fill-rule="evenodd" clip-rule="evenodd" d="M183.672 136.088C177.636 149.085 168.432 160.344 156.913 168.813L136.897 141.331C143.81 136.248 149.331 129.493 152.947 121.696L183.672 136.088Z" fill="#8C61D3"/>
<path fill-rule="evenodd" clip-rule="evenodd" d="M156.913 168.812C151.173 173.028 144.943 176.505 138.344 179.156L125.757 147.539C129.716 145.952 133.454 143.866 136.897 141.331L156.913 168.812Z" fill="#8C61D3"/>
<path fill-rule="evenodd" clip-rule="evenodd" d="M138.344 179.156C125.093 184.478 110.163 186.247 95.9999 184.5L100.5 150.5C109.003 151.549 117.802 150.735 125.757 147.539L138.344 179.156Z" fill="#8C61D3"/>
<path fill-rule="evenodd" clip-rule="evenodd" d="M107.316 160.555C140.543 160.555 167.478 133.493 167.478 100.109C167.478 66.7254 140.543 39.6626 107.316 39.6626C74.0895 39.6626 47.1541 66.7254 47.1541 100.109C47.1541 133.493 74.0895 160.555 107.316 160.555Z" fill="white" fill-opacity="0.5"/>
</svg>
