<svg width="207" height="200" viewBox="0 0 207 200" fill="none" xmlns="http://www.w3.org/2000/svg">
<path fill-rule="evenodd" clip-rule="evenodd" d="M23.6938 116.354C17.9169 86.4937 28.4335 55.8104 51.2813 35.8584C74.129 15.9064 105.837 9.71396 134.46 19.6138C163.083 29.5135 184.274 54.0043 190.05 83.8645C195.827 113.725 185.311 144.408 162.463 164.36C139.615 184.312 107.908 190.504 79.2846 180.605C50.6616 170.705 29.4707 146.214 23.6938 116.354L56.9651 109.856C60.4316 127.774 73.1485 142.462 90.3196 148.406C107.491 154.35 126.522 150.633 140.227 138.66C153.931 126.686 160.246 108.28 156.779 90.3623C153.313 72.4446 140.596 57.7558 123.425 51.8119C106.253 45.868 87.2223 49.5848 73.5176 61.5587C59.8129 73.5326 53.4987 91.9382 56.9651 109.856L23.6938 116.354Z" fill="#455A64" fill-opacity="0.01"/>
<path fill-rule="evenodd" clip-rule="evenodd" d="M106.872 14.9733C137.148 14.9733 165.119 31.2002 180.253 57.5412C194.124 81.6857 195.353 111.134 183.541 136.36L152.875 121.861C160.611 105.345 158.984 85.9425 148.621 70.9586C139.122 57.2177 123.523 49.0276 106.872 49.0276V14.9733Z" fill="#50C7AA"/>
<path fill-rule="evenodd" clip-rule="evenodd" d="M96.1518 184.562C66.1151 180.752 40.3914 161.131 28.6601 133.093C16.9288 105.054 20.9772 72.8584 39.2826 48.63C55.3037 27.421 80.2756 14.963 106.772 14.9605L106.774 49.0209C88.6091 49.025 71.8254 58.7563 62.7426 74.5581C53.6598 90.36 53.6574 109.831 62.7425 125.637C70.6903 139.468 84.6238 148.777 100.4 150.779L96.1518 184.562Z" fill="#8C61D3"/>
<path d="M106.448 49.135V14.9733C60.0482 14.9733 22.3541 52.2554 22.3541 99.4653H55.9167C55.9167 71.6829 79.1426 49.135 106.448 49.135Z" fill="#6188D3"/>
<path fill-rule="evenodd" clip-rule="evenodd" d="M183.672 136.088C177.636 149.085 168.432 160.344 156.913 168.813L136.897 141.331C143.81 136.248 149.331 129.493 152.947 121.696L183.672 136.088Z" fill="#8C61D3"/>
<path fill-rule="evenodd" clip-rule="evenodd" d="M156.913 168.812C151.173 173.028 144.943 176.505 138.344 179.156L125.757 147.539C129.716 145.952 133.454 143.866 136.897 141.331L156.913 168.812Z" fill="#8C61D3"/>
<path fill-rule="evenodd" clip-rule="evenodd" d="M138.344 179.156C125.093 184.478 110.163 186.247 96 184.5L100.5 150.5C109.003 151.549 117.802 150.735 125.757 147.539L138.344 179.156Z" fill="#8C61D3"/>
<path fill-rule="evenodd" clip-rule="evenodd" d="M107.316 160.555C140.543 160.555 167.478 133.493 167.478 100.109C167.478 66.7254 140.543 39.6626 107.316 39.6626C74.0895 39.6626 47.1541 66.7254 47.1541 100.109C47.1541 133.493 74.0895 160.555 107.316 160.555Z" fill="white" fill-opacity="0.5"/>
</svg>
