<svg width="20" height="20" viewBox="0 0 20 20" fill="none" xmlns="http://www.w3.org/2000/svg">
<path d="M19.8752 9.41892C19.6998 9.17899 15.5208 3.54419 10.1835 3.54419C4.84615 3.54419 0.666971 9.17899 0.491771 9.41869C0.32566 9.6463 0.32566 9.95502 0.491771 10.1826C0.666971 10.4226 4.84615 16.0574 10.1835 16.0574C15.5208 16.0574 19.6998 10.4225 19.8752 10.1828C20.0415 9.95525 20.0415 9.6463 19.8752 9.41892ZM10.1835 14.7629C6.25196 14.7629 2.84686 11.023 1.83888 9.80034C2.84556 8.57662 6.24352 4.83865 10.1835 4.83865C14.1148 4.83865 17.5196 8.57793 18.528 9.80122C17.5214 11.0249 14.1234 14.7629 10.1835 14.7629Z" fill="#9C9C9C"/>
<path d="M10.1849 5.91724C8.04365 5.91724 6.30151 7.65938 6.30151 9.80065C6.30151 11.9419 8.04365 13.6841 10.1849 13.6841C12.3262 13.6841 14.0683 11.9419 14.0683 9.80065C14.0683 7.65938 12.3262 5.91724 10.1849 5.91724ZM10.1849 12.3896C8.75734 12.3896 7.59601 11.2282 7.59601 9.80065C7.59601 8.3731 8.75737 7.21173 10.1849 7.21173C11.6125 7.21173 12.7738 8.3731 12.7738 9.80065C12.7738 11.2282 11.6125 12.3896 10.1849 12.3896Z" fill="#9C9C9C"/>
</svg>
